<?xml version="1.0" encoding="utf-8"?>
<!-- Generator: Adobe Illustrator 27.2.0, SVG Export Plug-In . SVG Version: 6.00 Build 0)  -->
<svg version="1.1" id="Ebene_1" xmlns="http://www.w3.org/2000/svg" xmlns:xlink="http://www.w3.org/1999/xlink" x="0px" y="0px"
	 viewBox="0 0 400 500" style="enable-background:new 0 0 400 500;" xml:space="preserve">
<style type="text/css">
	.st0{fill:#5CDFF2;}
	.st1{fill:#282828;}
	.st2{fill:#494949;}
	.st3{opacity:0.3;fill:#091426;enable-background:new    ;}
	.st4{opacity:4.000000e-02;fill:#FFFFFF;enable-background:new    ;}
	.st5{fill:none;}
	.st6{fill:#99C7C9;}
	.st7{fill:#FFC5AF;}
	.st8{fill:#A34F3E;stroke:#8E4637;stroke-width:0.891;}
	.st9{opacity:3.000000e-02;fill:#000D26;enable-background:new    ;}
	.st10{fill:#8D5548;}
	.st11{opacity:3.000000e-02;enable-background:new    ;}
	.st12{fill:#D9E9E6;}
	.st13{fill:#C6D9D5;}
	.st14{fill:#894733;}
	.st15{fill:#A34F3E;}
	.st16{fill:#8E4637;}
	.st17{fill:#FFFFFF;}
	.st18{fill:#474444;}
	.st19{fill:#333333;}
	.st20{fill:#AFAEAE;}
	.st21{fill:#848181;}
	.st22{fill:url(#SVGID_1_);}
	.st23{fill:url(#SVGID_00000001648412225457719990000008457474738665144710_);}
	.st24{fill:#B2B1B1;}
	
		.st25{clip-path:url(#SVGID_00000090282259935789768260000017969270586854566843_);fill:none;stroke:#AFAEAE;stroke-width:1.2482;stroke-miterlimit:10;}
	.st26{fill:#EFEFEF;}
	.st27{clip-path:url(#SVGID_00000021097547246309880920000011915124163022511006_);fill:#ADAAAA;}
	.st28{fill:url(#SVGID_00000034787255472263621210000012121604351623710599_);}
	.st29{fill:url(#SVGID_00000013158757739849232750000012388311486910775216_);}
	
		.st30{clip-path:url(#SVGID_00000111163310661607220260000009631758160263216309_);fill:none;stroke:#AFAEAE;stroke-width:1.2957;stroke-miterlimit:10;}
	.st31{fill:#565656;}
	.st32{display:none;}
</style>
<g>
	<ellipse class="st0" cx="135.2" cy="466.9" rx="128.3" ry="32.9"/>
	<g>
		<path class="st1" d="M223.4,446.3c-2.6-0.6-3.7,1.7-3.7,1.7s-2.9,0.6-5.2-2.3s1.7-7.8-3.5-14.7c-2.9-3.9-7.6-7.6-12.1-10.3
			l-0.5-0.3l-0.6-0.3l-0.3-0.2l-0.4-0.2l-0.3-0.2l-0.4-0.2l-0.3-0.2l-0.4-0.2l-0.3-0.2l-0.3-0.2l-0.3-0.2l-0.3-0.1l-0.4-0.2
			l-0.3-0.1c-0.2-0.1-0.4-0.2-0.6-0.3l-0.2-0.1l-0.4-0.2l-0.3-0.1l-0.4-0.1l-0.2-0.1c-0.1,0-0.2-0.1-0.3-0.1l-0.2-0.1
			c-0.1,0-0.2-0.1-0.3-0.1l-0.2-0.1l-0.4-0.1h-0.2l-0.5-0.1c-0.7-0.1-1.4-0.2-2-0.3l-0.6-2.6l0,0c0,0-5.3,2.5-11.7,5
			c-3.4,1.3-7,2.6-10.2,3.6c-2.3,0.7-4.5,1.1-6.1,1.2c-0.6,0.1-1.3,0-1.9,0c-0.9,0.1-2,0.3-3.2,0.4c-3.9,0.4-9.7,0.6-18.3,0
			c-4.4-0.3-8.4-0.6-11.8-1c-4.3-0.5-7.7-1.3-9.7-2.5c-0.5-0.3-1-0.7-1.3-1.2h-0.5c-3.7,0-7.4-0.3-11.1-0.7
			c-4.6-0.6-8.2-1.9-11.8-4.8l0,0l-0.5,1.5l-3.2,9l-0.8,0.3l-0.2,0.1c-0.3,0.1-0.5,0.2-0.8,0.3h-0.1l-0.9,0.3l-0.2,0.1l-0.8,0.3
			h-0.1c-0.3,0.1-0.6,0.2-0.9,0.4h-0.1c-0.3,0.1-0.6,0.3-0.9,0.4l0,0c-0.3,0.1-0.7,0.3-1,0.4l0,0c-0.3,0.1-0.7,0.3-1,0.5
			c-0.7,0.3-1.3,0.7-2,1c-2.1,1.1-4,2.3-5.9,3.7c-1.1,0.8-2.2,1.7-3.2,2.5h-0.1c-0.4,0.3-0.8,0.7-1.1,1l0,0
			c-0.4,0.4-0.7,0.7-1.1,1.1l0,0c-0.2,0.2-0.4,0.5-0.6,0.7l0,0l0,0c-0.3,0.4-0.7,0.8-1,1.1l0,0c-0.3,0.4-0.7,0.8-1,1.2l-0.1,0.1
			c-0.2,0.2-0.4,0.5-0.5,0.7l-0.1,0.1c-0.4,0.6-0.8,1.1-1.2,1.7v0.1l0,0c-0.2,0.3-0.4,0.6-0.5,0.9l-0.1,0.1
			c-0.1,0.2-0.3,0.5-0.4,0.7c0,0,0,0.1-0.1,0.1c0,0,0,0,0,0.1c-0.4,0.7-0.7,1.4-1.1,2.1l0,0c-0.1,0.3-0.2,0.5-0.3,0.8l-0.1,0.3
			c-0.1,0.3-0.3,0.7-0.4,1l0,0c-0.1,0.3-0.3,0.7-0.4,1.1l0,0l0,0c-0.1,0.4-0.3,0.9-0.4,1.3c-0.1,0.3-0.2,0.5-0.2,0.8
			c0,0.1,0,0.1-0.1,0.2c0,0.1,0,0.1,0,0.2c-0.1,0.3-0.2,0.6-0.2,0.9v0.1v0.1c-0.1,0.4-0.2,0.8-0.3,1.2c0,0.1,0,0.2,0,0.2
			c-0.1,0.3-0.1,0.6-0.2,0.9c0,0.1,0,0.3-0.1,0.4c0,0.3-0.1,0.6-0.1,0.9c0,0.1,0,0.1,0,0.2v0.2c-0.1,0.3-0.1,0.7-0.1,1v0.1v0.1
			c0,0.4-0.1,0.8-0.1,1.3v0.2v0.1c0,0.3,0,0.6-0.1,0.9v0.4c0,0.3,0,0.6,0,0.9v0.4c0,0.4,0,0.9,0,1.4c0.3,8.1,13.8,15,24.8,13l1-0.2
			l0.3-0.1l0.7-0.1l0.4-0.1l0.6-0.1l0.4-0.1l0.6-0.1l0.4-0.1l0.5-0.1l0.5-0.1l0.5-0.1l0.5-0.1l0.4-0.1l0.5-0.1l0.4-0.1l0.5-0.1
			l0.3-0.1c1.6-0.4,3.1-0.8,4.6-1.3h-0.1l0.7-0.2c0.2-0.4,0.3-0.9,0.4-1.4c0.1,0.4,0.2,0.8,0.2,1.2l0.5-0.1c0,0.3,0,0.6,0,1v0.2
			c0,0.3,0,0.6,0,0.9c0.1,0.5,0.3,0.9,0.5,1.3l-0.4,0.2c0,0.2,0,0.3,0,0.5v0.1v0.3c0,0.1,0,0.2,0,0.3l0,0v0.1c0,0.2,0,0.3,0,0.5v0.1
			c0,0.1,0,0.3,0,0.4v0.1c0,0.1,0,0.2,0,0.3v0.2c0,0.1,0,0.2,0,0.3v0.1c0,0.1,0,0.2,0,0.3c0,0.1,0,0.1,0,0.1s0,0,0,0.1l0,0v0.2v0.1
			v0.1c0,0.1,0,0.1,0,0.2s0,0.1,0,0.2l0,0c0,0.1,0,0.2,0.1,0.3v0.1c0,0.1,0,0.2,0.1,0.3c1.4,5.5,18.7,8.4,26.8,6.3
			c8.1-2,21.3-15,25.7-19c0.1-0.1,0.2-0.2,0.4-0.4l0.1-0.1c0.1-0.1,0.2-0.2,0.2-0.3c0.1-0.1,0.1-0.1,0.1-0.2l0,0c0,0,0-0.1,0.1-0.1
			l0.1-0.1c0,0,0.1-0.1,0.1-0.2v-0.1c0,0,0,0,0.1-0.1l0.1-0.1l0.1-0.2c0-0.1,0.1-0.1,0.1-0.2c1.9-2.7,3-6.3,3.7-9.5l0,0
			c0.1-0.3,0.1-0.6,0.2-0.9c0,0,0,0,0-0.1c0.1-0.3,0.1-0.6,0.1-0.9l0,0c0-0.3,0.1-0.5,0.1-0.8c0-0.1,0-0.2,0-0.3
			c0-0.2,0-0.3,0.1-0.5c0-0.1,0-0.2,0-0.2v-0.1l0.1-0.6v0.7c0-0.2,0-0.5,0.1-0.7l0.3,0.2l0.1,0.1l0.2,0.1l0.2,0.1l0.2,0.1l0.2,0.1
			l0.2,0.1l0.2,0.1l0.2,0.1l0.2,0.1l0.3,0.1l0.2,0.1l0.3,0.1l0.2,0.1l0.3,0.1l0.2,0.1l0.3,0.1l0.3,0.1l0.3,0.1l0.3,0.1l0.3,0.1
			l0.3,0.1l0.3,0.1l0.3,0.1l0.3,0.1l0.3,0.1l0.3,0.1l0.3,0.1l0.4,0.1l0.3,0.1l0.4,0.1l0.3,0.1l0.4,0.1l0.3,0.1l0.4,0.1l0.3,0.1
			l0.4,0.1l0.3,0.1l0.4,0.1l0.3,0.1l0.4,0.1l0.3,0.1l0.4,0.1l0.3,0.1l0.4,0.1l0.3,0.1l0.4,0.1l0.3,0.1l0.4,0.1l0.3,0.1l0.4,0.1
			l0.4,0.1l0.4,0.1l0.4,0.1l0.4,0.1l0.4,0.1l0.4,0.1l0.4,0.1l0.4,0.1l0.4,0.1l0.4,0.1l0.4,0.1l0.4,0.1l0.4,0.1l0.4,0.1l0.4,0.1
			l0.3,0.1l0.4,0.1l0.3,0.1l0.4,0.1h0.3l0.4,0.1h0.3l0.4,0.1h0.3l0.5,0.1h0.2l0.5,0.1h0.2l0.5,0.1h0.1l0.6,0.1
			c4.9,0.7,9.2,1.3,11.5,1.4h0.3h0.4c5.8,0.3,12.4,0.6,19.3-0.6c6.9-1.2,6.6-4.6,11-7.5C226.3,450.1,226,446.8,223.4,446.3
			L223.4,446.3z M58.9,443.7c-0.1,0.2-0.3,0.5-0.4,0.7C58.6,444.1,58.7,443.9,58.9,443.7z M59.5,442.7L59.5,442.7
			c-0.2,0.3-0.3,0.6-0.5,0.9v-0.1C59.1,443.2,59.3,442.9,59.5,442.7z"/>
		<path class="st1" d="M58.3,444.6c-0.4,0.7-0.7,1.4-1.1,2.1c0-0.1,0.1-0.1,0.1-0.2C57.7,445.9,58,445.2,58.3,444.6z M56.4,448.8
			c-0.1,0.4-0.3,0.7-0.4,1.1l0,0C56.1,449.5,56.2,449.2,56.4,448.8L56.4,448.8z M55.5,451.2c0.1-0.4,0.3-0.9,0.4-1.3
			c-0.3,0.8-0.5,1.5-0.7,2.3l0.1-0.2C55.3,451.8,55.4,451.5,55.5,451.2L55.5,451.2z M56.8,447.8l0.1-0.3c0.1-0.3,0.2-0.5,0.3-0.8
			c-0.3,0.6-0.5,1.2-0.8,1.8C56.6,448.3,56.7,448,56.8,447.8z M54.9,453.5c-0.1,0.5-0.2,0.9-0.3,1.4c0-0.1,0-0.2,0-0.2
			C54.7,454.3,54.8,453.9,54.9,453.5z M164,456.6l-0.3-0.1L164,456.6z M63.5,437.4c-0.4,0.4-0.7,0.8-1.1,1.2
			C62.8,438.2,63.1,437.8,63.5,437.4L63.5,437.4L63.5,437.4z M147.4,469.2c0.1-0.1,0.1-0.1,0.2-0.2l0,0L147.4,469.2L147.4,469.2z
			 M60.7,440.8c-0.4,0.6-0.8,1.2-1.2,1.8C59.9,442,60.3,441.4,60.7,440.8L60.7,440.8z M94.2,482.2c0-0.1,0-0.2-0.1-0.3l0,0
			c0-0.1,0-0.1,0-0.2s0-0.1,0-0.2v-0.1v-0.1c0.1,0.5,0.2,0.9,0.3,1.2C94.2,482.5,94.2,482.4,94.2,482.2
			C94.2,482.3,94.2,482.3,94.2,482.2L94.2,482.2z M64.2,436.7L64.2,436.7L64.2,436.7z M165.5,457l-0.3-0.1L165.5,457L165.5,457z
			 M80.8,476.9l-0.4,0.1l-0.7,0.1l-0.3,0.1l-1,0.2c1.1-0.2,2.3-0.4,3.4-0.7l-0.4,0.1L80.8,476.9L80.8,476.9z M93.6,477.8L93.6,477.8
			v0.3V478C93.6,477.9,93.6,477.9,93.6,477.8L93.6,477.8z M93.8,480c0-0.1,0-0.2,0-0.3v-0.1c0-0.1,0-0.2,0-0.4V479
			c0-0.2,0-0.3,0-0.5v-0.1l0,0c0.1,0.7,0.1,1.3,0.2,1.9v-0.1C93.9,480.1,93.8,480,93.8,480z M92.3,474.1l-0.7,0.2l0,0
			c-1.5,0.4-3.1,0.9-4.6,1.2l-0.3,0.1l-0.5,0.1l-0.4,0.1l-0.5,0.1l-0.4,0.1l-0.5,0.1l-0.5,0.1l-0.5,0.1l-0.5,0.1l-0.4,0.1
			c3.6-0.8,7.1-1.7,10.6-2.7c-0.1-0.4-0.2-0.8-0.2-1.2C92.6,473.2,92.5,473.6,92.3,474.1L92.3,474.1z M93.5,475.8c0-0.3,0-0.6,0-0.9
			v-0.1c0,0.8,0.1,1.7,0.1,2.5l0.4-0.2C93.8,476.7,93.6,476.2,93.5,475.8L93.5,475.8z M54.3,456.2c-0.1,0.4-0.1,0.7-0.2,1.1
			c0-0.1,0-0.1,0-0.2C54.2,456.8,54.3,456.5,54.3,456.2z M94,481.1V481c0,0.1,0,0.2,0,0.3V481.1L94,481.1L94,481.1z M93.9,480.5v0.1
			V480.5L93.9,480.5z M53.8,460.3v-0.1c0,0.4-0.1,0.8-0.1,1.2v-0.1C53.7,461,53.8,460.6,53.8,460.3z M164.7,456.8l-0.3-0.1
			L164.7,456.8z M53.6,462.7c0-0.3,0-0.6,0-0.9c0,0.9-0.1,1.8-0.1,2.7c0-0.5,0-0.9,0-1.4C53.6,462.9,53.6,462.8,53.6,462.7z
			 M167.7,457.4l-0.3-0.1L167.7,457.4L167.7,457.4z M54.1,457.5c-0.1,0.4-0.1,0.8-0.2,1.2v-0.1C54,458.2,54.1,457.8,54.1,457.5z
			 M166.9,457.3l-0.3-0.1L166.9,457.3z M166.2,457.1l-0.3-0.1L166.2,457.1z M75.7,428.2c-3.3,1.7-6.3,3.8-9.1,6.2
			c1-0.9,2.1-1.7,3.2-2.5C71.7,430.5,73.6,429.3,75.7,428.2L75.7,428.2z M155.9,454.5l-0.2-0.1L155.9,454.5z M157.6,455l-0.3-0.1
			L157.6,455L157.6,455z M155,454.2l-0.2-0.1L155,454.2z M155.4,454.3l-0.2-0.1L155.4,454.3z M156.5,454.7l-0.2-0.1L156.5,454.7z
			 M157,454.8l-0.3-0.1L157,454.8z M54.4,455.8c0.1-0.3,0.1-0.6,0.2-0.9C54.5,455.2,54.4,455.5,54.4,455.8L54.4,455.8z M93.5,474.7
			c0-0.3,0-0.6,0-1C93.5,474.1,93.5,474.4,93.5,474.7z M149.1,466.7l-0.1,0.2L149.1,466.7z M153.3,453.5l-0.1-0.1L153.3,453.5z
			 M147.2,469.4l-0.1,0.1L147.2,469.4L147.2,469.4z M154.1,453.8l-0.2-0.1L154.1,453.8z M163.3,456.5l-0.3-0.1L163.3,456.5
			L163.3,456.5z M153.7,453.7l-0.2-0.1L153.7,453.7z M154.5,454l-0.2-0.1L154.5,454z M162,456.2l-0.3-0.1L162,456.2z M161.3,456
			l-0.3-0.1L161.3,456z M162.6,456.3l-0.3-0.1L162.6,456.3z M60.8,440.7c0.2-0.2,0.3-0.5,0.5-0.7C61.2,440.2,61,440.4,60.8,440.7z
			 M65.4,435.5c0.4-0.4,0.8-0.7,1.1-1C66.1,434.8,65.7,435.2,65.4,435.5z M158.7,455.4l-0.3-0.1L158.7,455.4L158.7,455.4z
			 M159.3,455.5l-0.3-0.1L159.3,455.5z M160,455.7l-0.3-0.1L160,455.7z M158.1,455.2l-0.3-0.1L158.1,455.2z M160.6,455.8l-0.3-0.1
			L160.6,455.8z M151.1,462.1c0-0.1,0.1-0.2,0.1-0.4c0,0.1-0.1,0.2-0.1,0.2V462.1z M177.6,459.1l-0.5-0.1L177.6,459.1z M176.8,459
			l-0.4-0.1L176.8,459z M176.1,458.9l-0.4-0.1L176.1,458.9z M178.3,459.3l-0.5-0.1L178.3,459.3z M179.7,459.5l-0.6-0.1L179.7,459.5z
			 M175.3,458.8l-0.4-0.1L175.3,458.8L175.3,458.8z M179,459.4l-0.5-0.1L179,459.4z M152.6,455.2c0-0.1,0-0.2,0-0.4v0.1V455.2z
			 M173,458.4l-0.4-0.1L173,458.4z M152.7,454.7L152.7,454.7L152.7,454.7L152.7,454.7z M191.3,460.9c-2.3-0.2-6.6-0.7-11.5-1.4
			C184.7,460.2,189,460.8,191.3,460.9z M174.5,458.7l-0.4-0.1L174.5,458.7L174.5,458.7z M152.7,454.7l0.1-0.6
			C152.7,454.3,152.7,454.5,152.7,454.7L152.7,454.7L152.7,454.7z M173.8,458.5l-0.4-0.1L173.8,458.5z M191.6,460.9h-0.3H191.6
			L191.6,460.9z M152.6,455.6c0-0.1,0-0.2,0-0.4c0,0.1,0,0.1,0,0.2C152.6,455.5,152.6,455.6,152.6,455.6z M170,457.8l-0.4-0.1
			L170,457.8L170,457.8z M148.6,467.7c0,0.1-0.1,0.1-0.1,0.2l-0.1,0.1c0.1-0.2,0.2-0.4,0.4-0.5L148.6,467.7L148.6,467.7z
			 M149.9,465.3c-0.1,0.1-0.1,0.3-0.2,0.4v0.1c-0.1,0.1-0.1,0.3-0.2,0.4c0,0.1-0.1,0.1-0.1,0.2l-0.1,0.2
			C149.5,466.1,149.7,465.7,149.9,465.3L149.9,465.3z M170.7,458l-0.4-0.1L170.7,458z M168.4,457.6l-0.4-0.1L168.4,457.6z
			 M151,462.5c0,0.1-0.1,0.2-0.1,0.3l-0.1,0.2c0,0.1-0.1,0.2-0.1,0.3l-0.1,0.2c0,0.1-0.1,0.2-0.1,0.3l-0.1,0.2c0,0,0,0,0,0.1l0,0
			c0.3-0.7,0.5-1.4,0.8-2.1v0.1C151,462.3,151,462.4,151,462.5z M152,458.9c0,0.1,0,0.2-0.1,0.3c0,0.1,0,0.2-0.1,0.3v0.1
			c0.1-0.3,0.1-0.6,0.2-0.9L152,458.9z M169.2,457.7l-0.4-0.1L169.2,457.7L169.2,457.7z M150.1,464.8c0-0.1,0.1-0.2,0.1-0.3
			L150.1,464.8L150.1,464.8L150.1,464.8z M147.8,468.8l-0.1,0.1c0.1-0.1,0.2-0.2,0.3-0.4v0.1C147.9,468.6,147.8,468.7,147.8,468.8
			L147.8,468.8z M152.1,458.4c0-0.1,0-0.2,0.1-0.3L152.1,458.4L152.1,458.4L152.1,458.4z M152.4,456.8c0,0.1,0,0.2,0,0.2
			c0,0.1,0,0.2-0.1,0.3c0-0.3,0.1-0.5,0.1-0.8l0,0C152.4,456.7,152.4,456.7,152.4,456.8L152.4,456.8z M152.4,456.5
			c0-0.2,0.1-0.3,0.1-0.5v0.3C152.4,456.4,152.4,456.5,152.4,456.5L152.4,456.5z M151.7,460L151.7,460l0.1-0.3v0.1L151.7,460
			L151.7,460z M172.3,458.3l-0.4-0.1L172.3,458.3z M152.5,455.9c0-0.1,0-0.1,0-0.2V455.9C152.5,455.8,152.5,455.8,152.5,455.9z
			 M152,458.5L152,458.5L152,458.5z M148.2,468.1c0,0.1-0.1,0.1-0.1,0.2l-0.1,0.1c0.1-0.2,0.2-0.3,0.4-0.5
			C148.3,468,148.3,468.1,148.2,468.1z M151.4,461.1l-0.1,0.2l0,0v0.1c0.1-0.3,0.2-0.6,0.3-0.9l-0.1,0.2L151.4,461.1L151.4,461.1z
			 M171.5,458.1l-0.4-0.1L171.5,458.1z M152.2,457.6c0,0.1,0,0.2-0.1,0.3c0,0.1,0,0.1,0,0.2C152.2,457.9,152.2,457.7,152.2,457.6
			L152.2,457.6z M155.2,454.3l-0.3-0.1L155.2,454.3L155.2,454.3z M155.7,454.4l-0.3-0.1L155.7,454.4z M165.9,457l-0.4-0.1L165.9,457
			L165.9,457z M191.6,460.9L191.6,460.9L191.6,460.9z M166.6,457.2l-0.4-0.1L166.6,457.2z M156.2,454.6l-0.3-0.1L156.2,454.6
			L156.2,454.6z M168.8,457.6l-0.4-0.1L168.8,457.6L168.8,457.6z M152.8,453.9v0.1V453.9z M172.6,458.3l-0.4-0.1L172.6,458.3z
			 M152.7,454.7v0.1C152.7,454.8,152.7,454.8,152.7,454.7z M168.1,457.5l-0.4-0.1L168.1,457.5z M167.3,457.3l-0.4-0.1L167.3,457.3z
			 M153.2,453.4l-0.3-0.2L153.2,453.4L153.2,453.4z M154.3,453.9l-0.2-0.1L154.3,453.9z M153.5,453.6l-0.2-0.1L153.5,453.6z
			 M153.9,453.8l-0.2-0.1L153.9,453.8z M156.7,454.8l-0.3-0.1L156.7,454.8z M170.4,457.9l-0.4-0.1L170.4,457.9z M162.3,456.3
			l-0.4-0.1L162.3,456.3z M174.9,458.7l-0.3-0.1L174.9,458.7z M176.4,459h-0.3H176.4z M175.6,458.8h-0.3H175.6z M161.6,456.1
			l-0.4-0.1L161.6,456.1z M163,456.4l-0.4-0.1L163,456.4L163,456.4z M163.7,456.6l-0.4-0.1L163.7,456.6z M173.4,458.5l-0.4-0.1
			L173.4,458.5z M164.4,456.7l-0.4-0.1L164.4,456.7z M171.9,458.2l-0.4-0.1L171.9,458.2L171.9,458.2z M171.1,458.1l-0.4-0.1
			L171.1,458.1z M174.1,458.6l-0.3-0.1L174.1,458.6z M177.1,459.1h-0.3H177.1z M159.1,455.4l-0.3-0.1L159.1,455.4z M158.5,455.3
			l-0.3-0.1L158.5,455.3z M165.1,456.9l-0.4-0.1L165.1,456.9L165.1,456.9z M157.9,455.1l-0.3-0.1L157.9,455.1z M157.3,454.9
			l-0.3-0.1L157.3,454.9L157.3,454.9z M159.7,455.6l-0.3-0.1L159.7,455.6z M177.8,459.2h-0.2H177.8L177.8,459.2z M169.6,457.8
			l-0.4-0.1L169.6,457.8z M179.2,459.4h-0.1H179.2z M160.3,455.8l-0.4-0.1L160.3,455.8z M161,455.9l-0.4-0.1L161,455.9L161,455.9z
			 M178.5,459.3h-0.2H178.5z M154.8,454.1l-0.2-0.1L154.8,454.1z M148.4,468L148.4,468L148.4,468z M152.2,457.5L152.2,457.5
			L152.2,457.5z M148.4,468L148.4,468L148.4,468z M152.1,458.5L152.1,458.5L152.1,458.5z"/>
		<path class="st1" d="M152.6,455v-0.1v-0.1l0,0C152.7,454.8,152.6,454.9,152.6,455L152.6,455z M152.4,456.5L152.4,456.5
			L152.4,456.5z M152.5,455.8L152.5,455.8c0-0.1,0-0.1,0-0.1c0-0.1,0-0.1,0-0.2C152.6,455.6,152.5,455.7,152.5,455.8L152.5,455.8z
			 M66.6,434.4L66.6,434.4L66.6,434.4z M81.8,476.7l0.6-0.1L81.8,476.7L81.8,476.7z M93,473.9l0.5-0.1L93,473.9z M53.7,461.7v-0.3
			C53.7,461.5,53.7,461.6,53.7,461.7z M93.8,480.2c0,0.1,0,0.2,0,0.2v0.1C93.8,480.4,93.8,480.3,93.8,480.2L93.8,480.2L93.8,480.2z
			 M93.6,477.3c0,0.1,0,0.2,0,0.4v0.1C93.6,477.6,93.6,477.4,93.6,477.3L93.6,477.3z M93.6,478.3L93.6,478.3c0,0,0-0.1,0-0.2
			C93.6,478.2,93.6,478.2,93.6,478.3z M53.9,458.7L53.9,458.7L53.9,458.7z M151.6,460.6l0.1-0.5c0,0,0,0,0-0.1L151.6,460.6
			L151.6,460.6z M55.2,452.4c0,0,0-0.1,0-0.2C55.2,452.3,55.2,452.3,55.2,452.4z M55.9,449.9L55.9,449.9
			C56,449.9,56,449.9,55.9,449.9z M57.2,446.7L57.2,446.7L57.2,446.7z M54.9,453.5v-0.1V453.5z M54.1,457.5v-0.2V457.5z M152,458.5
			L152,458.5v0.1C152,458.6,152,458.6,152,458.5z M152.5,456v-0.1V456L152.5,456L152.5,456z M152.1,458.1V458V458.1L152.1,458.1z
			 M152.6,455.3L152.6,455.3L152.6,455.3L152.6,455.3z M148.9,467.2c0.1-0.1,0.1-0.2,0.2-0.3L148.9,467.2L148.9,467.2z M93.9,480.7
			v0.1v0.1C93.9,480.9,93.9,480.8,93.9,480.7L93.9,480.7z M151.8,459.7L151.8,459.7C151.8,459.6,151.8,459.7,151.8,459.7
			L151.8,459.7L151.8,459.7z M58.3,444.6C58.3,444.6,58.4,444.5,58.3,444.6L58.3,444.6z M150,465.1l0.1-0.3L150,465.1L150,465.1z
			 M149.1,466.7L149.1,466.7c0-0.1,0.1-0.1,0.1-0.2C149.2,466.6,149.2,466.7,149.1,466.7L149.1,466.7L149.1,466.7z M94,481.2v0.1
			V481.2L94,481.2z M147.6,469L147.6,469L147.6,469L147.6,469z M148,468.5L148,468.5L148,468.5L148,468.5z M53.8,460v0.2V460z
			 M151.1,462.1L151.1,462.1L151.1,462.1L151.1,462.1L151.1,462.1z M152.3,457.4L152.3,457.4v-0.1
			C152.3,457.4,152.3,457.4,152.3,457.4L152.3,457.4z M151.2,461.7l0.1-0.2C151.3,461.6,151.3,461.6,151.2,461.7z M65.4,435.5
			L65.4,435.5L65.4,435.5z M59.5,442.6L59.5,442.6L59.5,442.6z M62.4,438.6L62.4,438.6L62.4,438.6L62.4,438.6z M61.5,439.8l-0.1,0.1
			L61.5,439.8z M63.6,437.4L63.6,437.4L63.6,437.4z M60.8,440.7l-0.1,0.1L60.8,440.7z M64.3,436.6L64.3,436.6L64.3,436.6z
			 M150.2,464.5l0.1-0.2L150.2,464.5L150.2,464.5z M58.9,443.7l0.1-0.1L58.9,443.7z"/>
		<path class="st1" d="M152.4,456.8c0-0.1,0-0.2,0-0.2c0,0.3-0.1,0.6-0.1,0.9v-0.1c0-0.1,0-0.2,0.1-0.3
			C152.3,456.9,152.4,456.9,152.4,456.8L152.4,456.8z M152.5,455.8c0,0.2-0.1,0.5-0.1,0.8c0-0.1,0-0.1,0-0.2v-0.3
			C152.5,456,152.5,455.9,152.5,455.8L152.5,455.8L152.5,455.8z M152.6,455.5c0-0.1,0-0.1,0-0.2l0,0c0-0.1,0-0.2,0-0.3
			C152.6,455.1,152.6,455.3,152.6,455.5L152.6,455.5z M152.7,454.7L152.7,454.7L152.7,454.7z M148.4,468L148.4,468
			c0.1-0.1,0.1-0.2,0.2-0.3l0.2-0.3c0-0.1,0.1-0.1,0.1-0.2l0.2-0.3l0.1-0.2c0-0.1,0.1-0.1,0.1-0.2l0.1-0.1c0-0.1,0.1-0.1,0.1-0.2
			c0.1-0.1,0.1-0.3,0.2-0.4v-0.1c0.1-0.1,0.1-0.3,0.2-0.4v-0.1c0,0,0-0.1,0.1-0.1c0,0,0.1-0.2,0.1-0.3c0,0,0-0.1,0.1-0.1l0.1-0.2
			l0.1-0.2l0,0v-0.1l0.1-0.2c0-0.1,0.1-0.2,0.1-0.3l0.1-0.2c0-0.1,0.1-0.2,0.1-0.3l0.1-0.2l0.1-0.3c0-0.1,0.1-0.2,0.1-0.2v-0.1v-0.1
			v-0.1c0-0.1,0.1-0.2,0.1-0.2c0-0.1,0-0.1,0.1-0.2v-0.1l0,0l0.1-0.2l0.1-0.4l0.1-0.2l0.1-0.5l0,0l0.1-0.2v-0.1V460v-0.1
			c0-0.1,0-0.2,0.1-0.3c0-0.1,0-0.2,0.1-0.3c0-0.1,0-0.2,0.1-0.3c0,0,0-0.1,0-0.2l0,0C151.4,461.7,150.2,465.3,148.4,468L148.4,468z
			 M152.2,457.6C152.2,457.6,152.2,457.5,152.2,457.6c-0.1,0.2-0.1,0.5-0.2,0.9l0,0c0-0.1,0-0.2,0.1-0.3v-0.1c0,0,0-0.1,0-0.2
			S152.2,457.7,152.2,457.6L152.2,457.6z"/>
		<path class="st2" d="M194.3,461c9.1,0.6,17.8,1,21.8-1.2s12.9-11.3,8.1-13.7s-4,1.6-9.1,5.9C209.6,456.8,202,460,194.3,461
			L194.3,461z M124.4,487.5c-5.9,2.8-11.9,2.4-19.8,1s-15.8-3.2-15.8-6.5c0-3.4,2.2-5.7,7.9-5c5.7,0.8,12.7,5.3,16,6.9
			C116.1,485.5,119.7,488.7,124.4,487.5L124.4,487.5z M83.3,476.4c-4,0.8-9.3,3.2-16.4,1.8c-7.1-1.4-17.6-4.4-19.4-8.3
			c-0.2-4.2,3.2-4.9,6.2-5.4s9.3,7,16.4,9.4C74.3,475.3,78.8,476.1,83.3,476.4L83.3,476.4z"/>
	</g>
	<g>
		<path class="st3" d="M153.8,423.8c1.1-0.1,2.2-0.2,3.2-0.4c0.6,0.1,1.3,0.1,1.9,0c0.2,0,0.4,0,0.6-0.1l0.5-0.1h0.1
			c0.5-0.1,0.9-0.2,1.4-0.3l0.4-0.1l0.3-0.1l0.4-0.1l0.3-0.1l0.4-0.1c0.2-0.1,0.5-0.1,0.7-0.2l0.9-0.2c3.2-0.9,6.9-2.2,10.2-3.6
			l0.6-0.2l0.3-0.1l0.2-0.1h0.1l0.2-0.1l0.2-0.1l0.1-0.1l0.3-0.1l0.3-0.1l0.3-0.1l0.2-0.1l0.3-0.1h0.1l0.2-0.1l0.3-0.1l0.2-0.1
			l0.3-0.1l0.2-0.1l0,0l0.4-0.2l0,0h0.1l0.3-0.1l0.2-0.1l0.3-0.1l0.2-0.1l0,0l0.3-0.1h0.1h0.1l0.3-0.1c0.1,0,0.1,0,0.2-0.1l0.3-0.1
			h0.1l0.3-0.1h0.1l0,0l0.3-0.1c2.2-1,3.6-1.6,3.6-1.6l0.5,2.4h0.1c0.9,0,1.8,0.2,2.7,0.4c0.9,0.2,1.8,0.5,2.6,0.9
			c1.7,0.7,3.3,1.5,4.9,2.4c3.2,1.8,6.2,3.9,8.9,6.4c1.4,1.2,2.6,2.5,3.8,4c1.2,1.4,2.1,3,2.7,4.8c0.6,1.8,0.8,3.6,0.6,5.5
			c0,0.9-0.1,1.8-0.1,2.7c0,0.9,0.2,1.8,0.7,2.5L214,446c0.6,0.8,1.4,1.4,2.3,1.9c-0.6,0.2-1.3,0.4-1.9,0.6l-12.3,3.6
			c6.2-4.1,7.7-9.6,9.4-15.6c-0.1-0.2-0.2-0.4-0.3-0.7c-0.3-0.7-0.7-1.4-1.2-2.1s-1-1.3-1.6-1.9c-1.2-1.3-2.4-2.5-3.7-3.6
			c-0.3-0.3-0.7-0.6-1-0.8c-0.3-0.3-0.7-0.6-1-0.8l-1-0.8c-0.4-0.3-0.7-0.5-1.1-0.8c-1.4-1-2.9-2-4.4-2.9c-0.4-0.2-0.8-0.4-1.1-0.7
			l-0.6-0.3l-0.6-0.3c-0.4-0.2-0.8-0.4-1.2-0.6s-0.8-0.4-1.2-0.6s-0.8-0.4-1.2-0.5c-0.3-0.1-0.6-0.3-1-0.4c-2.7-0.4-5.4-0.5-8.2-0.4
			l-2.3,0.5c-2.6,2.5-4.9,5.4-6.8,8.5c-0.5,0.8-1.6,2.4-1.6,2.4s1.7,2.5,2.1,3.1c3.6,5.6,7.9,10.1,12.8,14.7
			c4.8,4.6,10.4,9.3,16.9,8c-1.4,1-1.7,2.5-1.2,4c-2.4,0.8-4.9,1.3-7.4,1.6c1.7,0.1,3.4,0.2,5,0.3c-2.6,0-5.1-0.1-7.4-0.3h-0.4h-0.3
			c-2.3-0.2-6.6-0.7-11.5-1.4l-0.6-0.1h-0.1l-0.5-0.1h-0.2l-0.5-0.1h-0.2l-0.5-0.1h-0.3l-0.4-0.1h-0.3l-0.4-0.1h-0.3l-0.4-0.1
			l-0.3-0.1l-0.4-0.1l-0.3-0.1l-0.4-0.1l-0.4-0.1l-0.4-0.1l-0.4-0.1l-0.4-0.1l-0.4-0.1l-0.4-0.1l-0.4-0.1l-0.4-0.1l-0.4-0.1
			l-0.4-0.1l-0.4-0.1l-0.4-0.1l-0.4-0.1l-0.4-0.1l-0.4-0.1l-0.3-0.1l-0.4-0.1l-0.3-0.1l-0.4-0.1l-0.3-0.1l-0.4-0.1l-0.3-0.1
			l-0.4-0.1l-0.3-0.1l-0.4-0.1l-0.3-0.1l-0.4-0.1l-0.3-0.1l-0.4-0.1l-0.3-0.1l-0.4-0.1l-0.3-0.1l-0.4-0.1l0.4,0.7h-0.1l-0.3-0.1
			l-0.3-0.1l-0.4-0.1l-0.3-0.1l-0.3-0.1l-0.3-0.1l-0.3-0.1l-0.3-0.1l-0.3-0.1l-0.3-0.1l-0.3-0.1l-0.3-0.1l-0.3-0.1l-0.3-0.1
			l-0.3-0.1l-0.2-0.1l-0.3-0.1l-0.2-0.1l-0.3-0.1l-0.2-0.1l-0.3-0.1l-0.2-0.1l-0.2-0.1l-0.2-0.1l-0.2-0.1l-0.2-0.1l-0.2-0.1
			l-0.2-0.1l-0.2-0.1l-0.1-0.1l-0.3-0.2c0,0.2,0,0.4-0.1,0.7v0.1c0,0.2,0,0.4-0.1,0.6v0.1c0,0.1,0,0.2,0,0.2c0,0.2,0,0.3-0.1,0.5
			c0,0.1,0,0.2,0,0.3c0,0.3-0.1,0.5-0.1,0.8l0,0c0,0.3-0.1,0.6-0.1,0.9c0,0,0,0,0,0.1c-0.1,0.3-0.1,0.6-0.2,0.9l0,0
			c-0.7,3.2-1.8,6.8-3.7,9.5c0,0.1-0.1,0.1-0.1,0.2s-0.1,0.1-0.1,0.2l-0.1,0.1c0,0,0,0-0.1,0.1v0.1c0,0.1-0.1,0.1-0.1,0.2
			s-0.1,0.1-0.1,0.1l-0.1,0.1l0,0c0,0.1-0.1,0.1-0.1,0.2c0,0-0.2,0.2-0.2,0.3l-0.1,0.1c-0.1,0.1-0.2,0.2-0.4,0.4
			c-4.3,4-17.6,17-25.7,19c-4.3,1.1-11.1,0.8-16.8-0.6l0.4,0.1c7.9,1.4,13.9,1.8,19.8-1c-4.8,1.2-8.3-2-11.7-3.6
			c-3.4-1.6-10.3-6.1-16-6.9c-0.9-0.1-1.9-0.2-2.9-0.1c-0.1-0.4-0.3-0.7-0.4-1.1c0-0.3,0-0.6,0-0.9v-0.2c0-0.3,0-0.6,0-1l-0.5,0.1
			c-0.1-0.4-0.2-0.8-0.2-1.2c-0.1,0.5-0.3,0.9-0.4,1.4l-0.7,0.2l0,0c-1.4,0.4-3,0.8-4.6,1.3l-0.3,0.1l-0.5,0.1l-0.4,0.1l-0.5,0.1
			l-0.4,0.1l-0.5,0.1l-0.5,0.1l-0.5,0.1l-0.5,0.1l-0.4,0.1l-0.6,0.1l-0.3,0.1c0.6-0.2,1.2-0.3,1.8-0.4c-4.5-0.3-9-1.1-13.3-2.6
			c-7.1-2.4-13.5-9.9-16.4-9.4c0-0.4,0-0.9,0-1.3v-0.4c0-0.3,0-0.6,0-0.9v-0.4c0-0.3,0-0.6,0.1-0.9v-0.1v-0.2c0-0.4,0.1-0.8,0.1-1.3
			v-0.1v-0.1c0-0.4,0.1-0.7,0.1-1V457c0-0.1,0-0.1,0-0.2c0-0.3,0.1-0.6,0.1-0.9c0.1-0.4,0.2-0.9,0.3-1.3v-0.2
			c0.1-0.4,0.2-0.8,0.3-1.2v-0.1V453c0.1-0.3,0.2-0.6,0.2-0.9c0-0.1,0-0.1,0-0.2l0.1-0.2c0.1-0.4,0.2-0.7,0.3-1.1
			c0.1-0.3,0.2-0.7,0.3-1l0,0l0,0c0.1-0.4,0.3-0.7,0.4-1.1l0,0c0.1-0.3,0.3-0.7,0.4-1l0.1-0.3c0.1-0.3,0.2-0.5,0.3-0.8l0,0
			c0-0.1,0.1-0.1,0.1-0.2c0.3-0.7,0.6-1.3,1-1.9c0,0,0,0,0-0.1c0,0,0-0.1,0.1-0.1c0.1-0.2,0.3-0.5,0.4-0.7l0.1-0.1
			c0.2-0.3,0.3-0.6,0.5-0.9l0,0c0.4-0.6,0.8-1.2,1.2-1.8l0.1-0.1c0.2-0.2,0.3-0.5,0.5-0.7l0.1-0.1c0.3-0.4,0.6-0.8,1-1.2l0,0
			c0.3-0.4,0.7-0.8,1-1.1v-0.1l0,0c0.2-0.2,0.4-0.5,0.6-0.7l0,0c0.4-0.4,0.7-0.7,1.1-1.1l0,0c0.4-0.4,0.8-0.7,1.1-1H66
			c1-0.9,2.1-1.8,3.2-2.5c1.9-1.4,3.9-2.6,5.9-3.7c0.7-0.4,1.3-0.7,2-1c0.3-0.2,0.7-0.3,1-0.5l0,0c0.3-0.1,0.7-0.3,1-0.4l0,0
			c0.3-0.1,0.6-0.3,0.9-0.4h0.1c0.3-0.1,0.6-0.3,0.9-0.4h0.1l0.8-0.3l0.2-0.1l0.9-0.3h0.1c0.3-0.1,0.5-0.2,0.8-0.3l0.2-0.1l0.8-0.3
			L85,424h0.1c0.3-1,0.7-2,1-3l2.1-5.8l0.5-1.5c0.4,0.4,0.9,0.7,1.3,1c3.2,2.2,6.4,3.2,10.4,3.8c3.7,0.4,7.4,0.7,11.1,0.7h0.5
			c0.4,0.5,0.8,0.9,1.3,1.2c1.9,1.2,5.3,2,9.7,2.5c0.2,0.6,0.4,1,0.3,1.1c0,0,4-0.5,10.1,2.2c6.1,2.8,7.9,10.2,7.9,10.2
			c-5.9-8.5-18.8-8.1-23.6-6.3c-4.8,1.8-7,7.2-7,12.6c0,6,5,11.7,9.2,20.2s2.3,8.8,5.9,14c2.1,3,6.1,3.6,11.5-1.4
			c4.5-4.1,8.8-7.3,10.8-9.8c1.6-7.6,4-21.5-1.6-29.9C149.8,432.2,152,432,153.8,423.8L153.8,423.8z"/>
		<path class="st3" d="M155.2,454.3l-0.3-0.1L155.2,454.3L155.2,454.3z M155.7,454.4l-0.3-0.1L155.7,454.4z M165.9,457l-0.4-0.1
			L165.9,457L165.9,457z M191.6,460.9L191.6,460.9L191.6,460.9z M166.6,457.2l-0.4-0.1L166.6,457.2z M156.2,454.6l-0.3-0.1
			L156.2,454.6L156.2,454.6z M168.8,457.6l-0.4-0.1L168.8,457.6L168.8,457.6z M152.8,453.9v0.1V453.9z M172.6,458.3l-0.4-0.1
			L172.6,458.3z M152.7,454.7v0.1C152.7,454.8,152.7,454.8,152.7,454.7z M168.1,457.5l-0.4-0.1L168.1,457.5z M167.3,457.3l-0.4-0.1
			L167.3,457.3z M153.2,453.4l-0.3-0.2L153.2,453.4L153.2,453.4z M154.3,453.9l-0.2-0.1L154.3,453.9z M153.5,453.6l-0.2-0.1
			L153.5,453.6z M153.9,453.8l-0.2-0.1L153.9,453.8z M156.7,454.8l-0.3-0.1L156.7,454.8z M170.4,457.9l-0.4-0.1L170.4,457.9z
			 M162.3,456.3l-0.4-0.1L162.3,456.3z M174.9,458.7l-0.3-0.1L174.9,458.7z M176.4,459h-0.3H176.4z M175.6,458.8h-0.3H175.6z
			 M161.6,456.1l-0.4-0.1L161.6,456.1z M163,456.4l-0.4-0.1L163,456.4L163,456.4z M163.7,456.6l-0.4-0.1L163.7,456.6z M173.4,458.5
			l-0.4-0.1L173.4,458.5z M164.4,456.7l-0.4-0.1L164.4,456.7z M171.9,458.2l-0.4-0.1L171.9,458.2L171.9,458.2z M171.1,458.1
			l-0.4-0.1L171.1,458.1z M174.1,458.6l-0.3-0.1L174.1,458.6z M177.1,459.1h-0.3H177.1z M159.1,455.4l-0.3-0.1L159.1,455.4z
			 M158.5,455.3l-0.3-0.1L158.5,455.3z M165.1,456.9l-0.4-0.1L165.1,456.9L165.1,456.9z M157.9,455.1l-0.3-0.1L157.9,455.1z
			 M157.3,454.9l-0.3-0.1L157.3,454.9L157.3,454.9z M159.7,455.6l-0.3-0.1L159.7,455.6z M177.8,459.2h-0.2H177.8L177.8,459.2z
			 M169.6,457.8l-0.4-0.1L169.6,457.8z M179.2,459.4h-0.1H179.2z M160.3,455.8l-0.4-0.1L160.3,455.8z M161,455.9l-0.4-0.1L161,455.9
			L161,455.9z M178.5,459.3h-0.2H178.5z M154.8,454.1l-0.2-0.1L154.8,454.1z M148.4,468L148.4,468L148.4,468z M152.2,457.5
			L152.2,457.5L152.2,457.5z M148.4,468L148.4,468L148.4,468z M152.1,458.5L152.1,458.5L152.1,458.5z"/>
		<path class="st3" d="M152.6,455v-0.1v-0.1l0,0C152.7,454.8,152.6,454.9,152.6,455L152.6,455z M152.4,456.5L152.4,456.5
			L152.4,456.5z M152.5,455.8L152.5,455.8c0-0.1,0-0.1,0-0.1c0-0.1,0-0.1,0-0.2C152.6,455.6,152.5,455.7,152.5,455.8L152.5,455.8z
			 M66.6,434.4L66.6,434.4L66.6,434.4z M81.8,476.7l0.6-0.1L81.8,476.7L81.8,476.7z M93,473.9l0.5-0.1L93,473.9z M53.7,461.7v-0.3
			C53.7,461.5,53.7,461.6,53.7,461.7z M93.8,480.2c0,0.1,0,0.2,0,0.2v0.1C93.8,480.4,93.8,480.3,93.8,480.2L93.8,480.2L93.8,480.2z
			 M93.6,477.3c0,0.1,0,0.2,0,0.4v0.1C93.6,477.6,93.6,477.4,93.6,477.3L93.6,477.3z M93.6,478.3L93.6,478.3c0,0,0-0.1,0-0.2
			C93.6,478.2,93.6,478.2,93.6,478.3z M53.9,458.7L53.9,458.7L53.9,458.7z M151.6,460.6l0.1-0.5c0,0,0,0,0-0.1L151.6,460.6
			L151.6,460.6z M55.2,452.4c0,0,0-0.1,0-0.2C55.2,452.3,55.2,452.3,55.2,452.4z M55.9,449.9L55.9,449.9
			C56,449.9,56,449.9,55.9,449.9z M57.2,446.7L57.2,446.7L57.2,446.7z M54.9,453.5v-0.1V453.5z M54.1,457.5v-0.2V457.5z M152,458.5
			L152,458.5v0.1C152,458.6,152,458.6,152,458.5z M152.5,456v-0.1V456L152.5,456L152.5,456z M152.1,458.1V458V458.1L152.1,458.1z
			 M152.6,455.3L152.6,455.3L152.6,455.3L152.6,455.3z M148.9,467.2c0.1-0.1,0.1-0.2,0.2-0.3L148.9,467.2L148.9,467.2z M93.9,480.7
			v0.1v0.1C93.9,480.9,93.9,480.8,93.9,480.7L93.9,480.7z M151.8,459.7L151.8,459.7C151.8,459.6,151.8,459.7,151.8,459.7
			L151.8,459.7L151.8,459.7z M58.3,444.6C58.3,444.6,58.4,444.5,58.3,444.6L58.3,444.6z M150,465.1l0.1-0.3L150,465.1L150,465.1z
			 M149.1,466.7L149.1,466.7c0-0.1,0.1-0.1,0.1-0.2C149.2,466.6,149.2,466.7,149.1,466.7L149.1,466.7L149.1,466.7z M147.2,469.4
			L147.2,469.4L147.2,469.4z M94,481.2v0.1V481.2L94,481.2z M147.6,469L147.6,469L147.6,469L147.6,469z M148,468.5L148,468.5
			L148,468.5L148,468.5z M53.8,460v0.2V460z M151.1,462.1L151.1,462.1L151.1,462.1L151.1,462.1L151.1,462.1z M152.3,457.4
			L152.3,457.4v-0.1C152.3,457.4,152.3,457.4,152.3,457.4L152.3,457.4z M151.2,461.7l0.1-0.2C151.3,461.6,151.3,461.6,151.2,461.7z
			 M65.4,435.5L65.4,435.5L65.4,435.5z M59.5,442.6L59.5,442.6L59.5,442.6z M62.4,438.6L62.4,438.6L62.4,438.6L62.4,438.6z
			 M61.5,439.8l-0.1,0.1L61.5,439.8z M63.6,437.4L63.6,437.4L63.6,437.4z M60.8,440.7l-0.1,0.1L60.8,440.7z M64.3,436.6L64.3,436.6
			L64.3,436.6z M150.2,464.5l0.1-0.2L150.2,464.5L150.2,464.5z M58.9,443.7l0.1-0.1L58.9,443.7z"/>
		<path class="st3" d="M152.4,456.8c0-0.1,0-0.2,0-0.2c0,0.3-0.1,0.6-0.1,0.9v-0.1c0-0.1,0-0.2,0.1-0.3
			C152.3,456.9,152.4,456.9,152.4,456.8L152.4,456.8z M152.5,455.8c0,0.2-0.1,0.5-0.1,0.8c0-0.1,0-0.1,0-0.2v-0.3
			C152.5,456,152.5,455.9,152.5,455.8L152.5,455.8L152.5,455.8z M152.6,455.5c0-0.1,0-0.1,0-0.2l0,0c0-0.1,0-0.2,0-0.3
			C152.6,455.1,152.6,455.3,152.6,455.5L152.6,455.5z M152.7,454.7L152.7,454.7L152.7,454.7z M148.4,468L148.4,468
			c0.1-0.1,0.1-0.2,0.2-0.3l0.2-0.3c0-0.1,0.1-0.1,0.1-0.2l0.2-0.3l0.1-0.2c0-0.1,0.1-0.1,0.1-0.2l0.1-0.1c0-0.1,0.1-0.1,0.1-0.2
			c0.1-0.1,0.1-0.3,0.2-0.4v-0.1c0.1-0.1,0.1-0.3,0.2-0.4v-0.1c0,0,0-0.1,0.1-0.1c0,0,0.1-0.2,0.1-0.3c0,0,0-0.1,0.1-0.1l0.1-0.2
			l0.1-0.2l0,0v-0.1l0.1-0.2c0-0.1,0.1-0.2,0.1-0.3l0.1-0.2c0-0.1,0.1-0.2,0.1-0.3l0.1-0.2l0.1-0.3c0-0.1,0.1-0.2,0.1-0.2v-0.1v-0.1
			v-0.1c0-0.1,0.1-0.2,0.1-0.2c0-0.1,0-0.1,0.1-0.2v-0.1l0,0l0.1-0.2l0.1-0.4l0.1-0.2l0.1-0.5l0,0l0.1-0.2v-0.1V460v-0.1
			c0-0.1,0-0.2,0.1-0.3c0-0.1,0-0.2,0.1-0.3c0-0.1,0-0.2,0.1-0.3c0,0,0-0.1,0-0.2l0,0C151.4,461.7,150.2,465.3,148.4,468L148.4,468z
			 M152.2,457.6C152.2,457.6,152.2,457.5,152.2,457.6c-0.1,0.2-0.1,0.5-0.2,0.9l0,0c0-0.1,0-0.2,0.1-0.3v-0.1c0,0,0-0.1,0-0.2
			S152.2,457.7,152.2,457.6L152.2,457.6z M86.8,420.8l2.1-5.8l-3.2,8.8h0.1C86.1,422.8,86.4,421.8,86.8,420.8z"/>
		<path class="st4" d="M153.4,447.2c0.2-2,0.4-4,0.7-6c0.2-1,0.3-2,0.5-2.9c0.2-1,0.4-1.9,0.7-2.9c0.6-1.9,1.2-3.8,1.8-5.7
			c0.6-1.9,1.2-3.9,1.7-5.9l0.1-0.4c-0.6,0.1-1.3,0-1.9,0c-0.4,1.9-0.9,3.9-1.4,5.8s-1.1,3.9-1.6,5.9c-0.2,1-0.4,2-0.6,3
			c-0.2,1-0.3,2-0.4,3c-0.2,2-0.3,4-0.4,6.1c0,1,0,2,0,3s0,2,0,3h0.1h0.1C153.2,451.2,153.2,449.2,153.4,447.2L153.4,447.2z
			 M108.7,431.7c-0.3,0.2-0.7,0.5-1,0.8c-1.4,1.1-2.7,2.3-4,3.6c-0.6,0.6-1.2,1.3-1.8,2c-0.6,0.7-1.1,1.4-1.5,2.2
			c-0.9,1.5-1.7,3.1-2.4,4.8c-1.3,3.3-2.2,6.8-2.9,10.3c-1.4,7-1.8,14.1-1.2,21.2h0.2c0.2-7,1.1-14,2.8-20.8
			c0.2-0.8,0.4-1.7,0.7-2.5c0.2-0.8,0.5-1.7,0.7-2.5c0.5-1.6,1.1-3.2,1.8-4.8c0.6-1.5,1.4-3,2.3-4.4c0.4-0.7,0.9-1.3,1.4-2
			c0.3-0.3,0.5-0.6,0.8-0.9c0.1-0.1,0.3-0.3,0.4-0.4l0.5-0.5c1.2-1.2,2.4-2.4,3.7-3.4c0.4-0.4,0.9-0.7,1.4-1l0.2,0.1l0.1-0.3
			l0.3-0.2c0.2-0.1,0.3-0.2,0.5-0.3c0.2-0.1,0.3-0.2,0.5-0.3c0.3-0.2,0.7-0.4,1.1-0.6c1.5-0.8,3-1.4,4.6-1.9
			c0.4-0.1,0.8-0.2,1.2-0.3c0.4-0.1,0.8-0.2,1.2-0.3c0.8-0.2,1.6-0.4,2.5-0.5c1.7-0.3,3.4-0.4,5.1-0.5c1.6-0.1,3.3,0.1,4.9,0.5
			s3.1,1.2,4.5,2.1c0.7,0.5,1.4,1,2,1.6c0.7,0.6,1.3,1.2,1.9,1.9l0.2-0.1c-1-1.5-2.2-2.8-3.5-4c-1.4-1.2-2.9-2.1-4.6-2.7
			c-1.7-0.6-3.5-0.9-5.3-1s-3.6,0-5.3,0.2c-1.8,0.2-3.5,0.5-5.2,1c-2,0.5-3.9,1.3-5.7,2.2c0.8-3.2,1.6-6.5,2.4-9.7
			c-0.5-0.3-1-0.7-1.3-1.2h-0.5c-0.2,0.8-0.4,1.7-0.7,2.5C110.6,425,109.7,428.3,108.7,431.7L108.7,431.7z M53.6,462.7
			c0-0.3,0-0.6,0-0.9v-0.4c0-0.3,0-0.6,0.1-0.9v-0.1v-0.2c0-0.4,0.1-0.8,0.1-1.3v-0.1v-0.1c0-0.4,0.1-0.7,0.1-1v-0.2
			c0-0.1,0-0.1,0-0.2c0-0.3,0.1-0.6,0.1-0.9c0.1-0.4,0.2-0.9,0.3-1.3v-0.2c0.1-0.4,0.2-0.8,0.3-1.2v-0.1v-0.1
			c0.1-0.3,0.2-0.6,0.2-0.9c0,0,0-0.1,0-0.2c0,0,0-0.1,0.1-0.2c0.1-0.4,0.2-0.7,0.3-1.1c0.1-0.3,0.2-0.7,0.3-1V450l0,0
			c0.1-0.4,0.3-0.7,0.4-1.1l0,0c0.1-0.3,0.3-0.7,0.4-1l0.1-0.3c0.1-0.3,0.2-0.5,0.3-0.8l0,0c0-0.1,0.1-0.1,0.1-0.2
			c0.3-0.7,0.6-1.3,1-1.9c0,0,0,0,0-0.1s0-0.1,0.1-0.1c0.1-0.2,0.3-0.5,0.4-0.7l0.1-0.1c0.2-0.3,0.3-0.6,0.5-0.9l0,0
			c0.4-0.6,0.8-1.2,1.2-1.8l0.1-0.1c0.2-0.2,0.3-0.5,0.5-0.7l0.1-0.1c0.3-0.4,0.6-0.8,1-1.2l0,0c0.3-0.4,0.7-0.8,1-1.1l0,0l0,0
			c0.2-0.2,0.4-0.5,0.6-0.7l0.1-0.1c0.4-0.4,0.7-0.7,1.1-1.1l0,0c0.4-0.4,0.8-0.7,1.1-1h0.1c1-0.9,2.1-1.7,3.2-2.5
			c1.9-1.4,3.9-2.6,5.9-3.7c0.7-0.4,1.3-0.7,2-1c0.3-0.2,0.7-0.3,1-0.5l0,0c0.3-0.1,0.7-0.3,1-0.4l0,0c0.3-0.1,0.6-0.3,0.9-0.4h0.1
			c0.3-0.1,0.6-0.3,0.9-0.4h0.1l0.8-0.3l0.2-0.1l0.9-0.3h0.1c0.3-0.1,0.5-0.2,0.8-0.3l0.2-0.1l0.8-0.3l0.1-0.2h-0.1l0,0
			c-4.4,1.4-8.6,3.3-12.6,5.7c-4,2.4-7.6,5.4-10.6,9s-5.3,7.7-6.7,12.2c-0.7,2.2-1.2,4.5-1.6,6.8c-0.3,2.3-0.4,4.6-0.4,7h0.1
			c0-0.5,0-0.9,0-1.4L53.6,462.7z"/>
		<path class="st4" d="M54.3,461c0.1-0.6,0.2-1.1,0.3-1.7s0.2-1.1,0.4-1.7c0.5-2.2,1.2-4.3,2.1-6.4c0.8-2.1,1.8-4.1,3-5.9
			c0.6-0.9,1.2-1.8,1.8-2.7c0.7-0.9,1.3-1.7,2.1-2.5c2.9-3.3,6.3-6.1,10.1-8.4c3.8-2.4,7.8-4.3,12-6c1.2-0.3,2.5-0.5,3.7-0.5
			c1.4-0.1,2.7,0,4.1,0.1s2.7,0.4,4,0.8c0.7,0.2,1.3,0.4,1.9,0.7c0.2,0.1,0.3,0.1,0.5,0.2l0.5,0.3c0.1,0.1,0.3,0.2,0.4,0.3l0.4,0.3
			l0.2-0.2c-1-1-2.2-1.8-3.6-2.4c-1.3-0.6-2.7-1-4.1-1.3s-2.8-0.5-4.3-0.5c-0.7,0-1.4,0-2.1,0c1-3,2-6,3-9c-0.4-0.3-0.9-0.6-1.3-1
			l-0.5,1.5l-2.1,5.8c-0.3,1-0.7,2-1,3h-0.1l-0.1,0.2l-0.8,0.3l-0.2,0.1c-0.3,0.1-0.5,0.2-0.8,0.3h-0.1l-0.9,0.3l-0.2,0.1l-0.8,0.3
			h-0.1c-0.3,0.1-0.6,0.2-0.9,0.4h-0.1c-0.3,0.1-0.6,0.3-0.9,0.4l0,0c-0.3,0.1-0.7,0.3-1,0.4l0,0c-0.3,0.1-0.7,0.3-1,0.5
			c-0.7,0.3-1.3,0.7-2,1c-2.1,1.1-4,2.3-5.9,3.7c-1.1,0.8-2.2,1.6-3.2,2.5h-0.1c-0.4,0.3-0.8,0.7-1.1,1l0,0
			c-0.4,0.4-0.7,0.7-1.1,1.1l0,0c-0.2,0.2-0.4,0.5-0.6,0.7l0,0l0,0c-0.3,0.4-0.7,0.8-1,1.1l0,0c-0.3,0.4-0.7,0.8-1,1.2l-0.1,0.1
			c-0.2,0.2-0.4,0.5-0.5,0.7l-0.1,0.1c-0.4,0.6-0.8,1.2-1.2,1.7v0.1l0,0c-0.2,0.3-0.4,0.6-0.5,0.9l-0.1,0.1
			c-0.1,0.2-0.3,0.5-0.4,0.7c0,0,0,0.1-0.1,0.1c0,0,0,0,0,0.1c-0.4,0.7-0.7,1.4-1.1,2.1l0,0c-0.1,0.3-0.2,0.5-0.3,0.8l-0.1,0.3
			c-0.1,0.3-0.3,0.7-0.4,1l0,0c-0.1,0.3-0.3,0.7-0.4,1.1l0,0l0,0c-0.1,0.4-0.3,0.9-0.4,1.3c-0.1,0.3-0.2,0.5-0.2,0.8
			c0,0.1,0,0.1-0.1,0.2c0,0.1,0,0.1,0,0.2c-0.1,0.3-0.2,0.7-0.3,1v0.1c-0.1,0.4-0.2,0.8-0.3,1.2c0,0.1,0,0.2,0,0.2
			c-0.1,0.3-0.1,0.6-0.2,0.9c0,0.1,0,0.3-0.1,0.4c0,0.3-0.1,0.6-0.1,0.9c0,0.1,0,0.1,0,0.2v0.2c0,0.3-0.1,0.7-0.1,1v0.1v0.1
			c0,0.4-0.1,0.8-0.1,1.3v0.2v0.1c0,0.3,0,0.6-0.1,0.9v0.4c0,0.3,0,0.6,0,0.9v0.4c0,0.4,0,0.9,0,1.4h0.1
			C53.9,463.3,54.1,462.1,54.3,461L54.3,461z M129.8,256.4l0.4-0.5L129.8,256.4z"/>
	</g>
	<path class="st1" d="M266.8,276c-10.5-4.3-15.4-8.1-19.9-10.3c-0.2,2.1-0.4,4.2-0.8,6.2c0,0.1,0,0.2-0.1,0.3l-0.1,0.7
		c-0.1,0.3-0.1,0.7-0.2,1c-0.1,0.3-0.1,0.6-0.2,0.8v0.1c-0.2,0.7-0.4,1.5-0.6,2.2c0,0.1-0.1,0.2-0.1,0.3c-0.2,0.8-0.5,1.6-0.8,2.3
		c0,0.1-0.1,0.2-0.1,0.3c-0.1,0.4-0.3,0.7-0.4,1.1c0,0.1,0,0.1-0.1,0.2c0,0.1-0.1,0.1-0.1,0.2c-0.1,0.3-0.2,0.6-0.4,0.8l-0.1,0.3
		c-0.1,0.2-0.2,0.4-0.3,0.6l-0.1,0.1l-0.2,0.3l-0.2,0.4c-0.1,0.2-0.2,0.3-0.3,0.5l-0.1,0.2c-0.1,0.2-0.2,0.4-0.3,0.6v0.1l-0.2,0.3
		l-0.1,0.1c-0.1,0.2-0.2,0.3-0.3,0.5l-0.2,0.2l-0.2,0.4l-0.1,0.2c-0.1,0.1-0.2,0.3-0.3,0.4l0,0c-0.2,0.2-0.4,0.5-0.5,0.7l-0.1,0.1
		c-0.2,0.2-0.4,0.4-0.5,0.6c-0.6,0.6-1.2,1.2-1.9,1.7c-5.2,3.7-15-2.9-37.8-19.6c-20.8-15.3-34.4-35.4-42.1-39.4
		c-1.6-2.4-0.2-3.9,1.6-5h-0.1c8.8-2.2,17.4-5.3,25.6-9.1c-14.8,4.3-22.3,1.4-29.2,1.8c-11.6,0.6-21.7,9.2-33.5,9.2
		c-38,0-67.7-17.5-71-32.4c-3.2-14.5,4.2-21.7,3.9-25.8c-0.6-6.5-6.8-10.7-9.8-33.3s11-40.4,33.5-47.8c22.6-7.4,45.7,12.2,69.5,11.9
		c23.8-0.3,43.6-24.3,50.8-24.7c5.3-0.3,17.8,2.1,21.4,20.8c3.6,18.7-0.3,43.4,0.3,54.7c0,0.5,0.2,1,0.6,1.3c1.4,3.5,6.8,7.7,8,17.7
		c0.4,3.3-0.5,7.4-2.7,11.9c2.3-4.6,3.2-8.9,2.8-12.2c-1.3-11.3-8-15.2-8.3-19s5.6-24.7,5-50.5s-13.1-38.3-27.3-50.8
		c-14.3-12.5-41-25.3-82.2-24.7c-41.3,0.6-88.8,35.3-97.1,51.4c-11,21.4-15.4,37.4-5.6,76.4c7.5,29.8,28.5,63,73,74.6
		c13.7,3.6,30.2,4.2,48.4,2.7c1.1-0.1,2.1-0.2,3.2-0.3c1.1,1-1,2.9-2.9,4.7c-5.6,3.6-12.9,11.1-22.5,18.4
		c-11.7,8.9-58.8,34.9-70.6,52.5C30,323.4,42.1,339,52.5,349.7c6.2,6.4,14.5,11.9,21.2,15.9l-0.5,0.2l-0.1,0.1l-0.4,0.2l-0.2,0.1
		l-0.4,0.2l-0.2,0.1l-0.4,0.2l-0.2,0.1l-0.4,0.2l-0.3,0.1l-0.4,0.2l-0.3,0.1l-0.4,0.2l-0.3,0.1l-0.4,0.2l-0.3,0.1l-0.4,0.2l-0.3,0.2
		l-0.5,0.2l-0.3,0.2l-0.5,0.3l-0.3,0.2l-0.5,0.3l-0.3,0.2L65,370l-0.2,0.1l-0.6,0.4l-0.2,0.1c-0.3,0.2-0.5,0.3-0.8,0.5l-0.8,0.5
		c-3.6,2.4-6.8,5.1-7.4,7.8c-1.7,6.9,1.7,11.5,5.8,8.4c7.3,11.9,18.7,19.1,30.3,21.3c0,0.1,0,0.1-0.1,0.2l-0.1,0.3
		c0,0.1-0.1,0.2-0.1,0.2l-0.1,0.3l0,0c0,0.1-0.1,0.1-0.1,0.2s-0.1,0.2-0.1,0.3c0,0.1,0,0.1-0.1,0.2l0,0c0,0.1-0.1,0.2-0.1,0.2v0.1
		c0,0,0,0,0,0.1s-0.1,0.2-0.1,0.4v0.1c0,0.1-0.1,0.2-0.1,0.2l0,0v0.1c0,0.1-0.1,0.2-0.1,0.3c0,0,0,0,0,0.1l-0.1,0.2v0.1l-0.1,0.3
		l0,0c0,0.1,0,0.1-0.1,0.2l0,0l0,0l-0.1,0.2l-0.3,0.8c3.6,2.9,7.2,4.2,11.8,4.8c3.7,0.4,7.4,0.7,11.1,0.7h0.5
		c0.4,0.5,0.8,0.9,1.3,1.2c1.9,1.2,5.3,2,9.7,2.5c3.4,0.4,7.5,0.7,11.8,1c8.6,0.5,14.4,0.3,18.3,0c1.1-0.1,2.2-0.2,3.2-0.4
		c0.6,0.1,1.3,0.1,1.9,0c1.7-0.1,3.8-0.6,6.1-1.2c3.2-0.9,6.9-2.2,10.2-3.6c3.9-1.6,7.8-3.2,11.7-5c0,0,8.6-53.1,2.9-92
		c-0.1-0.6-0.2-1.2-0.3-1.9c-0.1-0.6-0.2-1.2-0.3-1.9c0-0.2-0.1-0.5-0.1-0.7c-0.1-0.4-0.1-0.8-0.2-1.2l-0.1-0.7
		c-0.1-0.4-0.1-0.8-0.2-1.2l-0.1-0.7l-0.2-1.2c0-0.2-0.1-0.4-0.1-0.6l-0.3-1.4l-0.1-0.5c-0.1-0.6-0.2-1.1-0.3-1.7
		c-0.4-2-0.8-3.9-1.3-5.9v-0.2c-0.1-0.6-0.3-1.3-0.5-1.9c-0.1-0.5-0.3-1.1-0.4-1.6l-0.1-0.2c-0.1-0.6-0.3-1.1-0.4-1.7v-0.1
		c-0.5-1.8-0.9-3.6-1.4-5.4v-0.1l-0.4-0.9l0.4,0.9c-0.2-0.8-0.4-1.6-0.7-2.4c0.1,0.2,0.3,0.4,0.4,0.5l0.2,0.3
		c0.1,0.2,0.3,0.4,0.4,0.5c0.1,0.1,0.1,0.2,0.2,0.3c0.1,0.2,0.3,0.4,0.4,0.5l0.2,0.3c0.2,0.2,0.3,0.4,0.5,0.6l0.2,0.2
		c0.3,0.3,0.6,0.7,0.8,1l0,0l0.8,0.9l0.1,0.1l0.1,0.1l0.2,0.2l0.2,0.2l0.2,0.2c0.1,0.1,0.1,0.1,0.2,0.2l0.1,0.1l0.2,0.2l0.2,0.3
		c0.1,0.1,0.1,0.1,0.2,0.2l0,0c0.1,0.1,0.2,0.2,0.2,0.3l0.3,0.4l0.1,0.1c0.9,1.1,1.9,2.1,2.8,3.2l0.1,0.1c0.1,0.1,0.1,0.1,0.2,0.2
		l0.5,0.6l0.1,0.1l0.1,0.1c0.2,0.2,0.4,0.4,0.5,0.6l0.1,0.1l0.1,0.1l0,0c0.5,0.5,1,1,1.5,1.6l0.1,0.1c0.5,0.5,1,1.1,1.6,1.6
		c12.4,12.2,28.4,23.5,44,23.4c25.9-0.3,43.8-29.8,50.1-42.4C289.3,285.3,280.5,281.7,266.8,276L266.8,276z M64.6,371
		c-0.2,0.1-0.5,0.1-0.7,0.2C64.1,371.1,64.4,371,64.6,371z M63.5,371.3c-0.2,0.1-0.4,0.1-0.6,0.2C63.1,371.4,63.3,371.3,63.5,371.3
		L63.5,371.3L63.5,371.3z M64.7,370.9c8.4-2.1,13.6,0.9,17.6,3.6C78.3,371.8,73.1,368.8,64.7,370.9L64.7,370.9L64.7,370.9z
		 M83.8,375.5c0.3,0.2,0.6,0.4,0.9,0.6C84.4,375.9,84.1,375.7,83.8,375.5z M83.1,375.1l0.6,0.4L83.1,375.1z M130.1,257.5
		L130.1,257.5c-0.1,0.8-0.2,1.5-0.3,2.2c0,0.1,0,0.2,0,0.2c-0.1,0.4-0.1,0.8-0.2,1.3v0.1c-0.1,0.4-0.1,0.8-0.2,1.2
		c0,0.2-0.1,0.3-0.1,0.5c0,0.1,0,0.3-0.1,0.4c0,0.1,0,0.2-0.1,0.4c-0.1,0.3-0.1,0.7-0.2,1v0.1c0,0.1,0,0.3-0.1,0.4
		c0,0.1,0,0.1,0,0.2c-0.2,1.1-0.4,2.3-0.6,3.4c0,0.1,0,0.2,0,0.3c0,0.2-0.1,0.4-0.1,0.6c0,0.1,0,0.2-0.1,0.4
		c-0.2,0.9-0.3,1.7-0.5,2.6c-0.1,0.5-0.2,1-0.3,1.5l-0.1,0.7l0,0c0,0.2-0.1,0.5-0.1,0.7l-0.1,0.3l0,0c-0.1,0.5-0.2,0.9-0.3,1.4v0.1
		c-0.1,0.4-0.2,0.8-0.2,1.2v0.2c-0.1,0.4-0.2,0.8-0.2,1.2l0,0v0.1v0.2c0,0.1,0,0.1,0,0.2c-0.1,0.5-0.2,1-0.3,1.5
		c0,0.1,0,0.2-0.1,0.3l-0.5,2.7v0.2c-0.7,3.8-1.4,7.5-2.2,11.3v0.1l-0.2,1.3v0.1c-0.1,0.4-0.2,0.9-0.2,1.3v0.1l-0.5,2.8
		c0,0.1,0,0.2,0,0.2c-0.1,0.4-0.1,0.7-0.2,1.1c0,0.1,0,0.2-0.1,0.4l-0.2,1c0,0.2-0.1,0.3-0.1,0.5c-0.1,0.3-0.1,0.6-0.2,1
		c0,0.1-0.1,0.3-0.1,0.4l-0.2,1.3c-0.1,0.5-0.2,0.9-0.3,1.4v0.1v0.2c-0.1,0.4-0.1,0.7-0.2,1.1v0.2c0,0.1,0,0.2-0.1,0.3
		c-0.1,0.3-0.1,0.6-0.2,0.9c0,0.1-0.1,0.3-0.1,0.4v0.1c-0.1,0.3-0.1,0.6-0.2,0.9c0,0.2-0.1,0.3-0.1,0.5c-0.1,0.3-0.1,0.7-0.2,1
		l-0.1,0.3l0,0l-0.2,1.4v0.1c0,0.1,0,0.2,0,0.2l-0.2,1c0,0.2-0.1,0.3-0.1,0.5c-0.1,0.3-0.1,0.6-0.2,0.9l0,0l-0.1,0.5
		c-0.1,0.3-0.1,0.6-0.2,0.9l-0.1,0.5c-0.1,0.3-0.1,0.6-0.2,0.9c0,0.1,0,0.2-0.1,0.3v0.2l-0.2,1.4c-0.1,0.5-0.2,1-0.3,1.5
		c0,0.1,0,0.1,0,0.2c-0.2,1.2-0.5,2.4-0.7,3.7c0,0,0,0.1,0,0.2c-0.1,0.4-0.2,0.9-0.3,1.3c0,0.1,0,0.2-0.1,0.3l-0.4,1.6
		c0,0.2-0.1,0.3-0.1,0.5l-0.1,0.5c-9.1-8.2-22.5-18-30-21.4c10.5-15.8,13.7-19.9,23.8-32.3c5.6-6.9,13.9-16.3,20.6-23.9
		C130.2,256.8,130.2,257.1,130.1,257.5L130.1,257.5z"/>
	<path class="st5" d="M183.4,291.5l-0.4-0.9L183.4,291.5z M85.9,312.6c7.5,3.4,21,13.2,30,21.4l0.1-0.5c0-0.2,0.1-0.3,0.1-0.5
		c0.1-0.5,0.2-1,0.4-1.6c0-0.1,0-0.2,0.1-0.3c0.1-0.4,0.2-0.9,0.3-1.3c0,0,0-0.1,0-0.2c0.3-1.2,0.5-2.5,0.7-3.7c0-0.1,0-0.1,0-0.2
		c0.1-0.5,0.2-1,0.3-1.5l0.2-1.4c0-0.1,0-0.1,0-0.2s0-0.2,0.1-0.3c0.1-0.3,0.1-0.6,0.2-0.9l0.1-0.5c0.1-0.3,0.1-0.6,0.2-0.9l0.1-0.5
		l0,0c0.1-0.3,0.1-0.6,0.2-0.9c0-0.2,0.1-0.3,0.1-0.5l0.2-1c0-0.1,0-0.2,0-0.2v-0.1l0.2-1.4l0,0l0.1-0.3c0.1-0.3,0.1-0.7,0.2-1
		c0-0.2,0.1-0.3,0.1-0.5c0.1-0.3,0.1-0.6,0.2-0.9v-0.1c0-0.1,0.1-0.3,0.1-0.4c0.1-0.3,0.1-0.6,0.2-0.9c0-0.1,0-0.2,0.1-0.3v-0.2
		c0.1-0.4,0.1-0.7,0.2-1.1v-0.2v-0.1c0.1-0.5,0.2-0.9,0.3-1.4l0.2-1.3c0-0.1,0.1-0.3,0.1-0.4c0.1-0.3,0.1-0.6,0.2-1
		c0-0.2,0.1-0.3,0.1-0.5l0.2-1c0-0.1,0-0.2,0.1-0.4c0.1-0.4,0.1-0.7,0.2-1.1c0-0.1,0-0.2,0-0.2l0.5-2.8v-0.1
		c0.1-0.4,0.2-0.9,0.2-1.3v0.1l0.2-1.3v-0.1c0.5-2.4,0.9-4.8,1.4-7.2l0.8-4.1v-0.2l0.5-2.7c0-0.1,0-0.2,0.1-0.3
		c0.1-0.6,0.2-1.2,0.3-1.7v-0.2v-0.1l0,0c0.1-0.4,0.2-0.8,0.2-1.2v-0.2c0.1-0.4,0.2-0.8,0.2-1.2v-0.1c0.1-0.5,0.2-0.9,0.3-1.4l0,0
		l0.1-0.3c0-0.2,0.1-0.5,0.1-0.7l0,0l0.1-0.7l0.3-1.5c0.2-0.9,0.3-1.8,0.5-2.6c0-0.1,0-0.2,0.1-0.4c0-0.3,0.1-0.6,0.2-0.9
		c0.2-1.1,0.4-2.3,0.6-3.4c0-0.1,0-0.1,0-0.2s0.1-0.3,0.1-0.4v-0.1c0.1-0.3,0.1-0.7,0.2-1c0-0.1,0-0.2,0.1-0.4c0-0.1,0-0.3,0.1-0.4
		c0-0.2,0.1-0.3,0.1-0.5c0.1-0.4,0.1-0.8,0.2-1.2v-0.1l0.2-1.3c0-0.1,0-0.2,0-0.2c0.1-0.7,0.2-1.4,0.3-2.1v-0.1c0-0.3,0.1-0.7,0.1-1
		c-6.8,7.6-15,17-20.6,23.9C99.5,292.8,96.3,296.8,85.9,312.6L85.9,312.6z"/>
	<path class="st1" d="M243.4,281.1L243.4,281.1L243.4,281.1z M245.6,273.9c-0.1,0.3-0.1,0.6-0.2,0.8
		C245.5,274.5,245.6,274.2,245.6,273.9z M245.4,274.9c-0.1,0.3-0.2,0.6-0.2,0.9C245.3,275.5,245.3,275.2,245.4,274.9L245.4,274.9z
		 M242.9,282.3l-0.1,0.3L242.9,282.3z M243.4,281.2c0,0.1-0.1,0.1-0.1,0.2C243.3,281.4,243.3,281.3,243.4,281.2L243.4,281.2
		L243.4,281.2z M239.3,288.3L239.3,288.3L239.3,288.3z M245.9,272.9l0.1-0.7C246,272.4,245.9,272.7,245.9,272.9z M242.5,283.2
		l-0.1,0.1L242.5,283.2z M243.9,280c0-0.1,0.1-0.2,0.1-0.3C243.9,279.8,243.9,279.9,243.9,280z M244.7,277.4c0-0.1,0.1-0.2,0.1-0.3
		C244.8,277.2,244.8,277.3,244.7,277.4L244.7,277.4z M240.4,286.9l-0.1,0.2L240.4,286.9z M242.3,283.6l-0.2,0.4L242.3,283.6z
		 M240,287.4L240,287.4L240,287.4z M241.2,285.7l-0.1,0.1L241.2,285.7L241.2,285.7L241.2,285.7z M241.4,285.3L241.4,285.3
		L241.4,285.3z M240.8,286.3l-0.2,0.2L240.8,286.3z M241.8,284.5l-0.1,0.2L241.8,284.5z"/>
	<path class="st2" d="M241,285.9c-0.1,0.1-0.1,0.2-0.2,0.3c0.1-0.2,0.2-0.3,0.3-0.5L241,285.9L241,285.9z M242.3,283.6l0.2-0.3
		L242.3,283.6z M240.4,286.9l0.2-0.4L240.4,286.9L240.4,286.9z M241.5,285l-0.1,0.2c0.1-0.2,0.2-0.4,0.3-0.6
		C241.7,284.8,241.6,284.9,241.5,285z M241.2,285.7l0.2-0.3L241.2,285.7z M241.9,284.3l-0.1,0.2c0.1-0.2,0.2-0.3,0.3-0.5
		C242,284.1,242,284.2,241.9,284.3L241.9,284.3z M186.1,293.3L186.1,293.3L186.1,293.3z M240,287.4c0.1-0.1,0.2-0.3,0.3-0.4
		C240.2,287.2,240.1,287.3,240,287.4z M239.4,288.2c0.2-0.2,0.4-0.4,0.5-0.7C239.8,287.7,239.6,287.9,239.4,288.2z M245.4,274.9
		L245.4,274.9v-0.1V274.9L245.4,274.9z M245.6,273.9c0.1-0.3,0.1-0.7,0.2-1C245.8,273.3,245.7,273.6,245.6,273.9L245.6,273.9z
		 M243.9,279.7c0.1-0.4,0.3-0.8,0.4-1.2C244.2,279,244.1,279.3,243.9,279.7z M246,272.2c0-0.1,0-0.2,0.1-0.3
		C246.1,272,246,272.1,246,272.2z M243.1,281.9l-0.1,0.2c0,0.1-0.1,0.1-0.1,0.2c0.1-0.3,0.2-0.5,0.4-0.8L243.1,281.9L243.1,281.9z
		 M242.6,282.9l-0.1,0.3c0.1-0.2,0.2-0.4,0.3-0.6L242.6,282.9z M243.4,281.2c0,0,0-0.1,0.1-0.2C243.4,281.1,243.4,281.2,243.4,281.2
		z M243.4,281.1c0.1-0.4,0.3-0.7,0.4-1.1C243.7,280.4,243.6,280.7,243.4,281.1L243.4,281.1z"/>
	<path class="st2" d="M187,294.5l0.5,0.6c0.1,0.1,0.1,0.1,0.2,0.2l0.5,0.6c0.1,0.1,0.1,0.1,0.2,0.2l0.6,0.7l0.1,0.1
		c1.2,1.3,2.4,2.7,3.6,4l0.1,0.2l0.7,0.7l0.1,0.1c1.1,1.1,2.1,2.2,3.2,3.3c0.3,0.3,0.5,0.5,0.8,0.8l0.1,0.1c0.3,0.3,0.5,0.5,0.8,0.8
		l0.1,0.1c1.4,1.4,2.9,2.7,4.4,4l0,0l0.9,0.8l0,0c1.8,1.6,3.7,3.1,5.6,4.5c6.1,4.5,12.7,8.3,19.3,10.4l0,0c2.1,0.7,4.2,1.2,6.3,1.5
		h0.1c0.3,0,0.7,0.1,1,0.1l0,0c1.4,0.2,2.8,0.3,4.2,0.3c6-2,8.7-8,10.1-17.3c1.4-9.3-2.9-27.5-4.6-39.7c0,0.1,0,0.2-0.1,0.3
		c0,0.1,0,0.2-0.1,0.3c0,0.2-0.1,0.5-0.1,0.7c-0.1,0.3-0.1,0.7-0.2,1c-0.1,0.3-0.1,0.6-0.2,0.8v0.1c-0.2,0.7-0.4,1.5-0.6,2.2
		c0,0.1-0.1,0.2-0.1,0.3c-0.2,0.8-0.5,1.6-0.8,2.3c0,0.1-0.1,0.2-0.1,0.3c-0.1,0.4-0.3,0.7-0.4,1.1c0,0.1,0,0.1-0.1,0.2
		c0,0.1-0.1,0.1-0.1,0.2c-0.1,0.3-0.2,0.6-0.4,0.8l-0.1,0.3c-0.1,0.2-0.2,0.4-0.3,0.6l-0.1,0.1l-0.2,0.3l-0.2,0.4
		c-0.1,0.2-0.2,0.3-0.3,0.5l-0.1,0.2c-0.1,0.2-0.2,0.4-0.3,0.6v0.1l-0.2,0.3l-0.1,0.1c-0.1,0.2-0.2,0.3-0.3,0.5l-0.2,0.2l-0.2,0.4
		l-0.1,0.2c-0.1,0.1-0.2,0.3-0.3,0.4l0,0c-0.2,0.2-0.4,0.5-0.5,0.7l-0.1,0.1c-0.2,0.2-0.4,0.4-0.5,0.6c-1.2,2.9-2.4,5.8-3.3,8
		c-2,4.6-6.2,8.5-14.6,8.1c-7.9-0.4-16.5-8.7-24.8-17.5c-10.4-11-20.1-23.4-25-30.6c4.1,9.2,8.2,20.2,11.6,32.3l0.4,0.6l0.2,0.3
		c0.1,0.2,0.3,0.4,0.4,0.5c0.1,0.1,0.1,0.2,0.2,0.3c0.1,0.2,0.3,0.4,0.4,0.5l0.2,0.3c0.2,0.2,0.3,0.4,0.5,0.6l0.2,0.2
		c0.3,0.3,0.6,0.7,0.8,1l0,0c0.3,0.3,0.6,0.7,0.9,1L187,294.5L187,294.5z"/>
	<path class="st6" d="M180.8,282.6c3.3,2,6.6,3.3,8,2.1c1.8-1.5-2-6.3-7-10.9c-2.4-2.2-4.2-3.7-5.5-4.5
		C177.8,273.6,179.3,278,180.8,282.6L180.8,282.6z M195.1,293.5c-2.3,2.6,3.4,9.1,5.6,11.4c2.2,2.4,7.6,6.2,10.1,3.6
		c2.2-2.4-4.2-9.1-6.7-11.4C201.6,294.7,197.3,291,195.1,293.5L195.1,293.5z M222.7,314c2,6.7,7.4,9.4,11.7,9.5s9.2-2.8,8.2-8.5
		c-1-5.6-7.9-9.8-12.8-8.9C224.5,307.1,221.8,311.1,222.7,314z M245.6,274c0.1-0.5-1.1,4.4-1,4c-0.3,1.1-0.7,2.1-1.1,3.1
		c0,0.1,0,0.1-0.1,0.2c-0.1,0.2-0.2,0.4-0.3,0.6l-0.1,0.2c-0.1,0.2-0.1,0.3-0.2,0.5l-0.1,0.3c-0.1,0.1-0.1,0.3-0.2,0.4l-0.2,0.3
		l-0.2,0.4c-0.1,0.1-0.1,0.2-0.2,0.3c-0.1,0.1-0.1,0.2-0.2,0.3c-0.1,0.1-0.1,0.2-0.2,0.3l-0.2,0.3l-0.2,0.3l-0.2,0.3l-0.2,0.3
		c-0.9,4.3,0.2,9,2.4,9C247.9,295.2,244.8,280.3,245.6,274L245.6,274z"/>
	<path class="st5" d="M115.9,334c0-0.2,0.1-0.3,0.1-0.5l0,0c0-0.2,0.1-0.3,0.1-0.5c0.1-0.5,0.2-1,0.4-1.6c0-0.1,0.1-0.2,0.1-0.3
		c0.1-0.4,0.2-0.9,0.3-1.3c0-0.1,0-0.1,0-0.2s0-0.2,0.1-0.3c0.1-0.5,0.2-1,0.3-1.5v-0.2c0.1-0.5,0.2-0.9,0.3-1.4V326
		c0-0.1,0-0.1,0-0.2c0.1-0.5,0.2-1,0.3-1.5c0.1-0.5,0.2-1,0.3-1.5c0-0.1,0-0.2,0.1-0.3l0.5-2.8l0,0l0.4-2.4l0,0v-0.2l0.3-1.5l0,0
		l0.2-1.4l0.1-0.4l0,0l0.2-1c0-0.1,0.1-0.3,0.1-0.4c0.1-0.3,0.1-0.6,0.2-0.9l0,0l0.1-0.3c0.1-0.4,0.2-0.8,0.2-1.2l0,0
		c0-0.1,0-0.1,0-0.2l0.5-2.8c0-0.1,0.1-0.3,0.1-0.4c0.1-0.3,0.1-0.6,0.2-1l0,0c0-0.1,0.1-0.3,0.1-0.4l0,0c0.3-1.8,0.7-3.7,1-5.5
		v-0.1l0.3-1.3V298l1.7-8.7c0.3-1.4,0.5-2.7,0.8-4.1V285c0.1-0.5,0.2-1,0.3-1.5v-0.1c0.1-0.3,0.1-0.6,0.2-1v-0.1l0.1-0.3
		c0-0.2,0.1-0.4,0.1-0.6c0-0.1,0-0.2,0-0.2l0.1-0.7c0-0.1,0-0.1,0-0.2v-0.2V280c0.1-0.4,0.2-0.8,0.2-1.3v-0.2
		c0.1-0.4,0.2-0.8,0.2-1.2v-0.1c0-0.1,0-0.2,0-0.3c0-0.2,0.1-0.5,0.1-0.7l0.1-0.4l0.1-0.3l0.1-0.4l0.1-0.4c0-0.2,0.1-0.5,0.1-0.7
		l0.1-0.3c0.1-0.4,0.1-0.8,0.2-1.2l0.2-1.1l0.1-0.4l0.1-0.6c0-0.2,0.1-0.3,0.1-0.5l0.1-0.4c0-0.1,0-0.1,0-0.2c0-0.2,0.1-0.3,0.1-0.5
		c0-0.1,0-0.2,0-0.3c0-0.1,0-0.2,0.1-0.3l0.1-0.4c0-0.2,0.1-0.4,0.1-0.5l0.1-0.5c0.1-0.3,0.1-0.6,0.1-0.8c0-0.2,0.1-0.3,0.1-0.5
		l0.1-0.3c0-0.1,0-0.1,0-0.2s0.1-0.3,0.1-0.4v-0.1c0-0.1,0-0.3,0.1-0.4c0-0.1,0-0.3,0.1-0.4v-0.1c0-0.1,0-0.2,0.1-0.4
		c0-0.1,0-0.3,0.1-0.4c0-0.1,0.1-0.3,0.1-0.5l0.1-0.4l0.1-0.7v-0.1c0-0.1,0-0.3,0.1-0.4s0-0.3,0.1-0.4c0-0.1,0-0.3,0.1-0.4
		c0-0.1,0-0.2,0-0.2c0-0.1,0-0.1,0-0.2l0.1-0.4c0-0.1,0-0.3,0.1-0.4c0-0.1,0-0.3,0.1-0.4c0-0.1,0-0.3,0.1-0.4c0-0.1,0-0.3,0.1-0.4
		v-0.1c0-0.1,0-0.2,0-0.3l0.1-0.6v-0.1c-6.8,7.6-15,17-20.6,23.9c-10.1,12.4-13.3,16.4-23.8,32.3c7.5,3.4,21,13.2,30,21.4L115.9,334
		L115.9,334z"/>
	<path class="st1" d="M129,264.6L129,264.6L129,264.6z M129.5,261.2L129.5,261.2L129.5,261.2z M130.1,257.5L130.1,257.5L130.1,257.5
		z M129.2,263.3c0,0.1,0,0.2-0.1,0.4C129.2,263.5,129.2,263.4,129.2,263.3L129.2,263.3L129.2,263.3z M129.8,259.7c0,0.1,0,0.2,0,0.2
		C129.8,259.8,129.8,259.8,129.8,259.7z M129.3,262.4c0,0.2-0.1,0.3-0.1,0.5C129.3,262.7,129.3,262.6,129.3,262.4z M126.7,277.3
		L126.7,277.3L126.7,277.3L126.7,277.3z M127,275.6l-0.1,0.3l0,0C127,275.8,127,275.7,127,275.6z M128.9,265.1c0,0.1,0,0.1,0,0.2
		C128.9,265.3,128.9,265.2,128.9,265.1L128.9,265.1L128.9,265.1z M126.2,280v0.1V280L126.2,280z M128.3,268.8c0,0.1,0,0.2,0,0.3
		C128.2,268.9,128.2,268.8,128.3,268.8z M128.1,269.7L128,270C128,269.9,128.1,269.8,128.1,269.7z M127.3,274.1l-0.1,0.7l0,0
		L127.3,274.1L127.3,274.1z M187.5,308.7c0.1,0.6,0.2,1.1,0.3,1.7C187.8,309.8,187.6,309.3,187.5,308.7L187.5,308.7z M126.4,278.8
		v-0.2V278.8z M125.2,285.3v-0.2V285.3L125.2,285.3z M120.1,312.2c0.1-0.3,0.1-0.6,0.2-0.9C120.2,311.6,120.1,311.9,120.1,312.2z
		 M121.1,306.4c0.1-0.3,0.1-0.6,0.2-1C121.3,305.7,121.2,306,121.1,306.4z M188.7,314.8c0.1,0.4,0.1,0.8,0.2,1.2
		C188.8,315.5,188.8,315.1,188.7,314.8z M126.1,280.3c0,0.1,0,0.1,0,0.2C126.1,280.4,126.1,280.3,126.1,280.3L126.1,280.3
		L126.1,280.3z M186.2,302.8c0.4,1.9,0.9,3.8,1.2,5.7C187.1,306.6,186.7,304.7,186.2,302.8z M188,310.9c0.1,0.4,0.2,0.9,0.3,1.3
		C188.1,311.8,188.1,311.3,188,310.9z M185.8,301c0.1,0.6,0.3,1.1,0.4,1.7C186.1,302.1,185.9,301.5,185.8,301L185.8,301z
		 M188.4,312.8l0.2,1.2L188.4,312.8z M184.9,297.1c0.1,0.6,0.3,1.1,0.4,1.7C185.2,298.3,185,297.7,184.9,297.1z M90.7,410.2
		c-0.1,0.2-0.1,0.3-0.2,0.5c0-0.1,0-0.1,0.1-0.2C90.6,410.4,90.7,410.3,90.7,410.2L90.7,410.2z M90.5,410.7c0,0.1-0.1,0.2-0.1,0.3
		v-0.1C90.4,410.9,90.5,410.8,90.5,410.7L90.5,410.7z M89.9,412.6l0.1-0.2L89.9,412.6z M185.4,299.1c0.1,0.5,0.3,1.1,0.4,1.6
		C185.6,300.2,185.5,299.6,185.4,299.1L185.4,299.1z M90.2,411.6l-0.1,0.3l0,0C90.1,411.8,90.2,411.7,90.2,411.6L90.2,411.6z
		 M90.2,411.5c0-0.1,0.1-0.2,0.1-0.4C90.3,411.3,90.3,411.4,90.2,411.5z M89.9,412.7c0,0.1-0.1,0.2-0.1,0.3L89.9,412.7z M89.6,413.4
		l0.1-0.2L89.6,413.4z M125.8,282l-0.1,0.3C125.8,282.2,125.8,282.1,125.8,282z M90.1,412l-0.1,0.4c0,0,0,0,0-0.1L90.1,412z
		 M89.6,413.4l-0.3,0.8L89.6,413.4z M116.1,333c0,0.2-0.1,0.3-0.1,0.5C116,333.3,116.1,333.2,116.1,333L116.1,333L116.1,333z
		 M89.8,413c0,0.1,0,0.1-0.1,0.2l0,0C89.7,413.1,89.7,413,89.8,413L89.8,413z M91,409.5l0.1-0.3c-0.1,0.3-0.2,0.5-0.3,0.8l0.1-0.3
		C90.9,409.6,90.9,409.5,91,409.5L91,409.5z M122.7,298.1l-0.3,1.3l0,0C122.6,298.9,122.6,298.5,122.7,298.1L122.7,298.1z
		 M116.5,331.1c0,0.1,0,0.2-0.1,0.3C116.5,331.3,116.5,331.2,116.5,331.1z M120,312.7c-0.1,0.3-0.1,0.7-0.2,1
		C119.8,313.4,119.9,313,120,312.7L120,312.7L120,312.7z M119.7,314.1l-0.2,1.4l0.1-0.3L119.7,314.1L119.7,314.1z M120.8,308.1
		l0.2-1.3l-0.5,2.8v-0.1C120.6,309,120.7,308.6,120.8,308.1L120.8,308.1z M119.5,315.5l-0.3,1.5v-0.1L119.5,315.5z M120.5,309.8
		c-0.1,0.4-0.2,0.8-0.2,1.2v-0.2C120.4,310.5,120.4,310.2,120.5,309.8L120.5,309.8z M121.7,303.6c0.1-0.4,0.1-0.7,0.2-1.1
		c0-0.1,0-0.2,0-0.2c-0.2,0.9-0.3,1.8-0.5,2.7l0.2-1C121.6,303.8,121.6,303.7,121.7,303.6L121.7,303.6z M116.8,329.6
		c0,0.1,0,0.1,0,0.2C116.8,329.7,116.8,329.7,116.8,329.6z M118.5,321c0.1-0.3,0.1-0.6,0.2-0.9l0.1-0.5l-0.5,2.8
		c0.1-0.3,0.1-0.6,0.2-0.9L118.5,321L118.5,321z M118.2,322.8c-0.1,0.5-0.2,1-0.3,1.5l0.2-1.4L118.2,322.8L118.2,322.8z M123,296.7
		v-0.1c0.5-2.4,0.9-4.8,1.4-7.2l-1.7,8.6l0,0C122.7,297.9,123,296.7,123,296.7z M117.6,325.8c0,0.1,0,0.1,0,0.2
		C117.6,325.9,117.6,325.9,117.6,325.8L117.6,325.8z M119,318.2l0.2-1l-0.4,2.4c0.1-0.3,0.1-0.6,0.2-0.9
		C118.9,318.6,118.9,318.4,119,318.2L119,318.2z M128.6,345l-0.2-0.2L128.6,345z"/>
	<path class="st5" d="M85.9,312.6c7.5,3.4,21,13.2,30,21.4l0.1-0.5c0-0.2,0.1-0.3,0.1-0.5c0.1-0.5,0.2-1,0.4-1.6
		c0-0.1,0-0.2,0.1-0.3c0.1-0.4,0.2-0.9,0.3-1.3c0,0,0-0.1,0-0.2c0.3-1.2,0.5-2.5,0.7-3.7c0-0.1,0-0.1,0-0.2c0.1-0.5,0.2-1,0.3-1.5
		l0.2-1.4c0-0.1,0-0.1,0-0.2s0-0.2,0.1-0.3c0.1-0.3,0.1-0.6,0.2-0.9l0.1-0.5c0.1-0.3,0.1-0.6,0.2-0.9l0.1-0.5l0,0
		c0.1-0.3,0.1-0.6,0.2-0.9c0-0.2,0.1-0.3,0.1-0.5l0.2-1c0-0.1,0-0.2,0-0.2v-0.1l0.2-1.4l0,0l0.1-0.3c0.1-0.3,0.1-0.7,0.2-1
		c0-0.2,0.1-0.3,0.1-0.5c0.1-0.3,0.1-0.6,0.2-0.9v-0.1c0-0.1,0.1-0.3,0.1-0.4c0.1-0.3,0.1-0.6,0.2-0.9c0-0.1,0-0.2,0.1-0.3v-0.2
		c0.1-0.4,0.1-0.7,0.2-1.1v-0.2v-0.1c0.1-0.5,0.2-0.9,0.3-1.4l0.2-1.3c0-0.1,0.1-0.3,0.1-0.4c0.1-0.3,0.1-0.6,0.2-1
		c0-0.2,0.1-0.3,0.1-0.5l0.2-1c0-0.1,0-0.2,0.1-0.4c0.1-0.4,0.1-0.7,0.2-1.1c0-0.1,0-0.2,0-0.2l0.5-2.8v-0.1
		c0.1-0.4,0.2-0.9,0.2-1.3v0.1l0.2-1.3v-0.1c0.5-2.4,0.9-4.8,1.4-7.2l0.8-4.1v-0.2l0.5-2.7c0-0.1,0-0.2,0.1-0.3
		c0.1-0.6,0.2-1.2,0.3-1.7v-0.2v-0.1l0,0c0.1-0.4,0.2-0.8,0.2-1.2v-0.2c0.1-0.4,0.2-0.8,0.2-1.2v-0.1c0.1-0.5,0.2-0.9,0.3-1.4l0,0
		l0.1-0.3c0-0.2,0.1-0.5,0.1-0.7l0,0l0.1-0.7l0.3-1.5c0.2-0.9,0.3-1.8,0.5-2.6c0-0.1,0-0.2,0.1-0.4c0-0.3,0.1-0.6,0.2-0.9
		c0.2-1.1,0.4-2.3,0.6-3.4c0-0.1,0-0.1,0-0.2s0.1-0.3,0.1-0.4v-0.1c0.1-0.3,0.1-0.7,0.2-1c0-0.1,0-0.2,0.1-0.4c0-0.1,0-0.3,0.1-0.4
		c0-0.2,0.1-0.3,0.1-0.5c0.1-0.4,0.1-0.8,0.2-1.2v-0.1l0.2-1.3c0-0.1,0-0.2,0-0.2c0.1-0.7,0.2-1.4,0.3-2.1v-0.1c0-0.3,0.1-0.7,0.1-1
		c-6.8,7.6-15,17-20.6,23.9C99.5,292.8,96.3,296.8,85.9,312.6L85.9,312.6z M183.4,291.5l-0.4-0.9L183.4,291.5z"/>
	<path class="st1" d="M67.4,368.7l0.5-0.2L67.4,368.7z M66.7,369.1l0.5-0.3L66.7,369.1z M65.9,369.5l0.5-0.3
		C66.2,369.4,66,369.5,65.9,369.5z M65,370l0.5-0.3L65,370z M68.2,368.3l0.4-0.2L68.2,368.3z M68.9,367.9l0.4-0.2L68.9,367.9z
		 M64.2,370.5l0.6-0.4L64.2,370.5z M184.6,291.5c0.2,0.2,0.3,0.4,0.5,0.6l0.2,0.2c-0.3-0.4-0.6-0.7-0.9-1.1v0.1L184.6,291.5
		L184.6,291.5z M183.9,290.7c0.1,0.1,0.2,0.2,0.3,0.4l-0.7-0.8c0,0.1,0.1,0.1,0.1,0.2C183.8,290.5,183.9,290.6,183.9,290.7
		L183.9,290.7z M184.2,291l0.1,0.1L184.2,291z M69.6,367.5l0.4-0.2L69.6,367.5z M183.3,289.9l0.1,0.1c-0.2-0.3-0.5-0.6-0.7-0.9
		c0.1,0.2,0.3,0.4,0.4,0.5L183.3,289.9z M183.4,290l0.2,0.2L183.4,290L183.4,290z M72.2,366.3l0.4-0.2L72.2,366.3z M71,366.9
		l0.4-0.2L71,366.9z M71.6,366.6l0.4-0.2L71.6,366.6z M72.7,366.1l0.4-0.2L72.7,366.1z M73.2,365.8l0.5-0.2L73.2,365.8z M70.3,367.2
		l0.4-0.2L70.3,367.2z"/>
	<path class="st2" d="M64,370.6l0.2-0.1L64,370.6z M72.5,366.1l0.2-0.1L72.5,366.1z M69.3,367.7l0.3-0.1L69.3,367.7z M68.6,368.1
		l0.3-0.1L68.6,368.1z M73.1,365.9l0.1-0.1L73.1,365.9z M70,367.3l0.3-0.1L70,367.3z M71.4,366.7l0.2-0.1L71.4,366.7L71.4,366.7z
		 M67.9,368.4l0.3-0.2L67.9,368.4z M67.1,368.8l0.3-0.2L67.1,368.8z M66.4,369.3l0.3-0.2L66.4,369.3z M70.7,367l0.3-0.1L70.7,367z
		 M72,366.4l0.2-0.1L72,366.4L72,366.4z M64.8,370.1L65,370L64.8,370.1z M65.6,369.7l0.3-0.2L65.6,369.7z"/>
	<path class="st2" d="M84.7,376.1c5,3.3,14.5,11.1,16.5,9s-5.1-7-8.9-9.3c-3.4-2.1-12.7-7.1-19-10.5l0.5,0.3l-0.5,0.2l-0.1,0.1
		l-0.4,0.2l-0.2,0.1l-0.4,0.2l-0.2,0.1l-0.4,0.2l-0.2,0.1L71,367l-0.3,0.1l-0.4,0.2l-0.3,0.1l-0.4,0.2l-0.3,0.1l-0.4,0.2l-0.3,0.1
		l-0.4,0.2l-0.3,0.2l-0.5,0.2l-0.3,0.2l-0.5,0.3l-0.3,0.2l-0.5,0.3l-0.3,0.2L65,370l-0.2,0.1l-0.6,0.4l-0.2,0.1
		c-0.3,0.2-0.5,0.3-0.8,0.5l-0.8,0.5C73.9,367.7,79.9,373,84.7,376.1L84.7,376.1z"/>
	<path class="st3" d="M183.4,291.4l-0.4-0.9c7.4,35.4,8.9,78.4,5.8,99.8c-1.7,12-3.5,21.8-4.9,25.1c-4.3-0.5-7.4-5.3-8.6-9.7
		c-2.8-9.5-1.8-19.7-1.5-29.7c0.4-11.4,0-22.8-1.2-34.2c-0.6-5.7-1.4-11.3-2.4-16.9c-0.6-3.5-0.9-10.5-2.9-14.1c0-0.4-0.1-0.7-0.1-1
		c-2.4-18.7-8.3-46.9-12.8-63.9c2.7,13.7,5.3,36.5,7.4,73.7s-4.7,85.6-6.8,99.2c-0.3,2.2-0.7,4-1,5.5c1.1-0.1,2.2-0.2,3.2-0.4
		c0.6,0.1,1.3,0.1,1.9,0c0.2,0,0.4,0,0.6-0.1l0.5-0.1h0.1c0.5-0.1,0.9-0.2,1.4-0.3l0.4-0.1l0.3-0.1l0.4-0.1l0.3-0.1l0.4-0.1
		c0.2-0.1,0.5-0.1,0.7-0.2l0.9-0.2c3.2-0.9,6.9-2.2,10.2-3.6l0.6-0.2l0.3-0.1l0.2-0.1h0.1l0.2-0.1l0.2-0.1l0.1-0.1l0.3-0.1l0.3-0.1
		l0.3-0.1l0.2-0.1l0.3-0.1h0.1l0.2-0.1l0.3-0.1l0.2-0.1l0.3-0.1l0.2-0.1l0,0l0.4-0.2l0,0h0.1l0.3-0.1l0.2-0.1l0.3-0.1l0.2-0.1l0,0
		l0.3-0.1h0.1h0.1l0.3-0.1c0.1,0,0.1,0,0.2-0.1l0.3-0.1h0.1l0.3-0.1h0.1l0,0l0.3-0.1c2.2-1,3.6-1.6,3.6-1.6s8.6-53.1,2.9-92
		c-0.1-0.6-0.2-1.2-0.3-1.9l-0.1-0.6c-0.1-0.4-0.1-0.9-0.2-1.3c0-0.2-0.1-0.5-0.1-0.7c-0.1-0.4-0.1-0.8-0.2-1.2l0.1-0.7
		c-0.1-0.4-0.1-0.8-0.2-1.2l-0.1-0.7l-0.2-1.2c0-0.2-0.1-0.4-0.1-0.6l-0.3-1.3l-0.1-0.5c-0.1-0.6-0.2-1.1-0.3-1.7
		c-0.4-2-0.8-3.9-1.3-5.9v-0.2c-0.1-0.6-0.3-1.1-0.4-1.7c0-0.1,0-0.2-0.1-0.2c-0.1-0.5-0.3-1.1-0.4-1.6l-0.1-0.2
		c-0.1-0.6-0.3-1.1-0.4-1.7v-0.1c-0.5-1.8-0.9-3.6-1.4-5.4L183.4,291.4L183.4,291.4L183.4,291.4z M276.5,280l-1.9-0.8h-0.1
		c-1.3-0.6-4.5,6.1-5,7.1c-0.7,1.6-1.5,3.1-2.2,4.6c-0.7,1.6-1.6,3.1-2.5,4.6c-1.1,1.8-2.4,3.7-4.1,4.9c-2.1,1.6-4.3,1.5-6.8,1.1
		c-2.8-0.4-4-0.3-6.4,1.3c-1.9,1.3-5.6,3.1-8,3.5c-3.3,0.6-6.7,0.5-10,0.4c-4.4-0.1-8.9-0.3-13.1-1.9c-3.1-1.1-3.4-1-6.2-2.8
		c-5.9-4-10.9-9.8-15.8-15c-8.7-9.3-19.2-29.7-30.1-42.2c4.4,9.5,14.6,31.5,18.3,44.3c12.1,15.9,35.6,39.8,58.3,39.6
		c0.4,0,0.8,0,1.3,0c0.1,0,0.3,0,0.4,0c0.3,0,0.6,0,0.8-0.1c0.2,0,0.3,0,0.5,0c0.3,0,0.5,0,0.7-0.1l0.5-0.1l0.7-0.1l0.5-0.1
		c0.2,0,0.5-0.1,0.7-0.1l0.5-0.1c0.2,0,0.5-0.1,0.7-0.1l0.5-0.1l0.7-0.2l0.5-0.1l0.7-0.2l0.5-0.1c0.2-0.1,0.5-0.2,0.7-0.2
		c0.1,0,0.3-0.1,0.4-0.1c0.2-0.1,0.5-0.2,0.7-0.3l0.4-0.1c0.3-0.1,0.5-0.2,0.8-0.3c0.1,0,0.2-0.1,0.3-0.1c0.3-0.1,0.6-0.3,1-0.4
		l0.1-0.1c1.1-0.5,2.2-1.1,3.3-1.7l0,0c0.3-0.2,0.7-0.4,1-0.6l0.1-0.1c0.3-0.2,0.6-0.4,0.9-0.6l0.1-0.1c0.3-0.2,0.6-0.4,0.9-0.6
		l0.1-0.1l0.9-0.6l0.1-0.1c0.3-0.2,0.6-0.4,0.9-0.6l0.1-0.1c0.3-0.2,0.6-0.5,0.9-0.7l0,0c3.6-2.8,7-6,10-9.4
		c7.5-8.5,12.9-17.9,15.8-23.7C289.8,285.6,284.6,283.4,276.5,280L276.5,280z M186.4,216.4l-0.5,0.3L186.4,216.4z M185,217.1
		l-0.5,0.2L185,217.1z M155,219.3c-11.6,0.6-21.7,9.2-33.6,9.2c-26.3,0-48.6-8.4-61-18.5c-0.1-0.1-0.2-0.1-0.3-0.2
		c-13.7-9.2-14.9-17.3-17.2-21.4c-3.4-6.1,0.2-12.5-3.8-15c-9.4-5.8-27.9-59-8-91.3c2.5-4.1,8.7-7.7,12.1-11.1
		c2.7-2.6,2.5-5.1,5.6-7.4c25.3-18.1,64.1-24.3,85.1-17.2c-19.3-6.5-24.5-8.1-20.7-11.3c3.7-3.1,39.7-1.1,48.2,4.2
		c-9-6.7-7.7-12.2-43.8-13.7c-0.6,0-1.1,0-1.7,0C74.6,26.2,27.1,60.9,18.8,77c-11,21.4-15.4,37.4-5.6,76.4c7.5,29.8,28.5,63,73,74.6
		c13.7,3.6,30.2,4.2,48.4,2.7c17.2-1.4,33.9-5.8,49.6-13.1C169.4,221.7,161.9,218.9,155,219.3L155,219.3z M192.1,213.5
		c0.1,0,0.1-0.1,0.2-0.1L192.1,213.5L192.1,213.5z M187.9,215.7l-0.5,0.2L187.9,215.7z M191,214.1l-0.4,0.2L191,214.1z M189.3,215
		L189.3,215L189.3,215z M188.6,314.1l0.1,0.7L188.6,314.1z"/>
	<path class="st3" d="M187.5,308.5c0,0.1,0,0.1,0,0.2C187.5,308.6,187.5,308.6,187.5,308.5z M187.9,310.4l0.1,0.5L187.9,310.4
		L187.9,310.4z M188.2,312.2c0,0.2,0.1,0.4,0.1,0.6C188.3,312.6,188.3,312.4,188.2,312.2z M188.9,315.9l0.1,0.7L188.9,315.9z
		 M189.2,317.8c0,0.2,0.1,0.5,0.1,0.7C189.3,318.3,189.3,318.1,189.2,317.8z M186.2,302.6v0.2V302.6z M184.8,297v0.1V297L184.8,297z
		 M185.7,300.7l0.1,0.2L185.7,300.7z M185.3,298.8c0,0.1,0,0.2,0.1,0.2L185.3,298.8L185.3,298.8z M121.1,306.4c0,0.1,0,0.3-0.1,0.4
		C121.1,306.6,121.1,306.5,121.1,306.4S121.1,306.4,121.1,306.4z M120.5,309.8L120.5,309.8v-0.2
		C120.5,309.6,120.5,309.7,120.5,309.8L120.5,309.8z M130,257.9c0-0.1,0-0.3,0.1-0.4C130.1,257.7,130.1,257.8,130,257.9z
		 M120.2,311.3L120.2,311.3c0-0.1,0-0.2,0.1-0.3L120.2,311.3z M121.4,305c0,0.1-0.1,0.3-0.1,0.4l0,0
		C121.4,305.2,121.4,305.1,121.4,305L121.4,305z M117.6,325.8c0.1-0.5,0.2-1,0.3-1.5C117.8,324.8,117.7,325.3,117.6,325.8z
		 M117.5,326.2c-0.1,0.5-0.2,0.9-0.3,1.4v0.2c-0.1,0.5-0.2,1-0.3,1.5c0,0.1,0,0.2-0.1,0.3c0.3-1.2,0.5-2.5,0.7-3.7L117.5,326.2z
		 M129.7,260.3c0,0.1,0,0.3-0.1,0.4c0,0.1,0,0.3-0.1,0.4l0.2-1.3C129.7,260.1,129.7,260.2,129.7,260.3z M128.1,269.5
		c0,0.1,0,0.1,0,0.2c0-0.2,0.1-0.4,0.1-0.6C128.2,269.2,128.2,269.3,128.1,269.5z M122.4,299.5L122.4,299.5L122.4,299.5z
		 M127.9,270.5c0,0.2-0.1,0.4-0.1,0.6c0,0.1-0.1,0.3-0.1,0.4c-0.1,0.4-0.1,0.8-0.2,1.1c0.2-0.9,0.3-1.8,0.5-2.6
		C128,270.2,128,270.4,127.9,270.5L127.9,270.5z M119.5,315.5L119.5,315.5L119.5,315.5z M119.2,317.2L119.2,317.2c0,0,0-0.1,0-0.2
		V317.2z M120.1,312.2c0,0.1-0.1,0.3-0.1,0.4C120,312.5,120,312.4,120.1,312.2L120.1,312.2z M130.2,256.6l-0.1,0.6
		c0,0.1,0,0.2,0,0.3C130.2,257.2,130.2,256.8,130.2,256.6L130.2,256.6L130.2,256.6z M119.8,313.7l-0.1,0.4
		C119.7,314,119.8,313.8,119.8,313.7L119.8,313.7z M118.2,322.5c0,0.1,0,0.2-0.1,0.3C118.2,322.7,118.2,322.6,118.2,322.5
		L118.2,322.5z M116.5,331.1c0.1-0.4,0.2-0.9,0.3-1.3C116.7,330.2,116.6,330.7,116.5,331.1z M130,258.3c0,0.1,0,0.3-0.1,0.4
		c0,0.1,0,0.3-0.1,0.4l-0.1,0.4c0,0.1,0,0.1,0,0.2c0.1-0.6,0.2-1.2,0.3-1.7C130,258.1,130,258.2,130,258.3L130,258.3z M126.4,278.6
		c0.1-0.4,0.2-0.8,0.2-1.2C126.6,277.8,126.5,278.2,126.4,278.6L126.4,278.6z M115.9,334L115.9,334L115.9,334z M126.2,280
		c0.1-0.4,0.2-0.8,0.2-1.2C126.3,279.2,126.2,279.6,126.2,280z M126.9,276.3c0,0.2-0.1,0.5-0.1,0.7c0,0.1,0,0.2,0,0.3
		c0.1-0.5,0.2-0.9,0.3-1.4L126.9,276.3L126.9,276.3z M128.8,265.6c0,0.2-0.1,0.3-0.1,0.5c-0.1,0.3-0.1,0.6-0.1,0.8l-0.1,0.5
		c0,0.2-0.1,0.4-0.1,0.5l-0.1,0.4c0,0.1,0,0.2-0.1,0.3c0.2-1.2,0.4-2.3,0.6-3.4L128.8,265.6z M128.9,265.1l0.1-0.4L128.9,265.1z
		 M127.3,273.8l-0.1,0.3l0.3-1.5C127.5,273,127.4,273.4,127.3,273.8z M116,333.5c0,0.2-0.1,0.3-0.1,0.5L116,333.5L116,333.5z
		 M129.4,262l-0.1,0.4c0.1-0.4,0.1-0.8,0.2-1.2C129.5,261.5,129.5,261.7,129.4,262z M127.1,275.2l-0.1,0.4c0-0.2,0.1-0.5,0.1-0.7
		C127.1,275,127.1,275.1,127.1,275.2L127.1,275.2z M129.2,263.3c0-0.1,0-0.3,0.1-0.4C129.2,263,129.2,263.1,129.2,263.3L129.2,263.3
		z M122.7,298.1L122.7,298.1L122.7,298.1z M125.7,282.5c-0.1,0.3-0.1,0.6-0.2,1v0.1c-0.1,0.5-0.2,1-0.3,1.5l0.5-2.7V282.5
		L125.7,282.5z M126,281.1c0,0.1,0,0.2,0,0.2l-0.1,0.6c0.1-0.5,0.2-1,0.3-1.5L126,281.1z M126.1,280.3v-0.2
		C126.1,280.2,126.1,280.2,126.1,280.3z M129.1,263.8c0,0.1,0,0.3-0.1,0.4c0,0.1-0.1,0.3-0.1,0.4c0.1-0.3,0.1-0.7,0.2-1
		C129.1,263.7,129.1,263.7,129.1,263.8z M89.8,413L89.8,413L89.8,413z M90.5,410.7L90.5,410.7L90.5,410.7z M90.8,410L90.8,410
		L90.8,410L90.8,410z M90.4,411.1L90.4,411.1L90.4,411.1L90.4,411.1z M91.1,409l-0.1,0.1C91.1,409.1,91.1,409.1,91.1,409L91.1,409z
		 M90.2,411.5v0.1V411.5z M89.9,412.6L89.9,412.6L89.9,412.6z M90.1,412C90.1,411.9,90.1,411.9,90.1,412
		C90.1,411.9,90.1,411.9,90.1,412z"/>
	<path class="st3" d="M138.9,249.9c0,0,0,0-0.2-2.8c-2.1,2.4-5.1,5.7-8.4,9.4c0,0.3-0.1,0.6-0.1,1v0.1c0,0.1,0,0.3-0.1,0.4
		c-0.1,0.6-0.2,1.1-0.3,1.7c0,0.1,0,0.2,0,0.2c-0.1,0.4-0.1,0.8-0.2,1.3v0.1c-0.1,0.4-0.1,0.8-0.2,1.2c0,0.2-0.1,0.3-0.1,0.5
		c0,0.1,0,0.3-0.1,0.4c0,0.1,0,0.2-0.1,0.4c-0.1,0.3-0.1,0.7-0.2,1v0.1c0,0.1,0,0.3-0.1,0.4c0,0.1,0,0.1,0,0.2
		c-0.2,1.1-0.4,2.3-0.6,3.4c0,0.1,0,0.2,0,0.3c0,0.2-0.1,0.4-0.1,0.6c0,0.1,0,0.2-0.1,0.4c-0.2,0.9-0.3,1.7-0.5,2.6
		c-0.1,0.5-0.2,1-0.3,1.5l-0.1,0.7l0,0c0,0.2-0.1,0.5-0.1,0.7l-0.1,0.3l0,0c-0.1,0.5-0.2,0.9-0.3,1.4v0.1c-0.1,0.4-0.2,0.8-0.2,1.2
		v0.2c-0.1,0.4-0.2,0.8-0.2,1.2l0,0v0.1v0.2c0,0.1,0,0.1,0,0.2c-0.1,0.5-0.2,1-0.3,1.5c0,0.1,0,0.2-0.1,0.3l-0.5,2.7v0.2
		c-0.7,3.8-1.4,7.5-2.2,11.3v0.1l-0.2,1.3v0.1c-0.1,0.4-0.2,0.9-0.2,1.3v0.1l-0.5,2.8c0,0.1,0,0.2,0,0.2c-0.1,0.4-0.1,0.7-0.2,1.1
		c0,0.1,0,0.2-0.1,0.4l-0.2,1c0,0.2-0.1,0.3-0.1,0.5c-0.1,0.3-0.1,0.6-0.2,1c0,0.1-0.1,0.3-0.1,0.4l-0.2,1.3
		c-0.1,0.5-0.2,0.9-0.3,1.4v0.1v0.2c-0.1,0.4-0.1,0.7-0.2,1.1v0.2c0,0.1,0,0.2-0.1,0.3c-0.1,0.3-0.1,0.6-0.2,0.9
		c0,0.1-0.1,0.3-0.1,0.4v0.1c-0.1,0.3-0.1,0.6-0.2,0.9c0,0.2-0.1,0.3-0.1,0.5c-0.1,0.3-0.1,0.7-0.2,1l-0.1,0.3l0,0l-0.2,1.4v0.1
		c0,0.1,0,0.2,0,0.2l-0.2,1c0,0.2-0.1,0.3-0.1,0.5c-0.1,0.3-0.1,0.6-0.2,0.9l0,0l-0.1,0.5c-0.1,0.3-0.1,0.6-0.2,0.9l-0.1,0.5
		c-0.1,0.3-0.1,0.6-0.2,0.9c0,0.1,0,0.2-0.1,0.3v0.2l-0.2,1.4c-0.1,0.5-0.2,1-0.3,1.5c0,0.1,0,0.1,0,0.2c-0.2,1.2-0.5,2.4-0.7,3.7
		c0,0,0,0.1,0,0.2c-0.1,0.4-0.2,0.9-0.3,1.3c0,0.1,0,0.2-0.1,0.3l-0.4,1.6c0,0.2-0.1,0.3-0.1,0.5l-0.1,0.5c1.6,1.4,3.1,2.9,4.6,4.4
		c1.9,1.2,4.6,3.2,7.3,5.8c0.2,0.2,0.4,0.4,0.6,0.5l0.2,0.2c1,1,2,2,2.9,3C133.1,330.6,139.1,265.8,138.9,249.9L138.9,249.9z"/>
	<path class="st5" d="M183.4,291.5l-0.4-0.9L183.4,291.5z"/>
	<path class="st3" d="M89.4,414.2c0.4,0.4,0.9,0.7,1.3,1c3.2,2.2,6.4,3.2,10.4,3.8c3.7,0.4,7.4,0.7,11.1,0.7h0.5
		c0.4,0.5,0.8,0.9,1.3,1.2c1.9,1.2,5.3,2,9.7,2.5c-0.5-1.4-1.3-4-1-8.6c0-0.6-0.1-1.3-0.1-2.1c2.9-1,7.6-2.6,9.6-5
		c6.1-7.2,9.6-18.6,8-26.8c0.9-2,1.6-4.1,1.9-6.2c1.2-8.4-2.7-16.7-7.8-23.3c0.3,1.7,0.6,3.3,0.7,5c1.2,15.1-7.5,30.4-20.8,37.6
		s-30.5,6.3-43.4-1.7c-5.2-3.2-9.8-8-10-14.4c-1.9,3.4-2.3,7-2.6,10.7c0.1,0,0.2,0,0.3,0h0.1h0.2h0.1h0.2h0.1c0.1,0,0.1,0,0.2-0.1
		l0.2-0.1l0.2-0.1l0.2-0.1c0.1,0,0.1-0.1,0.2-0.1c0.1,0,0.1-0.1,0.2-0.1l0.1-0.1c0.1-0.1,0.2-0.2,0.4-0.3c1.6,2.5,3.3,4.9,5.3,7.2
		c0.8,0.9,1.7,1.8,2.6,2.6c3.2,3,6.7,5.5,10.6,7.5c0.7,0.3,1.4,0.7,2.1,1c3.1,1.4,6.3,2.4,9.6,3c0,0.1,0,0.1-0.1,0.2l-0.1,0.3
		c0,0.1-0.1,0.2-0.1,0.2l-0.1,0.3l0,0c0,0.1-0.1,0.1-0.1,0.2s-0.1,0.2-0.1,0.3c0,0.1,0,0.1-0.1,0.2l0,0c0,0.1-0.1,0.2-0.1,0.2v0.1
		c0,0,0,0,0,0.1s-0.1,0.2-0.1,0.4v0.1c0,0.1-0.1,0.2-0.1,0.2l0,0v0.1c0,0.1-0.1,0.2-0.1,0.3c0,0,0,0,0,0.1l-0.1,0.2v0.1l-0.1,0.3
		l0,0c0,0.1,0,0.1-0.1,0.2l0,0l0,0l-0.1,0.2L89.4,414.2z M116.2,404.3L116.2,404.3L116.2,404.3L116.2,404.3L116.2,404.3z
		 M73.7,365.6l-0.4,0.2L73.7,365.6L73.7,365.6z"/>
	<path class="st3" d="M101.6,375c-2-3.1-5.2-5-8.4-6.9l-14.5-8.6c-8-4.7-16.3-9.7-21.6-17.3s-10.1-20.4-4.3-27.7
		c-3,1.8-5.8,2.6-7,4.7c-0.4,0.7-1.3,0.9-1.9,0.5c-0.3-0.2-0.6-0.5-0.7-0.9c-0.3-1.4-0.1-2.7,0.2-4.5c0.8-4,4.4-9.3,6.8-12.5
		c9.6-12.6,16.1-15.3,29-25.4c4.3-3.4,16.5-10.1,20-14.2c-18.7,11.9-48.3,30.2-57.3,43.7C30,323.4,42.1,339,52.5,349.7
		c6.2,6.4,14.5,11.9,21.2,15.9l-0.5-0.3c6.3,3.4,15.6,8.4,19,10.5c3.8,2.3,10.9,7.2,8.9,9.3c-0.3,0.4-0.9,0.4-1.7,0.3
		C103.8,386.9,104.4,379.3,101.6,375L101.6,375z M69.9,367.4L69.9,367.4L69.9,367.4z M70.6,367.1l-0.2,0.1L70.6,367.1z M72.6,366.1
		l-0.2,0.1L72.6,366.1z M73.1,365.9l-0.3,0.1L73.1,365.9z M71.1,366.8L71.1,366.8L71.1,366.8z M72,366.4l-0.2,0.1L72,366.4L72,366.4
		z"/>
	<path class="st3" d="M83.9,311.3c0.8,0.4,1.6,0.7,2.2,0.9c10.3-15.5,13.5-19.6,23.5-31.9c6.8-8.3,17.4-20.2,24.6-28.3
		c4.7-4.8,4.7-5.5,6.4-9.6c-13.2,13-26.9,26-38.9,40c-8.7,10.2-19.5,21.2-31.8,26.7C73.7,308.7,80.4,309.9,83.9,311.3z"/>
	<path class="st3" d="M134.9,234.9c-5.6,3.6-12.9,11.1-22.5,18.4c-3.7,2.8-10.8,7.2-19.2,12.6c0.3-0.1,0.6-0.1,1-0.2
		c7.9-1.8,15.4-5.4,21.8-10.5c4.2-3.3,7.8-7.2,12.2-10.3c4.3-3.1,9.6-5.3,14.9-4.5c3.2,0.5,6.5,0.7,9.7,0.8c2.3,0,4.6-1.2,6.8-1.6
		c0.8,0.9,1.8,1.7,2.5,2.5c3.7,3.9,7,8.1,10.4,12.2c6.7,8,13.8,16.1,23.4,20.7c4.7,2.2,9.6,3.5,14.7,4.2c-3.4-2.4-7.2-5.2-11.5-8.3
		c-19.8-14.5-33-33.4-40.9-38.7c-0.1,0.1-0.2,0.3-0.3,0.4c-0.1-0.1-0.2-0.2-0.3-0.3c-2.4-2.8-0.9-4.6,1-5.8
		c-6.9,1.7-13.8,3-20.9,3.7C138.9,231.3,136.8,233.1,134.9,234.9L134.9,234.9z"/>
	<path class="st4" d="M37.6,195.8c-1.9-2.2-3.7-4.5-5.4-6.8c-0.8,0.2-1.7,0.3-2.5,0.6c2.8,3.9,5.8,7.6,9.1,11.1
		c0.8-0.3,1.6-0.7,2.3-1C39.9,198.4,38.8,197.1,37.6,195.8L37.6,195.8z M228.3,176c-0.5,2.3-1.3,4.6-2.4,6.8
		C227,180.6,227.9,178.3,228.3,176L228.3,176L228.3,176z M172.8,219.7c-12.3,4.5-25.2,7.4-38.3,8.5c-6.1,0.5-11.9,0.8-17.4,0.8
		c-11.4,0-21.6-1.1-30.2-3.4c-16.4-4.3-30.6-11.8-42.1-22.4c-0.8,0.4-1.5,0.7-2.3,1.1c11.1,10.4,25.4,18.8,43.8,23.6
		c9.1,2.4,19.5,3.4,30.8,3.4c5.6,0,11.5-0.3,17.6-0.8c17.2-1.4,33.9-5.8,49.6-13.1C180.5,218.6,176.7,219.3,172.8,219.7L172.8,219.7
		z M26.7,185.1c0.9-0.2,1.7-0.3,2.6-0.4c-6.3-9.8-10.9-20.6-13.7-32c-4.7-18.6-6.2-32.1-4.9-43.9c1.2-11.2,5-20.4,10.4-30.8
		c4.2-8.1,18.7-20.7,35.3-30.5c12-7.2,35.8-19.2,59.7-19.6c0.9,0,1.8,0,2.7,0c17.9,0,34.3,2.6,48.6,7.6c11.5,4.1,21.6,9.8,29.3,16.5
		c6.6,5.8,13.4,12,18.3,19.9c5.3,8.4,7.9,17.7,8.2,29.2c0.3,13.4-1.2,25.4-2.6,34.4c-0.4,6.6-0.7,12.3-0.5,16.4c0,0.5,0.2,1,0.6,1.3
		c0.8,1.9,2.7,4,4.5,7.1l0.2-0.1c-2.2-3.9-4.7-6.2-4.9-8.5c-0.3-3.9,5.6-24.7,5-50.5s-13.1-38.3-27.3-50.8
		c-13.9-12.2-39.8-24.7-79.5-24.7c-0.9,0-1.8,0-2.8,0C74.6,26.3,27.1,61,18.8,77.1c-11,21.4-15.4,37.4-5.6,76.4
		C16,164.5,20.6,175.3,26.7,185.1L26.7,185.1z M228.8,170.5c-0.3-2.5-0.9-5-1.9-7.3l-0.2,0.1c1,2.4,1.7,4.9,1.9,7.5
		c0.1,0.5,0.1,1.1,0.1,1.6h0.1C228.9,171.8,228.8,171.2,228.8,170.5z M128.6,345l-0.2-0.2L128.6,345z M129,343.4l1.5-11.4l1.5-11.4
		c1-7.6,2-15.3,2.9-22.9c0.5-3.8,0.9-7.6,1.3-11.5l0.6-5.7c0.2-1.9,0.4-3.8,0.6-5.7l0.3-2.9l0.1-1.4l0.1-1.4
		c0.1-1.9,0.3-3.8,0.4-5.8c0.1-1,0.1-1.9,0.1-2.9s0.1-1.9,0.1-2.9c0.1-1.9,0-3.9,0-5.8c-0.9,7.7-1.8,15.3-2.6,22.9
		c-0.4,3.8-0.8,7.6-1.3,11.5l-1.3,11.5c-0.9,7.6-1.8,15.3-2.7,22.9l-1.4,11.5l-1.4,11.5l-0.1,0.8c0.2,0.2,0.5,0.4,0.7,0.7l0.2,0.2
		l0.2,0.2L129,343.4z M114.1,420.9c0.8-3.1,1.5-6.2,2.3-9.4c0.7-2.8,1.3-5.6,2-8.4l-0.1,0.1c-0.7,0.4-1.3,0.8-2,1.1
		c-0.6,2.3-1.1,4.5-1.7,6.8c-0.7,2.9-1.5,5.8-2.3,8.6h0.5C113.1,420.2,113.5,420.6,114.1,420.9z"/>
	<path class="st4" d="M71,309.2c2.6-0.4,5.2-0.2,7.7,0.4c2.5,0.7,4.9,1.7,7.2,2.9c3.3,1.5,6.4,3.4,9.4,5.4s6,4.1,8.8,6.3
		c2.9,2.2,5.7,4.4,8.5,6.8c2.8,2.3,5.5,4.8,8,7.4l0,0c1.3,0.8,2.6,1.7,3.8,2.7c3.6,2.9,6.9,6.3,9.8,10c1.9,2.5,3.6,5.1,5,7.9
		s2.4,5.8,3,8.9s0.4,6.3-0.3,9.3c-0.8,3-2.3,5.9-4,8.4c-1.7,2.6-3.7,5-5.9,7.2s-4.5,4.3-7,6.2c-2.5,1.9-5.1,3.6-7.8,5.1
		c-2.7,1.6-5.5,2.9-8.5,4c-1.5,0.5-3,1-4.5,1.3c-1.5,0.4-3.1,0.6-4.6,0.6c-3.1,0.1-6.2-0.2-9.3-0.8c-6.1-1.3-11.9-3.9-16.9-7.5
		c-5-3.7-9.3-8.3-12.6-13.7l0,0c-0.2-0.8-0.3-1.5-0.5-2.3s-0.3-1.5-0.3-2.3s0-1.6,0.2-2.3c0.2-0.8,0.3-1.5,0.6-2.3l0.2,0.1
		c-0.4,1.5-0.7,3-0.5,4.5c0.1,0.8,0.2,1.5,0.4,2.2s0.4,1.5,0.6,2.3l-0.1-0.1c3.4,5.1,7.7,9.6,12.8,13c5,3.5,10.6,5.8,16.6,7
		c2.9,0.6,5.9,0.8,8.9,0.7c2.9-0.1,5.8-0.9,8.6-1.9c2.8-1.1,5.5-2.4,8.1-3.9s5.1-3.2,7.5-5.1c2.4-1.8,4.6-3.8,6.7-6
		c2.1-2.1,4-4.4,5.7-6.9c1.6-2.4,2.9-5.1,3.7-7.8c0.2-0.7,0.3-1.4,0.4-2.1c0.1-0.7,0.2-1.4,0.2-2.1c0-1.4-0.1-2.9-0.3-4.3
		c-0.5-2.9-1.4-5.7-2.8-8.3c-1.3-2.7-2.9-5.2-4.8-7.6c-1.8-2.4-3.8-4.7-6-6.8c-1.1-1-2.2-2-3.4-3c-1.1-0.9-2.3-1.8-3.6-2.6l0,0
		c-0.1-0.1-0.2-0.1-0.3-0.2c-2.4-2.6-5-5-7.7-7.4c-1.3-1.2-2.7-2.3-4.1-3.5c-1.4-1.1-2.8-2.3-4.2-3.4c-2.8-2.2-5.7-4.4-8.6-6.4
		c-2.9-2.1-5.9-4-9.1-5.6l0,0c-2.2-1.3-4.5-2.4-6.9-3.1c-1.2-0.4-2.5-0.6-3.7-0.7c-1.3-0.1-2.6-0.1-3.8,0L71,309.2L71,309.2z
		 M159.6,421.4l0.5-3c0.7-4,1.4-8,2-11.9l0.9-6c0.3-2,0.6-4,0.8-6c0.5-4,1-8,1.4-12s0.7-8,1-12.1c0.3-4,0.5-8.1,0.6-12.1
		s0.1-8.1,0-12.1s-0.2-8.1-0.4-12.1c-0.4-8.1-1.1-16.1-2-24.1s-2-16-3.2-24s-2.6-15.9-4-23.9H157c1.3,8,2.5,15.9,3.5,23.9
		c1.1,8,2,16,2.7,24s1.3,16,1.6,24.1c0.2,4,0.2,8,0.3,12.1c0,4,0,8-0.2,12.1c-0.2,4-0.4,8-0.8,12c-0.4,4-0.8,8-1.3,12s-1,8-1.5,12
		s-1.1,8-1.6,12c-0.6,4-1.1,8-1.7,12l-0.4,3l-0.2,1.5c-0.1,0.5-0.2,1-0.3,1.5c0.6,0.1,1.3,0.1,1.9,0c0.1-0.4,0.2-0.8,0.3-1.1
		L159.6,421.4L159.6,421.4z"/>
	<path class="st4" d="M131.7,256.5l-1.3-0.2l-0.2,0.2c-1,7.3-3.1,18.3-5.5,30.8c-1.7,9.8-3.6,19.5-5.5,29.3
		c-0.5,2.6-0.9,5.1-1.4,7.7c-0.5,3.1-1.2,6.3-2,9.7c0.5,0.4,0.9,0.8,1.4,1.3C123.6,305.6,129,274.4,131.7,256.5L131.7,256.5z"/>
	<g>
		<path class="st7" d="M228.6,170.8c-1.2-10-6.6-14.2-8-17.7c-0.4-0.3-0.6-0.8-0.6-1.3c-0.6-11.3,3.3-35.9-0.3-54.7
			s-16-21.1-21.4-20.8c-7.1,0.4-27,24.4-50.8,24.7c-23.8,0.3-46.9-19.3-69.5-11.9s-36.5,25.3-33.5,47.8c3,22.6,9.2,26.7,9.8,33.3
			c0.4,4.2-7,11.3-3.9,25.8c3.3,14.9,33,32.4,71,32.4c11.9,0,22-8.6,33.5-9.2c6.9-0.4,14.4,2.5,29.2-1.8c0.4-0.1,0.9-0.2,1.3-0.4
			c13.2-6.4,24-14.1,31.5-21.9c4-4.2,7-8.4,8.9-12.4C228.1,178.3,229,174.1,228.6,170.8L228.6,170.8z"/>
		<path class="st8" d="M146,173.1c0.2,2.6,5.6,2.4,8.3,2s5.8-2.4,5.7-3.3c-0.1-0.9-2.1-3.7-7.7-3C146.7,169.5,146,173.1,146,173.1
			L146,173.1z"/>
	</g>
	<path class="st9" d="M146.6,172.2c-0.6,0.4-0.4,1.3,0.1,1.7c0.6,0.5,1.4,0.6,2.1,0.8c3.5,0.7,7.4,0.8,10.6-0.6
		c0.1,0,0.2-0.1,0.2-0.2c0-0.1-0.2-0.1-0.2,0c-3.4,2.5-7.6,3.5-12.1,3.1c-1.4-0.1-2.9-0.5-3.7-1.4c-0.6-0.8-0.6-1.9,0.1-2.6
		C144.5,172.3,145.5,172.2,146.6,172.2L146.6,172.2z M217,195.2c3.7-3.8,6.4-7.7,8.4-11.3C198.5,212,181,213.7,155.7,216
		c-26.1,2.4-9.5-1.2-33.8,1.8c-22.6,2.8-51.4-2.7-72-25.4c0.1,1.2,0.3,2.5,0.6,3.7c3.3,14.9,33,32.4,71,32.4c11.9,0,22-8.6,33.5-9.2
		c7.1-0.4,14.9,2.6,30.5-2.2C198.7,210.7,209.5,203,217,195.2L217,195.2z M219.7,97.1c-3.6-18.7-16-21.1-21.4-20.8
		c-6.8,0.4-25,22-47.2,24.4c-1.5,0.1-3,0.1-4.5,0.2C123.2,100.7,100.3,81.7,78,89c-22.6,7.4-36.5,25.3-33.5,47.8
		c3,22.6,9.2,26.7,9.8,33.3c0,0.3,0,0.7,0,1c0.2-1.1,7.3-2.5,8.3-2.7c3.7-0.8,7.6-1.3,11.4-1.4c10.2-0.5,20.5,0.6,30.6,2.6
		c1.1,0.2,2.1,0.4,3.2,0.5l0.7,0.3l1.2,0.3c0.3,0,0.5,0,0.8,0c-0.2-0.1-0.4-0.2-0.6-0.3c5.3,0.4,10.5-0.2,15.1-2.4
		c10.5-3,21.2-7.4,31-6.8c14.5,0.9,14.5,5.9,22.3,4.2c1.2-0.3,2.5-0.9,3.8-1.8c2.7-0.9,5-2.8,7.2-4.7c0.7-0.6,1.4-1.2,2-1.8
		c6.4-4,15.2-7.5,28.7-5.4C219.4,140.5,223.3,115.9,219.7,97.1L219.7,97.1z"/>
	<path class="st1" d="M41.7,184.8c-12.5-2.7-33.3,4.2-38,11.9c-3,4.2,0,6.8,3.3,4.5s19.5-14.3,33.7-12.5
		C43.1,188.9,43.3,185.5,41.7,184.8L41.7,184.8z M44.1,198.6c-15,5.3-29.1,15.6-32.3,24c-1.4,3.4,2,6.3,4.9,3.4
		c3-3,14.1-16.6,28.9-23.2C47.9,201.9,46.1,198.2,44.1,198.6z"/>
	<path class="st3" d="M40.9,187.7c-2.3,0.1-4.6,0-6.9,0.1c-6.7,0.3-13.3,2.2-19.1,5.8c-2.3,1.4-4.5,3.1-7.1,4
		c-1.1,0.4-2.3,0.6-3.4,0.1c-0.4-0.2-0.6-0.5-0.8-0.9c-2.9,4.1,0.1,6.8,3.3,4.4s19.5-14.3,33.7-12.5c1.1,0.1,1.8-0.6,2-1.4
		C42.1,187.5,41.5,187.7,40.9,187.7L40.9,187.7z M16.8,225.9c3-3,14.1-16.6,28.9-23.2c1-0.4,1.2-1.4,0.9-2.3c-0.7,0.9-1.8,1.5-2.9,2
		c-3.7,1.6-7.5,3-10.8,5.3c-4.5,3-7.8,7.4-11.6,11.3c-1.8,1.9-4,3.7-6.6,4.1c-0.7,0.1-1.5,0.1-2-0.5c-0.2-0.3-0.4-0.6-0.5-1
		c-0.2,0.3-0.3,0.6-0.4,1C10.4,225.9,13.8,228.9,16.8,225.9L16.8,225.9z"/>
	<path class="st1" d="M256.9,176.5c-5.6-4.3-20.4-5.1-28.1-4c0,1.2-0.2,2.4-0.4,3.6c9.9-0.4,22.8,3.2,25.3,4.3
		C256.3,181.5,258.1,179.7,256.9,176.5L256.9,176.5z M251,153.6c-3.5-0.8-17.1,1.5-25.7,6.5c0.6,1,1.1,2.1,1.6,3.2
		c7.5-3.8,19.1-4.6,23.5-4.3C255.1,159.2,254.9,154.5,251,153.6z"/>
	<path class="st3" d="M256.9,176.5c-0.1,0-0.1-0.1-0.2-0.1c-0.4,0.5-0.9,0.9-1.4,1.1c-1.9,0.9-4.1,0.6-6.2,0.3
		c-5.1-0.9-10.1-2.1-15-3.7c-0.2-0.1-0.5-0.2-0.6-0.3c-0.7-0.6-0.5-1.1-0.1-1.7c-0.2,0-0.4,0-0.6,0c-0.3,0-0.6,0-0.8,0h-0.1
		l-0.7,0.1h-0.1c-0.3,0-0.5,0-0.8,0.1h-0.1l-0.7,0.1h-0.1l-0.7,0.1c0,1.2-0.2,2.4-0.4,3.6c0.3,0,0.6,0,0.9,0h1c2,0,3.9,0.1,5.9,0.4
		c2.3,0.3,4.5,0.6,6.7,1.1l0.9,0.2c1.2,0.2,2.3,0.5,3.4,0.8l0.7,0.2l0,0l0.7,0.2l0,0l0.7,0.2h0.1l0.6,0.2l0,0
		c0.4,0.1,0.8,0.2,1.2,0.3l0,0l0.5,0.2l0,0l0.4,0.1h0.1l0.4,0.1h0.1l0.3,0.1l0,0l0.3,0.1l0,0l0.2,0.1
		C256.3,181.5,258.1,179.7,256.9,176.5L256.9,176.5z M250.9,158.9h0.4h0.3h0.1l0.3-0.1h0.1c0.1,0,0.2,0,0.2-0.1h0.1
		c0.1,0,0.1,0,0.2-0.1h0.1c0.1,0,0.1-0.1,0.2-0.1l0,0c0.1,0,0.1-0.1,0.2-0.1h0.1l0.1-0.1l0.1-0.1l0.1-0.1V158c0-0.1,0.1-0.1,0.1-0.2
		l0,0c0-0.1,0.1-0.1,0.1-0.2c0,0,0-0.1,0.1-0.1v-0.1c0-0.1,0-0.1,0.1-0.2c0-0.1,0,0,0,0c0-0.1,0-0.1,0-0.2v-0.1c0-0.1,0-0.1,0-0.1
		v-0.1v-0.2c0,0,0-0.1,0-0.2l0,0c0-0.1,0-0.1,0-0.2c0-0.1,0-0.1,0-0.1v-0.1v-0.1c0-0.1,0-0.1-0.1-0.1c0,0,0,0,0-0.1
		s-0.1-0.1-0.1-0.2c0,0,0,0,0-0.1l-0.1-0.1l-0.1-0.1l-0.1-0.1c0,0,0,0-0.1-0.1l-0.1-0.1l0,0c-0.6,0.6-1.3,1.2-2.1,1.6
		c-1.8,1-3.9,1.6-6,2c-4.3,0.8-8.7,1.2-13.1,1c-0.4,0-0.8-0.1-1.1-0.2c-0.5-0.2-0.8-0.6-1-1.1c-0.3,0.1-0.6,0.3-0.9,0.4l-0.3,0.2
		c-0.2,0.1-0.4,0.2-0.6,0.3l-0.4,0.2l-0.5,0.3l-0.4,0.2l-0.5,0.2l-0.4,0.2l-0.2,0.1c0.6,1,1.1,2.1,1.6,3.2c0.2-0.1,0.4-0.2,0.5-0.3
		l0.2-0.1c0.2-0.1,0.3-0.2,0.5-0.2l0.2-0.1c0.2-0.1,0.3-0.1,0.5-0.2l0.3-0.1c0.2-0.1,0.3-0.1,0.5-0.2l0.3-0.1l0.5-0.2l0.3-0.1
		l0.5-0.2l0.3-0.1l0.5-0.2l0.3-0.1l0.5-0.1l0.3-0.1l0.6-0.2l0.3-0.1l0.5-0.1l0.3-0.1c0.2,0,0.4-0.1,0.6-0.1l0.3-0.1l0.6-0.1l0.3-0.1
		l0.6-0.1h0.2c0.2,0,0.4-0.1,0.6-0.1l0,0c0.8-0.1,1.5-0.2,2.3-0.3h0.2l0.5-0.1h0.3l0.5-0.1h0.3h0.5h0.3h0.4h0.4h0.4h0.4
		c0.1,0,0.3,0,0.4,0h0.4h0.4h0.4h3.9h0.5h0.4L250.9,158.9L250.9,158.9z"/>
	<path class="st1" d="M138.8,26.7c7.4,2.1,19.6,12.5,23.8,13.4c4.2,0.9,4.7-1.4,4.7-1.4c8,0.9,23.6,9.7,27.7,13.6
		c2.1,2.4,4.5,4.2,4.5-0.6s1.8-40.7-8-49C179.6-7.3,145,16,138.8,26.7L138.8,26.7z"/>
	<path class="st3" d="M165.7,39.7c-0.6,0-1.2,0-1.9-0.1c-3.3-0.5-5.6-3.6-6.9-6.7c-3-7.2-1.3-17.1,2.3-23.9
		c-9.4,5.7-17.8,12.9-20.5,17.6c7.4,2.1,19.6,12.5,23.8,13.4C163.9,40.4,164.9,40.2,165.7,39.7z M169,40.1c-0.5-0.1-0.9-0.6-0.8-1.1
		c0-0.2,0.1-0.3,0.2-0.5c2.5-3.1,6-11.3,7.1-14.1c1.4-3.4,5.9-14.1,7.9-15.6c2-1.6,4-2,5.1-1.8c1.2,0.2,2.8,2.2,3.6,5.5
		s3.2,20.8,3.4,24.4s2.2,11.1,1,11.7s-5-2.9-7.7-4.4c-2.6-1.4-9.7-4.2-13.7-4.6C173.2,39.5,170.6,40.3,169,40.1z"/>
	<g>
		<path class="st10" d="M122.1,184.9c-0.6,0.5-1.3,0.8-2,1.1c-1.4,0.6-2.9,0.9-4.5,0.9c-0.8,0-1.5-0.1-2.3-0.2
			c0.7-0.2,1.5-0.3,2.2-0.5l2.2-0.4c0.7-0.1,1.4-0.3,2.2-0.4C120.6,185.2,121.3,185,122.1,184.9L122.1,184.9z"/>
		<path class="st10" d="M119.5,185.6c2.4,1.8,4.9,3.4,7.6,4.6c2.7,1.2,5.6,2.2,8.5,2.9c2.9,0.7,5.9,1.1,8.9,1.3c3,0.1,6-0.1,8.9-0.5
			c2.9-0.5,5.8-1.3,8.6-2.4c2.8-1.1,5.5-2.4,8-4c0.6-0.4,1.3-0.8,1.9-1.2c0.3-0.2,0.6-0.4,0.9-0.7l0.9-0.7c1.2-0.9,2.4-1.9,3.5-2.9
			c0.6-0.5,1.1-1,1.6-1.6l0.8-0.8l0.4-0.4l0.4-0.4c0.2-0.3,0.5-0.6,0.7-0.9l0.7-0.9c0.2-0.3,0.4-0.6,0.6-0.9
			c0.1-0.1,0.2-0.3,0.3-0.5l0.3-0.5l0.5,0.2c-0.7,1.4-1.5,2.7-2.5,3.9l-0.4,0.5l-0.4,0.4l-0.8,0.9c-0.5,0.6-1,1.1-1.6,1.7
			c-1.1,1.1-2.2,2.1-3.4,3.1l-0.9,0.7c-0.3,0.2-0.6,0.5-0.9,0.7c-0.6,0.4-1.2,0.9-1.9,1.3l-2,1.2l-2,1.1c-0.3,0.2-0.7,0.4-1,0.5
			l-1,0.5c-0.7,0.4-1.4,0.6-2.1,0.9c-2.9,1.2-5.9,2.1-8.9,2.6c-3.1,0.5-6.2,0.7-9.3,0.6c-3.1-0.2-6.2-0.6-9.2-1.4
			c-3-0.8-5.9-1.8-8.7-3.2s-5.4-3.1-7.8-5.1L119.5,185.6L119.5,185.6z"/>
		<path class="st11" d="M119.2,185.9c0.7,0.3,1.4,0.7,2.1,0.9l1.1,0.4c0.3,0.1,0.7,0.3,1.1,0.4c0.3,0.1,0.7,0.3,1,0.4l1.1,0.4
			c0.7,0.2,1.4,0.4,2.1,0.7c2.8,0.8,5.6,1.4,8.5,1.8l1.1,0.2l1.1,0.1c0.4,0,0.7,0.1,1.1,0.1c0.4,0,0.7,0.1,1.1,0.1l1.1,0.1h0.5h0.5
			c0.7,0,1.4,0,2.1,0c0.7,0,1.4,0,2.1,0c0.3,0,0.7,0,1-0.1l1-0.1c0.7,0,1.4-0.1,2.1-0.2l1-0.1c0.3,0,0.7-0.1,1-0.2
			c0.7-0.1,1.4-0.2,2-0.4c0.7-0.1,1.3-0.3,2-0.5c0.3-0.1,0.7-0.2,1-0.3l1-0.3c0.3-0.1,0.7-0.2,1-0.3s0.7-0.2,1-0.3
			c2.7-0.9,5.3-2,7.8-3.3c2.6-1.3,5.1-2.8,7.5-4.5c0.6-0.4,1.2-0.9,1.8-1.3l0.9-0.7l0.4-0.3l0.4-0.3l0.9-0.7l0.9-0.7
			c0.3-0.2,0.6-0.5,0.8-0.8c0.1-0.1,0.3-0.3,0.4-0.4l0.4-0.4l0.4,0.2l-0.3,0.5c-0.1,0.2-0.2,0.4-0.3,0.5c-0.2,0.3-0.4,0.7-0.6,1
			l-0.7,0.9c-0.2,0.3-0.5,0.6-0.7,0.9l-0.4,0.4l-0.4,0.4l-0.8,0.9c-0.5,0.5-1.1,1.1-1.6,1.6c-2.2,2.1-4.6,4-7.2,5.7
			c-2.6,1.7-5.3,3.1-8.1,4.3s-5.8,2-8.8,2.5s-6.1,0.7-9.2,0.5c-3.1-0.2-6.1-0.6-9.1-1.4c-3-0.7-5.9-1.8-8.6-3.1
			c-2.8-1.3-5.4-3-7.7-5L119.2,185.9L119.2,185.9z"/>
		<path class="st11" d="M119.3,185.8c2.3,1.9,4.9,3.5,7.6,4.8c2.7,1.3,5.6,2.3,8.5,3.1c2.9,0.7,5.9,1.2,8.9,1.3s6-0.1,9-0.6
			s5.9-1.3,8.7-2.5c2.8-1.1,5.5-2.5,8-4.2c2.5-1.6,4.9-3.5,7.1-5.6c0.6-0.5,1.1-1.1,1.6-1.6l0.8-0.8l0.4-0.4l0.4-0.4
			c0.2-0.3,0.5-0.6,0.7-0.9l0.7-0.9c0.2-0.3,0.4-0.6,0.6-0.9c0.1-0.2,0.2-0.3,0.3-0.5l0.3-0.5l0.7,0.3l-0.2,0.6
			c-0.1,0.2-0.1,0.4-0.2,0.6c-0.2,0.3-0.3,0.7-0.5,1.1l-0.6,1c-0.2,0.3-0.4,0.6-0.7,1l-0.3,0.5l-0.4,0.5l-0.7,0.9
			c-0.5,0.6-1,1.2-1.5,1.8c-1.1,1.2-2.2,2.3-3.3,3.3l-0.9,0.8c-0.3,0.3-0.6,0.5-0.9,0.8c-0.6,0.5-1.2,1-1.9,1.5l-1.9,1.4
			c-0.7,0.4-1.4,0.8-2,1.3c-0.3,0.2-0.7,0.4-1,0.6l-1.1,0.6c-0.7,0.4-1.4,0.7-2.2,1c-2.9,1.3-6,2.3-9.2,2.9l-0.6,0.1
			c-0.2,0-0.4,0.1-0.6,0.1l-1.2,0.1c-0.8,0.1-1.6,0.2-2.4,0.3l-1.2,0.1c-0.4,0-0.8,0.1-1.2,0.1h-2.4c-0.8,0-1.6-0.1-2.4-0.2h-0.6
			l-0.6-0.1l-1.2-0.2c-0.4-0.1-0.8-0.1-1.2-0.2l-1.2-0.2l-1.2-0.2c-0.4-0.1-0.8-0.2-1.2-0.3c-3.1-0.8-6.1-2.1-8.9-3.8
			c-0.7-0.4-1.3-0.9-2-1.4c-0.6-0.5-1.3-1-1.8-1.6c-0.3-0.3-0.6-0.5-0.9-0.8s-0.5-0.6-0.8-0.9c-0.1-0.2-0.3-0.3-0.4-0.5
			s-0.2-0.3-0.4-0.5c-0.2-0.3-0.5-0.7-0.7-1L119.3,185.8L119.3,185.8z"/>
		<path class="st10" d="M179.3,175.3c0.8,0.1,1.6,0.1,2.4,0c0.8-0.1,1.6-0.2,2.3-0.3c0.8-0.1,1.6-0.2,2.4-0.2c0.8,0,1.6,0,2.4,0.2
			l-2.3,0.5c-0.8,0.2-1.6,0.3-2.4,0.4c-0.8,0.1-1.6,0.1-2.4,0.1C180.8,175.9,180,175.7,179.3,175.3z"/>
	</g>
	<path class="st1" d="M18.3,82.6c-3-30.3,17.2-73.7,41-78.4C68.4,2.3,91,26.7,95.2,36.5c1.8,4.2-5.9,1.5-15.4,4.2
		C70.2,43.4,54.2,55,53.6,57.6C53,60.3,55.4,71.3,53,74.3s-14,1.4-20.6,2.1C26,77,22.7,79.3,18.3,82.6L18.3,82.6z"/>
	<path class="st3" d="M33.5,46.9c-1.5-6.9-1.3-14-0.3-21C22.8,42.2,16.5,64.7,18.3,82.6c4.5-3.3,7.7-5.6,14.2-6.2
		c1.3-0.1,2.8-0.2,4.4-0.2c0.9-1,1.7-2,2.4-3c1.6-2.2,3.9-3.8,6.1-5C39,62.8,35.1,55,33.5,46.9L33.5,46.9z M95.3,38.1
		c-1,0.2-2.1-0.3-3.1-0.7c-2.4-1.1-5-1.9-7.6-2.4c-0.4,0-0.8-0.2-1.2-0.4c-0.3-0.2-0.5-0.5-0.7-0.9c-3.9-6.6-8.8-12.6-14.6-17.8
		c-2.7-2.5-6.2-4.9-9.8-4.2c-3.1,0.6-5.3,3.3-6.7,6c-1.8,3.5-2.7,7.4-3.5,11.2c-2,9.8-3.1,19.8-3.3,29.8c0,0.9,0,1.9,0.3,2.7
		c0.3,0.9,1,1.7,1.9,1.9c2.4,0.6,4.9-1.6,6.6-3.2c-0.1-0.9-0.1-1.7,0.1-2.6c0.6-2.7,16.6-14.3,26.1-16.9
		C87.7,38.4,94.4,40,95.3,38.1z"/>
	<g transform="translate(89.067 110.517)">
		<path class="st12" d="M18.2,58.7c4.2,0.2,9.6,1.6,12.2,2.6c6.2-4.1,9.5-18.5,6.6-32.7c-0.7-3.2-1.9-6.2-3.5-8.9
			C26.6,8.5,12.9,3.9,6.7,12.6c-4.5,6.2-4.9,14.9,0,28.1c2,5.4,4.5,9.9,7.3,13.3C15.3,55.7,16.7,57.2,18.2,58.7z"/>
		<path class="st13" d="M6.5,40.8c-1.1-2.8-2-5.7-2.6-8.6c-0.7-2.9-1-5.9-1-8.9c0.1-3,0.8-6,2.2-8.7c0.2-0.3,0.4-0.7,0.6-1l0.6-0.9
			c0.1-0.2,0.2-0.3,0.3-0.5L7,11.7c0.2-0.3,0.5-0.6,0.8-0.8c1.1-1.1,2.4-1.9,3.9-2.4s3-0.7,4.5-0.6c1.5,0.1,3,0.4,4.5,0.9
			c2.9,1,5.5,2.6,7.7,4.6c2.3,2,4.2,4.3,5.7,7c1.5,2.6,2.5,5.5,3.1,8.4l-0.3,0.1c-1.1-2.7-2.6-5.2-4.3-7.6c-1.7-2.2-3.6-4.2-5.9-5.9
			l-0.8-0.6c-0.3-0.2-0.6-0.4-0.8-0.6l-0.9-0.5l-1-0.7c-1.1-0.6-2.4-1.1-3.6-1.5C18.4,11.2,17.2,11,16,11c-1.1,0-2.2,0.1-3.3,0.5
			c-1,0.4-1.9,0.9-2.7,1.7c-0.2,0.2-0.4,0.4-0.6,0.6l-0.3,0.3L9,14.2c0,0.1-0.1,0.1-0.1,0.2l-0.5,0.8L7.8,16
			c-0.2,0.3-0.3,0.5-0.4,0.8c-0.2,0.3-0.3,0.6-0.4,0.9l-0.4,0.9l-0.3,0.9c-0.1,0.3-0.2,0.6-0.3,0.9c-0.1,0.3-0.2,0.6-0.2,1l-0.2,1
			c-0.1,0.3-0.1,0.7-0.1,1c-0.3,2.7-0.2,5.6,0.1,8.4c0.3,2.9,0.8,5.8,1.2,8.8C6.8,40.7,6.5,40.8,6.5,40.8z"/>
		<path class="st10" d="M14,54c-2.1-2.4-4-5.1-5.4-8c-0.7-1.4-1.4-2.9-2-4.4c-0.3-0.7-0.6-1.5-0.9-2.3S5.2,37.8,4.9,37
			c-0.1-0.4-0.3-0.8-0.4-1.2l-0.3-1.2C4,33.8,3.8,33,3.6,32.2S3.2,30.8,3,30c-0.1-0.4-0.1-0.8-0.2-1.2c-0.1-0.4-0.1-0.8-0.2-1.2
			l-0.1-1.2c0-0.2,0-0.4,0-0.6v-0.6c0-0.4,0-0.8,0-1.2v-1.2c0.1-1.7,0.4-3.3,0.8-4.9c0.5-1.6,1.2-3.1,2.1-4.5c0.9-1.5,2-2.7,3.4-3.7
			c0.7-0.5,1.5-0.9,2.3-1.2c0.4-0.2,0.8-0.3,1.2-0.4C12.5,8,12.7,8,12.9,8l0.3-0.1h0.3l0.6-0.1h0.6H15h0.9c0.8,0,1.7,0.2,2.5,0.3
			C20,8.5,21.6,9,23,9.8s2.8,1.7,4.1,2.7c2.5,2.1,4.6,4.6,6.1,7.5c-1.8-2.7-4-5-6.6-6.9c-1.3-0.9-2.6-1.8-4.1-2.4
			c-0.7-0.3-1.4-0.6-2.2-0.9c-0.7-0.2-1.5-0.4-2.3-0.6C17.2,9.1,16.5,9,15.7,9h-0.9h-0.3h-0.6l-0.6,0.1l-0.2,0.1L13.2,9
			c-0.2,0-0.4,0.1-0.6,0.1c-0.4,0.1-0.7,0.2-1.1,0.4c-1,0.4-2,1-2.8,1.8c-0.1,0.1-0.3,0.2-0.4,0.4L8,12.1c-0.1,0.1-0.3,0.3-0.4,0.4
			L7.3,13l-0.6,1c-0.8,1.3-1.4,2.7-1.9,4.2c-0.4,1.5-0.7,3-0.8,4.6L3.9,24v1.8c0,0.2,0,0.4,0,0.6L4,27.5c0.3,3.2,1,6.3,1.9,9.3
			c0.9,3.1,2,6.1,3.3,9S12.1,51.5,14,54L14,54z"/>
		<path class="st12" d="M99.1,48.5c1.9-2.3,3.7-5.4,5.2-8.9c4.8-11.6,6.4-28.2-1.1-36.2c-5.8-6.3-14.1,0.2-17.8,9.5
			c-1.1,2.9-2.1,5.8-2.7,8.8c-2.1,9.7-0.7,27,3,30.6c2.4,2.4,5.6,1.6,7.9,0.5C95.3,51.2,97.1,49.8,99.1,48.5z"/>
		<path class="st13" d="M104.1,39.6c0.4-2.6,0.8-5.1,1.1-7.7c0.2-2.5,0.5-5,0.5-7.5c0.1-2.4,0-4.9-0.3-7.3c-0.1-1.2-0.3-2.3-0.6-3.5
			c-0.2-1.1-0.6-2.2-1-3.3c-0.4-1-0.8-2-1.4-3L102,6.6L101.6,6l-0.5-0.6c-0.2-0.2-0.3-0.4-0.5-0.5c-0.3-0.3-0.6-0.6-1-0.8
			c-0.3-0.2-0.7-0.4-1-0.5c-0.4-0.1-0.8-0.2-1.2-0.2c-0.5,0-0.9,0.1-1.3,0.2c-0.5,0.1-1,0.3-1.4,0.5c-0.5,0.2-1,0.5-1.4,0.8
			c-1,0.6-1.9,1.4-2.8,2.2c-1.8,1.6-3.4,3.7-4.9,5.8l-0.3-0.1c0.9-2.4,2.2-4.7,3.8-6.8c0.8-1,1.7-2,2.7-2.8c1-0.9,2.2-1.5,3.4-2
			c0.6-0.2,1.3-0.4,1.9-0.5c0.7-0.1,1.4-0.1,2,0.1c0.7,0.1,1.3,0.4,1.9,0.7s1.1,0.7,1.6,1.2c2,1.8,3.3,4.2,4.2,6.6
			c0.4,1.2,0.8,2.5,1,3.8s0.4,2.6,0.5,3.9s0.1,2.6,0.1,3.9s-0.1,2.6-0.3,3.9c-0.1,1.3-0.3,2.6-0.6,3.9c-0.2,1.3-0.5,2.6-0.8,3.8
			c-0.7,2.5-1.5,5-2.5,7.4C104.4,39.7,104.1,39.6,104.1,39.6z"/>
		<path class="st10" d="M104.3,39.6c1.7-4.9,2.8-9.9,3.2-15.1c0.2-2.5,0.2-5.1,0-7.6c-0.1-1.3-0.3-2.5-0.5-3.8
			c-0.3-1.2-0.6-2.4-1-3.6s-1-2.3-1.6-3.4l-0.5-0.8l-0.6-0.7L102.7,4c-0.2-0.2-0.4-0.4-0.6-0.6c-0.4-0.4-0.9-0.8-1.4-1
			C100.1,2,99.6,1.8,99,1.7c-0.6-0.1-1.2-0.1-1.7-0.1c-0.6,0.1-1.2,0.2-1.7,0.4c-1.2,0.4-2.2,1-3.2,1.8s-1.9,1.7-2.7,2.6
			c-1.7,2-3.1,4.1-4.2,6.5c0.8-2.5,2-4.8,3.6-6.9c0.8-1.1,1.7-2,2.7-2.9S94,1.5,95.2,1c0.6-0.3,1.3-0.4,2-0.5
			c1.4-0.2,2.9,0.1,4.2,0.7c0.9,0.5,1.8,1.1,2.5,1.9l0.7,0.8l0.6,0.8c0.2,0.3,0.4,0.6,0.6,0.8c0.7,1.1,1.3,2.4,1.8,3.6
			c0.9,2.5,1.4,5.1,1.6,7.8c0.1,1.3,0.1,2.6,0,3.9c0,0.7-0.1,1.3-0.1,2s-0.1,1.3-0.2,2c-0.3,2.6-0.9,5.2-1.6,7.7
			C106.3,34.9,105.4,37.3,104.3,39.6L104.3,39.6z"/>
		<path class="st14" d="M90.1,56.6c1-1.6,2.3-3.1,3.7-4.5c1.4-1.3,2.9-2.6,4.5-3.6c0.4-0.3,0.8-0.5,1.2-0.8c0.2-0.1,0.4-0.2,0.6-0.4
			l0.6-0.3l0.6-0.3c0.2-0.1,0.4-0.2,0.7-0.3c0.4-0.2,0.9-0.4,1.3-0.5c1.8-0.7,3.7-1,5.6-1.1c-1.9,0.4-3.7,1-5.4,1.7
			c-0.4,0.2-0.9,0.4-1.3,0.6c-0.2,0.1-0.4,0.2-0.6,0.3l-0.6,0.3l-0.6,0.3c-0.2,0.1-0.4,0.2-0.6,0.4c-0.4,0.2-0.8,0.5-1.2,0.7
			c-0.8,0.5-1.6,1-2.3,1.6c-0.8,0.6-1.5,1.2-2.2,1.8C92.8,53.9,91.4,55.2,90.1,56.6L90.1,56.6z"/>
		<path class="st15" d="M87.7,52.6h-0.2c-3.8-0.2-6.6-7.7-6-16.3c0.5-8.5,4.1-15.4,7.8-15.4h0.2c1.7,0.1,3.4,1.8,4.5,4.7
			c1.2,3.1,1.8,7.2,1.5,11.5C95,45.7,91.5,52.6,87.7,52.6z"/>
		<path class="st16" d="M89.4,20.2v1.5h0.1c3,0.2,5.9,6.6,5.3,15.5c-0.3,4.1-1.2,8-2.8,10.8c-1.3,2.5-2.9,3.9-4.3,3.9h-0.1
			c-3-0.2-5.9-6.6-5.3-15.5c0.3-4.1,1.2-8,2.8-10.8c1.3-2.5,2.9-3.9,4.3-3.9V20.2z M89.4,20.2c-4.2,0-8,7.1-8.6,16.1
			c-0.6,9.1,2.4,16.8,6.7,17.1h0.2c4.2,0,8-7.1,8.6-16.1c0.6-9.1-2.4-16.8-6.7-17.1L89.4,20.2L89.4,20.2z"/>
		<path class="st15" d="M22.9,57.8c-5,0-9.9-6.7-11.2-15.2c-1.4-9.2,1.7-17.2,7-18c0.3,0,0.6-0.1,0.8-0.1c5,0,9.9,6.7,11.2,15.2
			c1.4,9.2-1.7,17.2-7,18C23.5,57.7,23.2,57.8,22.9,57.8z"/>
		<path class="st16" d="M19.5,23.7v1.5c2.1,0,4.4,1.4,6.3,3.9c2.1,2.7,3.6,6.5,4.2,10.6c0.7,4.4,0.3,8.6-1,11.9
			c-1.2,3.1-3.1,4.9-5.3,5.3c-0.2,0-0.5,0.1-0.7,0.1c-2.1,0-4.4-1.4-6.3-3.9c-2.1-2.7-3.6-6.5-4.2-10.6C11.1,33.8,14,26,18.8,25.2
			c0.2,0,0.5-0.1,0.7-0.1V23.7L19.5,23.7z M19.5,23.7c-0.3,0-0.6,0-1,0.1c-5.7,0.9-9.1,9.3-7.6,18.9c1.4,9,6.6,15.8,12,15.8
			c0.3,0,0.6,0,1-0.1c5.7-0.9,9.1-9.3,7.6-18.9C30.1,30.5,24.9,23.7,19.5,23.7L19.5,23.7L19.5,23.7z"/>
		<path class="st14" d="M31.5,61.8c-0.7-0.3-1.4-0.5-2.1-0.7s-1.4-0.4-2.2-0.5c-0.7-0.2-1.4-0.3-2.2-0.5c-0.7-0.1-1.4-0.3-2.2-0.4
			c-0.7-0.1-1.4-0.3-2.2-0.4c-0.7-0.1-1.5-0.2-2.2-0.3s-1.5-0.1-2.2-0.1c-0.7,0-1.5,0.1-2.2,0.2c0.7-0.3,1.4-0.6,2.2-0.7
			c0.8-0.1,1.5-0.2,2.3-0.1c0.8,0,1.5,0.1,2.3,0.1c0.7,0.1,1.5,0.2,2.2,0.3c1.5,0.3,2.9,0.7,4.4,1.1c0.7,0.2,1.4,0.5,2.1,0.8
			C30.2,61,30.9,61.4,31.5,61.8L31.5,61.8z"/>
		<ellipse transform="matrix(0.977 -0.2134 0.2134 0.977 -5.2849 5.4491)" class="st17" cx="22.6" cy="27.2" rx="2.5" ry="6.1"/>
		
			<ellipse transform="matrix(0.9999 -1.588142e-02 1.588142e-02 0.9999 -0.3584 1.4657)" class="st17" cx="92.1" cy="23.3" rx="2.5" ry="6.1"/>
	</g>
	<g>
		<path class="st1" d="M243.4,280.5L243.4,280.5L243.4,280.5z M245.6,273.3c-0.1,0.3-0.1,0.6-0.2,0.8
			C245.5,273.9,245.6,273.6,245.6,273.3z M245.4,274.3c-0.1,0.3-0.2,0.6-0.2,0.9C245.3,274.9,245.3,274.6,245.4,274.3L245.4,274.3z
			 M242.9,281.7l-0.1,0.3L242.9,281.7z M243.4,280.6c0,0.1-0.1,0.1-0.1,0.2C243.3,280.8,243.3,280.7,243.4,280.6L243.4,280.6
			L243.4,280.6z M239.3,287.6L239.3,287.6L239.3,287.6z M245.9,272.3l0.1-0.7C246,271.8,245.9,272.1,245.9,272.3z M242.5,282.6
			l-0.1,0.1L242.5,282.6z M243.9,279.4c0-0.1,0.1-0.2,0.1-0.3C243.9,279.2,243.9,279.3,243.9,279.4z M244.7,276.8
			c0-0.1,0.1-0.2,0.1-0.3C244.8,276.6,244.8,276.7,244.7,276.8L244.7,276.8z M240.4,286.3l-0.1,0.2L240.4,286.3z M242.3,283
			l-0.2,0.4L242.3,283z M240,286.8L240,286.8L240,286.8z M241.2,285.1c0,0-0.1,0.1-0.1,0.1L241.2,285.1L241.2,285.1L241.2,285.1z
			 M241.4,284.6L241.4,284.6L241.4,284.6z M240.8,285.7l-0.2,0.2L240.8,285.7z M241.8,283.9l-0.1,0.2L241.8,283.9z"/>
		<path class="st2" d="M241,285.3c-0.1,0.1-0.1,0.2-0.2,0.3c0.1-0.2,0.2-0.3,0.3-0.5L241,285.3L241,285.3z M242.3,283l0.2-0.3
			L242.3,283z M240.4,286.3l0.2-0.4L240.4,286.3L240.4,286.3z M241.5,284.4l-0.1,0.2c0.1-0.2,0.2-0.4,0.3-0.6
			C241.7,284.2,241.6,284.3,241.5,284.4z M241.2,285.1l0.2-0.3L241.2,285.1z M241.9,283.7l-0.1,0.2c0.1-0.2,0.2-0.3,0.3-0.5
			C242,283.5,242,283.6,241.9,283.7L241.9,283.7z M186.1,292.7L186.1,292.7L186.1,292.7z M240,286.8c0.1-0.1,0.2-0.3,0.3-0.4
			C240.2,286.6,240.1,286.7,240,286.8z M239.4,287.6c0.2-0.2,0.4-0.4,0.5-0.7C239.8,287.1,239.6,287.3,239.4,287.6z M245.4,274.3
			L245.4,274.3c0,0,0-0.1,0-0.1C245.4,274.2,245.4,274.2,245.4,274.3L245.4,274.3z M245.7,273.3c0.1-0.3,0.1-0.7,0.2-1
			C245.8,272.6,245.7,273,245.7,273.3L245.7,273.3z M244,279.1c0.1-0.4,0.3-0.8,0.4-1.2C244.2,278.4,244.1,278.7,244,279.1z
			 M246,271.6c0-0.1,0-0.2,0.1-0.3C246.1,271.4,246,271.5,246,271.6z M243.1,281.2l-0.1,0.2c0,0.1-0.1,0.1-0.1,0.2
			c0.1-0.3,0.2-0.5,0.4-0.8L243.1,281.2L243.1,281.2z M242.6,282.3l-0.1,0.3c0.1-0.2,0.2-0.4,0.3-0.6L242.6,282.3z M243.4,280.6
			c0,0,0-0.1,0.1-0.2C243.4,280.5,243.4,280.6,243.4,280.6z M243.4,280.5c0.1-0.4,0.3-0.7,0.4-1.1
			C243.7,279.7,243.6,280.1,243.4,280.5L243.4,280.5z"/>
		<path class="st5" d="M281.5,298.1l-0.4-0.9L281.5,298.1z"/>
		<g id="props-holder">
			<g>
				<g id="_x31_8_x5F_Props_x5F_Paintbrush_x5F_Tentacle">
					<g id="hex_dumbbell">
						<g id="right">
							<polygon class="st18" points="308,193.9 297.1,211.2 296.5,218.5 304.8,239 320.8,248.1 331.4,252.4 344.7,237.6 
								332.7,205.9 							"/>
							<polygon class="st19" points="304.8,239 320.8,248.1 328.2,237.1 320.8,216.4 303.6,207.8 296.5,218.5 							"/>
							<polygon class="st20" points="332.6,181.2 308,193.9 332.7,205.9 356.7,192.4 							"/>
							<polygon class="st21" points="344.7,237.6 367.9,223.1 356.7,192.4 332.7,205.9 							"/>
							
								<linearGradient id="SVGID_1_" gradientUnits="userSpaceOnUse" x1="340.3337" y1="247.9816" x2="361.6282" y2="221.0838" gradientTransform="matrix(1.0018 -3.490591e-02 -7.237598e-02 0.9289 17.7276 29.2115)">
								<stop  offset="0" style="stop-color:#8E8E8E"/>
								<stop  offset="1" style="stop-color:#49464E"/>
							</linearGradient>
							<polygon class="st22" points="331.4,252.4 354,238.7 367.9,223.1 344.7,237.6 							"/>
							
								<linearGradient id="SVGID_00000066488306933935090010000005782990676748437641_" gradientUnits="userSpaceOnUse" x1="374.7388" y1="236.127" x2="374.7388" y2="236.127" gradientTransform="matrix(1.0018 -3.490591e-02 -7.237598e-02 0.9289 17.7276 29.2115)">
								<stop  offset="0" style="stop-color:#8E8E8E"/>
								<stop  offset="1" style="stop-color:#49464E"/>
							</linearGradient>
							<path style="fill:url(#SVGID_00000066488306933935090010000005782990676748437641_);" d="M376.1,235.5"/>
							<polygon class="st24" points="308,193.9 303.6,207.8 296.5,218.5 297.1,211.2 							"/>
							<polygon class="st20" points="332.5,186.3 320.5,192.5 332.6,198.4 344.4,191.8 							"/>
							<g>
								<defs>
									<polygon id="SVGID_00000155121244900190101750000013583967707819863178_" points="332.5,186.3 320.5,192.5 332.6,198.4 
										344.4,191.8 									"/>
								</defs>
								<clipPath id="SVGID_00000165219365147667247020000010077019722814924438_">
									<use xlink:href="#SVGID_00000155121244900190101750000013583967707819863178_"  style="overflow:visible;"/>
								</clipPath>
								
									<polyline style="clip-path:url(#SVGID_00000165219365147667247020000010077019722814924438_);fill:none;stroke:#AFAEAE;stroke-width:1.2482;stroke-miterlimit:10;" points="
									320.5,192.5 332.5,186.3 344.4,191.8 								"/>
							</g>
						</g>
					</g>
					<path class="st2" d="M251.8,244.6c3.5-12.8,13.1-15.2,13.1-15.2l27.9,23.1l-11.6,10L251.8,244.6z"/>
					<path class="st1" d="M336,230.6c-0.3-0.8-0.5-1.5-0.8-2.2c-2.5-6.3-6.1-9.7-8.5-12c-0.5-0.5-1.1-0.9-1.9-1.4
						c-2.3-1.4-5.7-2.7-9.7-3.5c-2.4-0.5-4.9-0.9-7.5-1c-8.5-0.3-14.5,1.6-21.3,6.3s-8.1,7.1-8.1,7.1s-0.1-0.3-2.7-0.5
						c-0.7-0.1-1.6-0.1-2.7-0.2c-5.2-0.3-9.1,3.7-10,5.6s-0.9,5.6,1.3,10.3c2.2,4.7,7.7,8.3,10.7,9.8c3,1.5,4,1,6.4,1.7
						c2.5,0.8,0.7,3.6-0.7,4.6c-1.4,1.1-3.3-1.1-7.2-3.7c-3.9-2.5-11.8-9-16.7-10.2c-4.9-1.2-5.1,4.9-6.5,10.7
						c-1.4,5.8-2.8,12.7-3,13.8c-0.1,1.1-0.1,1.3,0.5,1.9c0.6,0.6,3,2.5,9.6,5.8c4.1,2,9.5,4.4,14.4,6.3c3,1.2,5.8,2.2,7.9,2.9
						c5.6,1.8,11.3,3.5,11.3,3.5l1.2-1.9l0.9-1.4c0,0,4.5-0.3,9.5-1s11-3.8,15.6-6.4c4.6-2.6,8.7-6.4,12.9-12.7
						c4.3-6.3,5.1-11.1,6.2-14.3C338.1,245.5,338.5,238.3,336,230.6z"/>
					<g id="_x31_8_x5F_Props_x5F_Paintbrush_x5F_Shadow">
						<path class="st3" d="M290.7,286.4l1.3-1.9l0.9-1.4c0,0,4.5-0.3,9.5-1s11-3.8,15.6-6.4c4.6-2.6,8.7-6.4,12.9-12.7
							c4.3-6.3,5.1-11.1,6.2-14.3c1.1-3.2,1.4-10.5-1.1-18.1c-0.3-0.8-0.5-1.5-0.8-2.2c1.2,11.7-2.7,22.4-4.4,25.3
							c-2.1,3.6-11.1,16.1-24.8,20s-24.1-0.7-31.3-4.2c-1.7-0.8-2.3-0.9-1.9,0.1c0.4,1,0.9,2.8,0.9,3.8s-0.4,1.8-2.2,6.4
							c3,1.2,5.8,2.2,7.9,2.9C285,284.6,290.7,286.4,290.7,286.4z"/>
						<path class="st3" d="M274.3,235.2c0.3-1.4,1.1-6.4,3.9-11.2c0,0-0.1-0.3-2.7-0.5C271.8,230,274,236.4,274.3,235.2z"/>
					</g>
					<g id="handle">
						<path class="st26" d="M266.9,243.3c-15.4,12.3,4.2,16.8,4.2,16.8s11.3-4.1,11.3-7.7c0-2.7-3.2-1.2-7.6-3.4
							C270.4,246.9,266.9,243.3,266.9,243.3z"/>
						<g>
							<defs>
								<path id="SVGID_00000076592031920600667170000008716457715938664358_" d="M266.9,243.6c-3.4,2.8-5.4,5.4-5.4,5.4
									s-5.4,12.6-2.1,13.6c5.3,1.6,23.2-6.3,23-10.2c-0.1-1.9-3.2-2.8-8.3-4.3C270.2,246.9,266.9,243.6,266.9,243.6z"/>
							</defs>
							<clipPath id="SVGID_00000012456059065436059200000002957504912685273738_">
								<use xlink:href="#SVGID_00000076592031920600667170000008716457715938664358_"  style="overflow:visible;"/>
							</clipPath>
							<path style="clip-path:url(#SVGID_00000012456059065436059200000002957504912685273738_);fill:#ADAAAA;" d="M271.2,260.4
								c4-0.7,18.4-8.8,13.5-9c-1.2-0.1-1-2.1-2.1-0.5C279.3,255.8,267,261.1,271.2,260.4z"/>
						</g>
					</g>
				</g>
				<g id="left">
					<polygon class="st18" points="214.3,245.3 204.7,263.6 204.7,271.5 214.6,293.9 231.3,304.3 242.3,309.4 254.5,293.9 
						239.9,259.2 					"/>
					<polygon class="st19" points="214.6,293.9 231.3,304.3 237.9,292.8 228.8,270.1 211,260.1 204.7,271.5 					"/>
					<polygon class="st20" points="237.9,232.5 214.3,245.3 239.9,259.2 262.9,245.5 					"/>
					<polygon class="st21" points="254.5,293.9 276.6,279.1 262.9,245.5 239.9,259.2 					"/>
					
						<linearGradient id="SVGID_00000123401316185649485210000006003156516182888113_" gradientUnits="userSpaceOnUse" x1="251.2451" y1="304.6178" x2="272.5397" y2="277.7201">
						<stop  offset="0" style="stop-color:#8E8E8E"/>
						<stop  offset="1" style="stop-color:#49464E"/>
					</linearGradient>
					<polygon style="fill:url(#SVGID_00000123401316185649485210000006003156516182888113_);" points="242.3,309.4 263.8,295.4 
						276.6,279.1 254.5,293.9 					"/>
					
						<linearGradient id="SVGID_00000023968629196718131820000001241355237929059754_" gradientUnits="userSpaceOnUse" x1="285.6503" y1="292.7632" x2="285.6503" y2="292.7632">
						<stop  offset="0" style="stop-color:#8E8E8E"/>
						<stop  offset="1" style="stop-color:#49464E"/>
					</linearGradient>
					<path style="fill:url(#SVGID_00000023968629196718131820000001241355237929059754_);" d="M285.7,292.8"/>
					<polygon class="st24" points="214.3,245.3 211,260.1 204.7,271.5 204.7,263.6 					"/>
					<polygon class="st20" points="238.2,238 226.7,244.3 239.3,251.1 250.6,244.4 					"/>
					<g>
						<defs>
							<polygon id="SVGID_00000154395909224926085440000013470019982423687592_" points="238.2,238 226.7,244.3 239.3,251.1 
								250.6,244.4 							"/>
						</defs>
						<clipPath id="SVGID_00000160893813956792379680000014440834074834862218_">
							<use xlink:href="#SVGID_00000154395909224926085440000013470019982423687592_"  style="overflow:visible;"/>
						</clipPath>
						
							<polyline style="clip-path:url(#SVGID_00000160893813956792379680000014440834074834862218_);fill:none;stroke:#AFAEAE;stroke-width:1.2957;stroke-miterlimit:10;" points="
							226.7,244.3 238.2,238 250.6,244.4 						"/>
					</g>
					<polygon class="st31" points="265.8,247.3 262.9,245.5 276.6,279.1 275.2,269.2 					"/>
				</g>
			</g>
		</g>
	</g>
</g>
<g id="_x30_4ygJl_00000118388570063941564170000005785137645676457639_" class="st32">
	
		<image style="display:inline;overflow:visible;enable-background:new    ;" width="1197" height="1201" id="_x30_4ygJl_00000147218645659935682270000011839628311244976525_" xlink:href="D432EB768D3DA411.jpg"  transform="matrix(0.1168 0 0 0.1168 179.8028 203.7855)">
	</image>
</g>
</svg>
