<?xml version="1.0" encoding="utf-8"?>
<!-- Generator: Adobe Illustrator 27.2.0, SVG Export Plug-In . SVG Version: 6.00 Build 0)  -->
<svg version="1.1" id="Ebene_1" xmlns="http://www.w3.org/2000/svg" xmlns:xlink="http://www.w3.org/1999/xlink" x="0px" y="0px"
	 viewBox="0 0 180 130" style="enable-background:new 0 0 180 130;" xml:space="preserve">
<style type="text/css">
	.st0{fill:#282828;}
	.st1{fill:#494949;}
	.st2{fill:none;}
	.st3{fill:#474444;}
	.st4{fill:#333333;}
	.st5{fill:#AFAEAE;}
	.st6{fill:#848181;}
	.st7{fill:url(#SVGID_1_);}
	.st8{fill:url(#SVGID_00000017484093870871257510000012436591172444074669_);}
	.st9{fill:#B2B1B1;}
	
		.st10{clip-path:url(#SVGID_00000148633942532196692640000006105237610338332553_);fill:none;stroke:#AFAEAE;stroke-width:1.2482;stroke-miterlimit:10;}
	.st11{opacity:0.3;fill:#091426;enable-background:new    ;}
	.st12{fill:#EFEFEF;}
	.st13{clip-path:url(#SVGID_00000017496180132755121770000001694309335167748780_);fill:#ADAAAA;}
	.st14{fill:url(#SVGID_00000083049969379376879300000016296791138668160392_);}
	.st15{fill:url(#SVGID_00000062876625318131271950000009447464387675400115_);}
	
		.st16{clip-path:url(#SVGID_00000001628604218782718140000015845990045971129754_);fill:none;stroke:#AFAEAE;stroke-width:1.2957;stroke-miterlimit:10;}
	.st17{fill:#565656;}
	.st18{display:none;}
</style>
<g>
	<path class="st0" d="M47.1,100.2L47.1,100.2L47.1,100.2z M49.3,93.1c-0.1,0.3-0.1,0.6-0.2,0.8C49.2,93.6,49.3,93.4,49.3,93.1z
		 M49.1,94c-0.1,0.3-0.2,0.6-0.2,0.9C48.9,94.7,49,94.4,49.1,94L49.1,94z M46.6,101.4l-0.1,0.3L46.6,101.4z M47.1,100.4
		c0,0.1-0.1,0.1-0.1,0.2C47,100.5,47,100.4,47.1,100.4L47.1,100.4L47.1,100.4z M43,107.4L43,107.4L43,107.4z M49.6,92l0.1-0.7
		C49.7,91.6,49.6,91.8,49.6,92z M46.2,102.3l-0.1,0.1L46.2,102.3z M47.5,99.1c0-0.1,0.1-0.2,0.1-0.3C47.6,98.9,47.6,99,47.5,99.1z
		 M48.4,96.5c0-0.1,0.1-0.2,0.1-0.3C48.5,96.3,48.5,96.4,48.4,96.5L48.4,96.5z M44.1,106l-0.1,0.2L44.1,106z M46,102.7l-0.2,0.4
		L46,102.7z M43.7,106.6L43.7,106.6L43.7,106.6z M44.9,104.8c0,0-0.1,0.1-0.1,0.1L44.9,104.8L44.9,104.8L44.9,104.8z M45.1,104.4
		L45.1,104.4L45.1,104.4z M44.5,105.4l-0.2,0.2L44.5,105.4z M45.5,103.6l-0.1,0.2L45.5,103.6z"/>
	<path class="st1" d="M44.7,105.1c-0.1,0.1-0.1,0.2-0.2,0.3c0.1-0.2,0.2-0.3,0.3-0.5L44.7,105.1L44.7,105.1z M46,102.7l0.2-0.3
		L46,102.7z M44.1,106l0.2-0.4L44.1,106L44.1,106z M45.2,104.1l-0.1,0.2c0.1-0.2,0.2-0.4,0.3-0.6C45.4,103.9,45.3,104,45.2,104.1z
		 M44.9,104.8l0.2-0.3L44.9,104.8z M45.6,103.5l-0.1,0.2c0.1-0.2,0.2-0.3,0.3-0.5C45.7,103.2,45.7,103.4,45.6,103.5L45.6,103.5z
		 M-10.2,112.5L-10.2,112.5L-10.2,112.5z M43.7,106.6c0.1-0.1,0.2-0.3,0.3-0.4C43.9,106.3,43.8,106.4,43.7,106.6z M43.1,107.3
		c0.2-0.2,0.4-0.4,0.5-0.7C43.5,106.8,43.3,107.1,43.1,107.3z M49.1,94L49.1,94c0,0,0-0.1,0-0.1C49.1,93.9,49.1,94,49.1,94L49.1,94z
		 M49.3,93.1c0.1-0.3,0.1-0.7,0.2-1C49.5,92.4,49.4,92.7,49.3,93.1L49.3,93.1z M47.6,98.8c0.1-0.4,0.3-0.8,0.4-1.2
		C47.9,98.1,47.8,98.5,47.6,98.8z M49.7,91.3c0-0.1,0-0.2,0.1-0.3C49.7,91.1,49.7,91.2,49.7,91.3z M46.8,101l-0.1,0.2
		c0,0.1-0.1,0.1-0.1,0.2c0.1-0.3,0.2-0.5,0.4-0.8L46.8,101L46.8,101z M46.3,102l-0.1,0.3c0.1-0.2,0.2-0.4,0.3-0.6L46.3,102z
		 M47.1,100.4c0,0,0-0.1,0.1-0.2C47.1,100.3,47.1,100.3,47.1,100.4z M47.1,100.2c0.1-0.4,0.3-0.7,0.4-1.1
		C47.4,99.5,47.3,99.8,47.1,100.2L47.1,100.2z"/>
	<path class="st2" d="M85.2,117.8l-0.4-0.9L85.2,117.8z"/>
	<g id="props-holder">
		<g>
			<g id="_x31_8_x5F_Props_x5F_Paintbrush_x5F_Tentacle">
				<g id="hex_dumbbell">
					<g id="right">
						<polygon class="st3" points="111.7,13.6 100.7,31 100.2,38.3 108.4,58.8 124.5,67.8 135.1,72.1 148.4,57.4 136.4,25.6 						
							"/>
						<polygon class="st4" points="108.4,58.8 124.5,67.8 131.9,56.9 124.5,36.1 107.3,27.5 100.2,38.3 						"/>
						<polygon class="st5" points="136.2,0.9 111.7,13.6 136.4,25.6 160.4,12.1 						"/>
						<polygon class="st6" points="148.4,57.4 171.6,42.9 160.4,12.1 136.4,25.6 						"/>
						
							<linearGradient id="SVGID_1_" gradientUnits="userSpaceOnUse" x1="143.4435" y1="64.6571" x2="164.7381" y2="37.7594" gradientTransform="matrix(1.0018 -3.490591e-02 -7.237598e-02 0.9289 5.3956 12.3724)">
							<stop  offset="0" style="stop-color:#8E8E8E"/>
							<stop  offset="1" style="stop-color:#49464E"/>
						</linearGradient>
						<polygon class="st7" points="135.1,72.1 157.7,58.4 171.6,42.9 148.4,57.4 						"/>
						
							<linearGradient id="SVGID_00000125585791687616332830000017970830486876800650_" gradientUnits="userSpaceOnUse" x1="177.8487" y1="52.8025" x2="177.8487" y2="52.8025" gradientTransform="matrix(1.0018 -3.490591e-02 -7.237598e-02 0.9289 5.3956 12.3724)">
							<stop  offset="0" style="stop-color:#8E8E8E"/>
							<stop  offset="1" style="stop-color:#49464E"/>
						</linearGradient>
						<path style="fill:url(#SVGID_00000125585791687616332830000017970830486876800650_);" d="M179.7,55.2"/>
						<polygon class="st9" points="111.7,13.6 107.3,27.5 100.2,38.3 100.7,31 						"/>
						<polygon class="st5" points="136.2,6 124.2,12.3 136.3,18.2 148.1,11.5 						"/>
						<g>
							<defs>
								<polygon id="SVGID_00000181791297675950934630000000127808297408226995_" points="136.2,6 124.2,12.3 136.3,18.2 
									148.1,11.5 								"/>
							</defs>
							<clipPath id="SVGID_00000147935504639053280310000015706930427877516958_">
								<use xlink:href="#SVGID_00000181791297675950934630000000127808297408226995_"  style="overflow:visible;"/>
							</clipPath>
							
								<polyline style="clip-path:url(#SVGID_00000147935504639053280310000015706930427877516958_);fill:none;stroke:#AFAEAE;stroke-width:1.2482;stroke-miterlimit:10;" points="
								124.2,12.3 136.2,6 148.1,11.5 							"/>
						</g>
					</g>
				</g>
				<path class="st1" d="M55.5,64.3C59,51.5,68.6,49.1,68.6,49.1l27.9,23.1L85,82.2L55.5,64.3z"/>
				<path class="st0" d="M139.6,50.3c-0.3-0.8-0.5-1.5-0.8-2.2c-2.5-6.3-6.1-9.7-8.5-12c-0.5-0.5-1.1-0.9-1.9-1.4
					c-2.3-1.4-5.7-2.7-9.7-3.5c-2.4-0.5-4.9-0.9-7.5-1c-8.5-0.3-14.5,1.6-21.3,6.3c-6.8,4.7-8.1,7.1-8.1,7.1s-0.1-0.3-2.7-0.5
					c-0.7-0.1-1.6-0.1-2.7-0.2c-5.2-0.3-9.1,3.7-10,5.6s-0.9,5.6,1.3,10.3c2.2,4.7,7.7,8.3,10.7,9.8c3,1.5,4,1,6.4,1.7
					c2.5,0.8,0.7,3.6-0.7,4.6c-1.4,1.1-3.3-1.1-7.2-3.7c-3.9-2.5-11.8-9-16.7-10.2C55.3,60,55,66.1,53.6,72
					c-1.4,5.8-2.8,12.7-3,13.8c-0.1,1.1-0.1,1.3,0.5,1.9c0.6,0.6,3,2.5,9.6,5.8c4.1,2,9.5,4.4,14.4,6.3c3,1.2,5.8,2.2,7.9,2.9
					c5.6,1.8,11.3,3.5,11.3,3.5l1.2-1.9l0.9-1.4c0,0,4.5-0.3,9.5-1c5-0.7,11-3.8,15.6-6.4c4.6-2.6,8.7-6.4,12.9-12.7
					c4.3-6.3,5.1-11.1,6.2-14.3C141.8,65.3,142.2,58,139.6,50.3z"/>
				<g id="_x31_8_x5F_Props_x5F_Paintbrush_x5F_Shadow">
					<path class="st11" d="M94.4,106.1l1.3-1.9l0.9-1.4c0,0,4.5-0.3,9.5-1c5-0.7,11-3.8,15.6-6.4c4.6-2.6,8.7-6.4,12.9-12.7
						c4.3-6.3,5.1-11.1,6.2-14.3c1.1-3.2,1.4-10.5-1.1-18.1c-0.3-0.8-0.5-1.5-0.8-2.2c1.2,11.7-2.7,22.4-4.4,25.3
						c-2.1,3.6-11.1,16.1-24.8,20c-13.7,3.9-24.1-0.7-31.3-4.2c-1.7-0.8-2.3-0.9-1.9,0.1c0.4,1,0.9,2.8,0.9,3.8c0,1-0.4,1.8-2.2,6.4
						c3,1.2,5.8,2.2,7.9,2.9C88.7,104.4,94.4,106.1,94.4,106.1z"/>
					<path class="st11" d="M77.9,54.9c0.3-1.4,1.1-6.4,3.9-11.2c0,0-0.1-0.3-2.7-0.5C75.5,49.7,77.6,56.2,77.9,54.9z"/>
				</g>
				<g id="handle">
					<path class="st12" d="M70.6,63.1c-15.4,12.3,4.2,16.8,4.2,16.8s11.3-4.1,11.3-7.7c0-2.7-3.2-1.2-7.6-3.4
						C74,66.6,70.6,63.1,70.6,63.1z"/>
					<g>
						<defs>
							<path id="SVGID_00000118398985073610572090000005632851226110765734_" d="M70.6,63.4c-3.4,2.8-5.4,5.4-5.4,5.4
								s-5.4,12.6-2.1,13.6c5.3,1.6,23.2-6.3,23-10.2c-0.1-1.9-3.2-2.8-8.3-4.3C73.9,66.6,70.6,63.4,70.6,63.4z"/>
						</defs>
						<clipPath id="SVGID_00000046302877527527702730000006282546474508518032_">
							<use xlink:href="#SVGID_00000118398985073610572090000005632851226110765734_"  style="overflow:visible;"/>
						</clipPath>
						<path style="clip-path:url(#SVGID_00000046302877527527702730000006282546474508518032_);fill:#ADAAAA;" d="M74.9,80.1
							c4-0.7,18.4-8.8,13.5-9c-1.2-0.1-1-2.1-2.1-0.5C83,75.5,70.7,80.9,74.9,80.1z"/>
					</g>
				</g>
			</g>
			<g id="left">
				<polygon class="st3" points="18,65 8.4,83.4 8.4,91.2 18.2,113.6 35,124 45.9,129.1 58.2,113.6 43.6,78.9 				"/>
				<polygon class="st4" points="18.2,113.6 35,124 41.6,112.5 32.5,89.8 14.7,79.9 8.4,91.2 				"/>
				<polygon class="st5" points="41.6,52.2 18,65 43.6,78.9 66.6,65.2 				"/>
				<polygon class="st6" points="58.2,113.6 80.3,98.9 66.6,65.2 43.6,78.9 				"/>
				
					<linearGradient id="SVGID_00000126301015638921495530000013688632163086522034_" gradientUnits="userSpaceOnUse" x1="54.9314" y1="124.3525" x2="76.226" y2="97.4548">
					<stop  offset="0" style="stop-color:#8E8E8E"/>
					<stop  offset="1" style="stop-color:#49464E"/>
				</linearGradient>
				<polygon style="fill:url(#SVGID_00000126301015638921495530000013688632163086522034_);" points="45.9,129.1 67.5,115.1 
					80.3,98.9 58.2,113.6 				"/>
				
					<linearGradient id="SVGID_00000047023300346926609220000016627006083241196467_" gradientUnits="userSpaceOnUse" x1="89.3366" y1="112.4979" x2="89.3366" y2="112.4979">
					<stop  offset="0" style="stop-color:#8E8E8E"/>
					<stop  offset="1" style="stop-color:#49464E"/>
				</linearGradient>
				<path style="fill:url(#SVGID_00000047023300346926609220000016627006083241196467_);" d="M89.3,112.5"/>
				<polygon class="st9" points="18,65 14.7,79.9 8.4,91.2 8.4,83.4 				"/>
				<polygon class="st5" points="41.9,57.8 30.3,64.1 42.9,70.9 54.2,64.2 				"/>
				<g>
					<defs>
						<polygon id="SVGID_00000156560439762093929850000008665707675324265881_" points="41.9,57.8 30.3,64.1 42.9,70.9 54.2,64.2 
													"/>
					</defs>
					<clipPath id="SVGID_00000039111520989877983720000004743280500879466376_">
						<use xlink:href="#SVGID_00000156560439762093929850000008665707675324265881_"  style="overflow:visible;"/>
					</clipPath>
					
						<polyline style="clip-path:url(#SVGID_00000039111520989877983720000004743280500879466376_);fill:none;stroke:#AFAEAE;stroke-width:1.2957;stroke-miterlimit:10;" points="
						30.3,64.1 41.9,57.8 54.2,64.2 					"/>
				</g>
				<polygon class="st17" points="69.5,67 66.6,65.2 80.3,98.9 78.9,88.9 				"/>
			</g>
		</g>
	</g>
</g>
<g id="_x30_4ygJl_00000118388570063941564170000005785137645676457639_" class="st18">
	
		<image style="display:inline;overflow:visible;" width="1200" height="1200" id="_x30_4ygJl_00000147218645659935682270000011839628311244976525_" xlink:href="7D663D5E26EA877D.jpg"  transform="matrix(0.1167 0 0 0.1167 81.5047 30.2574)">
	</image>
</g>
</svg>
